<svg xmlns="http://www.w3.org/2000/svg" xmlns:xlink="http://www.w3.org/1999/xlink" viewBox="0 0 24 24" fill="#144364">
  <path d="M11 2C9.9069372 2 9 2.9069372 9 4L9 9L2 9C1.447 9 1 9.447 1 10C1 10.553 1.447 11 2 11L2.1171875 11L2.5703125 14.619141C2.7405039 15.981217 3.4638955 17.146793 4.484375 17.9375L4.0292969 19.757812C3.8722969 20.388812 4.35 21 5 21C5.459 21 5.85775 20.687188 5.96875 20.242188L6.3203125 18.832031C6.7109161 18.930341 7.1128502 19 7.53125 19L16.46875 19C16.887316 19 17.289014 18.930341 17.679688 18.832031L18.03125 20.242188C18.14225 20.687188 18.541 21 19 21C19.65 21 20.127703 20.388812 19.970703 19.757812L19.515625 17.939453C20.536909 17.148739 21.259401 15.981976 21.429688 14.619141L21.884766 11L22 11C22.553 11 23 10.553 23 10C23 9.447 22.553 9 22 9L11 9L11 4L14 4L14 5C13.448 5 13 5.448 13 6C13 6.552 13.448 7 14 7L14.832031 7 A 1.0001 1.0001 0 0 0 15.158203 7L16 7C16.552 7 17 6.552 17 6C17 5.448 16.552 5 16 5L16 4C16 2.9069372 15.093063 2 14 2L11 2 z" fill="#144364" />
</svg>