<?xml version="1.0" encoding="UTF-8" standalone="no"?>
<!DOCTYPE svg PUBLIC "-//W3C//DTD SVG 1.1//EN" "http://www.w3.org/Graphics/SVG/1.1/DTD/svg11.dtd">
<svg width="100%" height="100%" viewBox="0 0 24 24" version="1.1" xmlns="http://www.w3.org/2000/svg" xmlns:xlink="http://www.w3.org/1999/xlink" xml:space="preserve" xmlns:serif="http://www.serif.com/" style="fill-rule:evenodd;clip-rule:evenodd;stroke-linejoin:round;stroke-miterlimit:2;">
    <g>
        <rect x="0" y="0" width="24" height="24" style="fill:none;"/>
    </g>
    <g transform="matrix(1.21967,0,0,1.21967,-2.63601,-2.43933)">
        <path d="M12,2C7.8,2 4,5.22 4,10.2C4,13.38 6.45,17.12 11.34,21.43C11.72,21.76 12.29,21.76 12.67,21.43C17.55,17.12 20,13.38 20,10.2C20,5.22 16.2,2 12,2ZM12,12C10.9,12 10,11.1 10,10C10,8.9 10.9,8 12,8C13.1,8 14,8.9 14,10C14,11.1 13.1,12 12,12Z" style="fill:white;fill-rule:nonzero;"/>
    </g>
</svg>
