<svg width="24" height="18" viewBox="0 0 24 18" fill="none" xmlns="http://www.w3.org/2000/svg">
<path d="M1.21536 0.000119838C1.05657 -0.00212582 0.898921 0.02721 0.751569 0.0864221C0.604217 0.145634 0.470103 0.233542 0.35702 0.345036C0.243937 0.456531 0.154142 0.589389 0.092852 0.735889C0.031562 0.882389 0 1.03961 0 1.19841C0 1.35722 0.031562 1.51444 0.092852 1.66094C0.154142 1.80744 0.243937 1.9403 0.35702 2.05179C0.470103 2.16328 0.604217 2.25119 0.751569 2.3104C0.898921 2.36962 1.05657 2.39895 1.21536 2.39671H22.7846C22.9434 2.39895 23.1011 2.36962 23.2484 2.3104C23.3958 2.25119 23.5299 2.16328 23.643 2.05179C23.7561 1.9403 23.8459 1.80744 23.9071 1.66094C23.9684 1.51444 24 1.35722 24 1.19841C24 1.03961 23.9684 0.882389 23.9071 0.735889C23.8459 0.589389 23.7561 0.456531 23.643 0.345036C23.5299 0.233542 23.3958 0.145634 23.2484 0.0864221C23.1011 0.02721 22.9434 -0.00212582 22.7846 0.000119838H1.21536ZM1.21536 7.78903C1.05657 7.78678 0.898921 7.81612 0.751569 7.87533C0.604217 7.93454 0.470103 8.02245 0.35702 8.13394C0.243937 8.24544 0.154142 8.3783 0.092852 8.5248C0.031562 8.6713 0 8.82852 0 8.98732C0 9.14612 0.031562 9.30334 0.092852 9.44984C0.154142 9.59634 0.243937 9.7292 0.35702 9.8407C0.470103 9.95219 0.604217 10.0401 0.751569 10.0993C0.898921 10.1585 1.05657 10.1879 1.21536 10.1856H22.7846C22.9434 10.1879 23.1011 10.1585 23.2484 10.0993C23.3958 10.0401 23.5299 9.95219 23.643 9.8407C23.7561 9.7292 23.8459 9.59634 23.9071 9.44984C23.9684 9.30334 24 9.14612 24 8.98732C24 8.82852 23.9684 8.6713 23.9071 8.5248C23.8459 8.3783 23.7561 8.24544 23.643 8.13394C23.5299 8.02245 23.3958 7.93454 23.2484 7.87533C23.1011 7.81612 22.9434 7.78678 22.7846 7.78903H1.21536ZM1.21536 15.5779C1.05657 15.5757 0.898921 15.605 0.751569 15.6642C0.604217 15.7234 0.470103 15.8114 0.35702 15.9228C0.243937 16.0343 0.154142 16.1672 0.092852 16.3137C0.031562 16.4602 0 16.6174 0 16.7762C0 16.935 0.031562 17.0923 0.092852 17.2388C0.154142 17.3853 0.243937 17.5181 0.35702 17.6296C0.470103 17.7411 0.604217 17.829 0.751569 17.8882C0.898921 17.9474 1.05657 17.9768 1.21536 17.9745H22.7846C22.9434 17.9768 23.1011 17.9474 23.2484 17.8882C23.3958 17.829 23.5299 17.7411 23.643 17.6296C23.7561 17.5181 23.8459 17.3853 23.9071 17.2388C23.9684 17.0923 24 16.935 24 16.7762C24 16.6174 23.9684 16.4602 23.9071 16.3137C23.8459 16.1672 23.7561 16.0343 23.643 15.9228C23.5299 15.8114 23.3958 15.7234 23.2484 15.6642C23.1011 15.605 22.9434 15.5757 22.7846 15.5779H1.21536Z" fill="white"/>
</svg>
