<svg width="13" height="24" viewBox="0 0 13 24" fill="none" xmlns="http://www.w3.org/2000/svg">
<path d="M11.6379 0.00116531C11.3191 0.0150746 11.0181 0.152422 10.7987 0.384175L0.348123 11.1421C0.124893 11.3716 0 11.6792 0 11.9993C0 12.3195 0.124893 12.6271 0.348123 12.8566L10.7987 23.6145C10.9106 23.7331 11.0449 23.8282 11.1939 23.8943C11.3429 23.9604 11.5036 23.9963 11.6666 23.9997C11.8296 24.0032 11.9916 23.9742 12.1433 23.9145C12.295 23.8548 12.4333 23.7655 12.5501 23.6518C12.667 23.5381 12.76 23.4023 12.8239 23.2524C12.8878 23.1024 12.9213 22.9412 12.9223 22.7782C12.9233 22.6152 12.892 22.4536 12.83 22.3028C12.768 22.1521 12.6766 22.0151 12.5612 21.9L2.94395 11.9993L12.5612 2.09872C12.7363 1.92349 12.8544 1.69946 12.9 1.45599C12.9456 1.21251 12.9166 0.960937 12.8168 0.734219C12.717 0.5075 12.5511 0.31621 12.3407 0.185407C12.1304 0.0546029 11.8854 -0.00961494 11.6379 0.00116531V0.00116531Z" fill="white"/>
</svg>
