<svg width="24" height="24" viewBox="0 0 24 24" fill="none" xmlns="http://www.w3.org/2000/svg">
<path d="M12 0C5.3832 0 0 5.3832 0 12C0 17.1888 3.3162 21.606 7.9362 23.2764C7.8882 22.5468 7.8 21.132 7.8 20.6502C7.8 19.4496 7.9374 19.089 7.9374 19.089L9.2976 13.4316C9.0966 12.8436 9 12.1842 9 11.5686C9 10.434 9.7314 9.3 10.8 9.3C11.5932 9.3 12.3 9.9 12.3 11.0718C12.3 11.4192 12.252 11.8272 12.1314 12.3042L11.673 14.118C11.5356 14.637 11.4294 15.6354 11.8758 16.2216C12.1302 16.5546 12.5742 16.7556 13.2 16.8C15.6732 16.8 16.8 14.1564 16.8 11.7C16.8 6.7428 12.4908 6.6 12 6.6C9.0222 6.6 6.6 8.8206 6.6 11.55C6.6 12.711 6.96 13.566 7.3896 14.181C7.4754 14.304 7.5096 14.4546 7.4742 14.6004L7.1388 15.9948C7.092 16.1898 6.8484 16.2696 6.7038 16.131C5.4906 14.9652 4.8 13.338 4.8 11.55C4.8 7.8282 8.0298 4.8 12 4.8C16.1046 4.8 19.2 7.7022 19.2 11.55C19.2 15.4374 16.6428 18.6 13.5 18.6C12.3354 18.6 11.4234 18.2862 10.7748 17.6736L10.1568 20.1192C9.8454 21.2532 9.4656 22.2906 8.475 23.4696C9.5904 23.8134 10.7736 24 12 24C18.6168 24 24 18.6168 24 12C24 5.3832 18.6168 0 12 0Z" fill="white"/>
</svg>
