<svg width="24" height="24" viewBox="0 0 24 24" fill="none" xmlns="http://www.w3.org/2000/svg">
<path d="M14.2236 0C10.622 0 5.19922 1.8893 1.85642 2.9152C0.448363 3.34718 -0.330597 4.8677 0.134949 6.28106C0.501102 7.39312 1.52018 8.09049 2.6095 8.09049C2.91967 8.09049 3.23543 8.034 3.54331 7.91429C6.63134 6.71548 11.9422 4.62636 14.864 4.62636C16.476 4.62636 19.8844 5.70521 21.9574 6.78142C22.1642 6.8884 22.3841 6.94068 22.6012 6.94068C23.1033 6.94068 23.5865 6.66619 23.8373 6.18505C24.1418 5.60097 24.0101 4.88383 23.516 4.45242C21.8543 3.00206 17.4344 0 14.2236 0ZM12.0079 9.54261C4.38778 9.54261 0.69613 16.0518 0.69613 16.0518C0.624983 16.178 0.58627 16.3202 0.58354 16.4655C0.580811 16.6107 0.614155 16.7543 0.680511 16.8831C0.680511 16.8831 4.34209 24 12.0079 24C19.6965 24 23.342 16.5804 23.342 16.5804C23.4064 16.45 23.4372 16.3053 23.4318 16.1596C23.4263 16.0139 23.3847 15.872 23.3107 15.7469C23.3107 15.7469 19.6051 9.54261 12.0079 9.54261ZM14.1087 15.0003C14.5288 15.0413 14.9411 15.0943 15.3471 15.1539C15.3999 15.396 15.4352 15.6442 15.4352 15.9039C15.4352 17.8303 13.9108 19.3736 12.0079 19.3736C10.105 19.3736 8.58055 17.8303 8.58055 15.9039C8.58055 15.6577 8.61231 15.4214 8.65977 15.1912C9.06652 15.1229 9.47947 15.063 9.90039 15.0161C9.75617 15.3674 9.69976 15.7493 9.73616 16.1279C9.77255 16.5066 9.90064 16.8703 10.1091 17.1868C10.3175 17.5034 10.5998 17.763 10.931 17.9427C11.2622 18.1224 11.6321 18.2166 12.0079 18.217C12.3851 18.2166 12.7563 18.1217 13.0884 17.9406C13.4206 17.7596 13.7033 17.4982 13.9113 17.1796C14.1193 16.8611 14.2462 16.4954 14.2807 16.1151C14.3151 15.7348 14.256 15.3518 14.1087 15.0003ZM17.1299 15.4792C18.9106 15.8552 20.4065 16.3226 21.3081 16.6414C20.3552 18.1981 17.3769 22.2651 12.0079 22.2651C6.62122 22.2651 3.65267 18.3759 2.7021 16.8843C3.5952 16.5254 5.09257 15.9833 6.88251 15.5537C6.87481 15.6698 6.86689 15.7861 6.86689 15.9039C6.86689 18.768 9.17878 21.1085 12.0079 21.1085C14.837 21.1085 17.1489 18.768 17.1489 15.9039C17.1489 15.7608 17.1412 15.6197 17.1299 15.4792Z" fill="white"/>
</svg>
