<svg width="328" height="402" viewBox="0 0 328 402" fill="none" xmlns="http://www.w3.org/2000/svg">
<path d="M308.746 49.9568C306.635 47.8466 305.469 45.0337 305.469 42.0466C305.469 39.0594 306.635 36.2491 308.746 34.1363C310.861 32.0235 313.669 30.8594 316.656 30.8594C319.648 30.8594 322.456 32.0235 324.571 34.1363C326.682 36.2491 327.843 39.0594 327.843 42.0466C327.843 45.0337 326.682 47.8466 324.571 49.9568C322.456 52.0722 319.648 53.2337 316.656 53.2337C313.669 53.2337 310.861 52.0722 308.746 49.9568Z" fill="#373A52"/>
<path d="M293.077 65.7186C290.992 63.6314 289.844 60.8622 289.844 57.9135C289.844 54.9647 290.992 52.193 293.077 50.1083C295.162 48.0237 297.931 46.875 300.88 46.875C303.833 46.875 306.603 48.0237 308.687 50.1083C310.772 52.193 311.918 54.9647 311.918 57.9135C311.918 60.8622 310.772 63.6314 308.687 65.7186C306.603 67.8032 303.833 68.9494 300.88 68.9494C297.931 68.9494 295.162 67.8032 293.077 65.7186Z" fill="#373A52"/>
<path d="M277.385 81.7377C275.347 79.6966 274.219 76.9812 274.219 74.0941C274.219 71.2043 275.347 68.4915 277.385 66.4479C279.426 64.4069 282.144 63.2812 285.034 63.2812C287.921 63.2812 290.637 64.4069 292.675 66.4479C294.719 68.4915 295.842 71.2043 295.842 74.0941C295.847 76.9812 294.719 79.6966 292.675 81.7377C290.637 83.7813 287.921 84.9069 285.034 84.9069C282.144 84.9069 279.426 83.7813 277.385 81.7377Z" fill="#373A52"/>
<path d="M260.895 97.2379C258.907 95.2533 257.812 92.6123 257.812 89.8071C257.812 86.9969 258.907 84.3584 260.895 82.3738C262.879 80.3892 265.518 79.2969 268.325 79.2969C271.13 79.2969 273.769 80.3892 275.754 82.3738C277.741 84.3584 278.833 86.9969 278.833 89.8071C278.833 92.6123 277.741 95.2533 275.754 97.2379C273.769 99.2225 271.13 100.317 268.325 100.317C265.518 100.317 262.879 99.2225 260.895 97.2379Z" fill="#373A52"/>
<path d="M245.938 113.003C244.025 111.088 242.969 108.544 242.969 105.839C242.969 103.131 244.025 100.585 245.938 98.6724C247.851 96.7595 250.397 95.7031 253.102 95.7031C255.81 95.7031 258.353 96.7595 260.266 98.6724C262.184 100.585 263.235 103.131 263.235 105.839C263.235 108.544 262.184 111.088 260.266 113.003C258.353 114.919 255.81 115.97 253.102 115.97C250.397 115.97 247.851 114.919 245.938 113.003Z" fill="#373A52"/>
<path d="M230.182 128.635C228.354 126.807 227.344 124.376 227.344 121.789C227.344 119.202 228.354 116.771 230.182 114.945C232.013 113.115 234.439 112.109 237.028 112.109C239.613 112.109 242.046 113.115 243.875 114.945C245.705 116.771 246.71 119.204 246.71 121.789C246.71 124.376 245.705 126.807 243.875 128.635C242.046 130.463 239.613 131.471 237.028 131.471C234.439 131.471 232.013 130.463 230.182 128.635Z" fill="#373A52"/>
<path d="M214.406 144.144C212.675 142.416 211.719 140.116 211.719 137.669C211.719 135.226 212.675 132.923 214.406 131.198C216.137 129.467 218.429 128.516 220.878 128.516C223.321 128.516 225.619 129.467 227.349 131.198C229.08 132.926 230.034 135.226 230.034 137.669C230.034 140.116 229.08 142.416 227.349 144.144C225.619 145.872 223.321 146.826 220.878 146.826C218.429 146.826 216.137 145.872 214.406 144.144Z" fill="#373A52"/>
<path d="M198.599 159.913C196.986 158.295 196.094 156.148 196.094 153.864C196.094 151.579 196.986 149.43 198.599 147.815C200.214 146.2 202.363 145.31 204.643 145.313C206.93 145.313 209.073 146.2 210.696 147.815C212.312 149.43 213.196 151.579 213.196 153.864C213.196 156.148 212.312 158.295 210.696 159.913C209.073 161.528 206.93 162.415 204.643 162.415C202.363 162.415 200.214 161.528 198.599 159.913Z" fill="#373A52"/>
<path d="M183.56 175.553C182.076 174.066 181.25 172.089 181.25 169.986C181.25 167.881 182.076 165.904 183.56 164.417C185.05 162.93 187.024 162.109 189.132 162.109C191.232 162.109 193.209 162.93 194.694 164.417C196.186 165.904 197.001 167.881 197.001 169.986C197.001 172.089 196.186 174.066 194.694 175.553C193.209 177.04 191.232 177.861 189.132 177.861C187.024 177.861 185.05 177.04 183.56 175.553Z" fill="#373A52"/>
<path d="M167.712 190.672C166.366 189.328 165.625 187.539 165.625 185.639C165.625 183.734 166.366 181.946 167.712 180.6C169.053 179.257 170.843 178.516 172.748 178.516C174.648 178.516 176.44 179.257 177.784 180.6C179.128 181.946 179.866 183.734 179.866 185.639C179.866 187.539 179.128 189.328 177.784 190.672C176.44 192.018 174.648 192.759 172.748 192.759C170.843 192.759 169.053 192.018 167.712 190.672Z" fill="#373A52"/>
<path d="M152.615 205.995C151.43 204.815 150.781 203.243 150.781 201.569C150.781 199.9 151.43 198.328 152.615 197.146C153.794 195.966 155.363 195.312 157.035 195.312C158.707 195.312 160.279 195.966 161.461 197.146C162.643 198.328 163.294 199.9 163.294 201.569C163.294 203.243 162.643 204.815 161.461 205.995C160.279 207.177 158.707 207.828 157.035 207.828C155.363 207.828 153.794 207.177 152.615 205.995Z" fill="#373A52"/>
<path d="M137.484 221.513C136.491 220.513 135.938 219.185 135.938 217.78C135.938 216.369 136.491 215.041 137.484 214.046C138.481 213.049 139.804 212.5 141.214 212.5C142.627 212.5 143.953 213.049 144.948 214.046C145.943 215.041 146.497 216.369 146.497 217.78C146.497 219.185 145.943 220.513 144.948 221.513C143.953 222.505 142.627 223.056 141.214 223.056C139.804 223.056 138.481 222.505 137.484 221.513Z" fill="#373A52"/>
<path d="M121.538 236.834C120.751 236.044 120.312 234.995 120.312 233.872C120.312 232.757 120.751 231.703 121.538 230.913C122.328 230.123 123.379 229.688 124.502 229.688C125.615 229.688 126.669 230.123 127.459 230.913C128.254 231.703 128.684 232.757 128.684 233.872C128.684 234.995 128.254 236.044 127.459 236.834C126.669 237.623 125.615 238.059 124.502 238.059C123.379 238.059 122.328 237.623 121.538 236.834Z" fill="#373A52"/>
<path d="M107.127 251.965C106.563 251.403 106.255 250.652 106.25 249.855C106.25 249.06 106.563 248.311 107.127 247.752C107.691 247.19 108.44 246.875 109.232 246.875C110.03 246.875 110.781 247.19 111.345 247.752C111.904 248.311 112.217 249.06 112.217 249.855C112.217 250.652 111.904 251.403 111.345 251.965C110.781 252.529 110.03 252.839 109.232 252.839C108.44 252.839 107.691 252.529 107.127 251.965Z" fill="#373A52"/>
<path d="M91.8934 266.901C91.578 266.588 91.4062 266.168 91.4062 265.727C91.4062 265.278 91.578 264.862 91.8934 264.55C92.2088 264.234 92.6242 264.062 93.0703 264.062C93.5165 264.062 93.9344 264.234 94.2472 264.55C94.5626 264.862 94.7344 265.278 94.7344 265.727C94.7344 266.168 94.5626 266.588 94.2472 266.901C93.9344 267.211 93.5165 267.386 93.0703 267.386C92.6242 267.386 92.2088 267.211 91.8934 266.901Z" fill="#373A52"/>
<path d="M76.6317 281.65L76.5625 281.483L76.6317 281.322L76.7958 281.25L76.9599 281.322L77.024 281.483L76.9599 281.65L76.7958 281.719L76.6317 281.65Z" fill="#373A52"/>
<path d="M309.324 81.2223C307.342 79.2377 306.25 76.5992 306.25 73.7915C306.25 70.9838 307.342 68.3428 309.324 66.3582C311.314 64.3736 313.953 63.2812 316.758 63.2812C319.568 63.2812 322.206 64.3736 324.188 66.3582C326.181 68.3453 327.268 70.9838 327.268 73.7915C327.268 76.5992 326.181 79.2377 324.188 81.2223C322.206 83.2069 319.568 84.3018 316.758 84.3018C313.953 84.3018 311.314 83.2069 309.324 81.2223Z" fill="#373A52"/>
<path d="M293.592 96.9849C291.679 95.0721 290.625 92.526 290.625 89.8208C290.625 87.1131 291.679 84.567 293.592 82.6542C295.507 80.7413 298.051 79.6875 300.756 79.6875C303.461 79.6875 306.01 80.7413 307.922 82.6542C309.838 84.567 310.892 87.1131 310.892 89.8208C310.892 92.526 309.838 95.0721 307.922 96.9849C306.01 98.9003 303.461 99.9542 300.756 99.9542C298.051 99.9542 295.507 98.9003 293.592 96.9849Z" fill="#373A52"/>
<path d="M277.836 113.015C276.008 111.184 275 108.751 275 106.169C275 103.579 276.008 101.148 277.836 99.3203C279.664 97.4921 282.092 96.4844 284.682 96.4844C287.264 96.4844 289.697 97.4921 291.528 99.3203C293.356 101.148 294.362 103.582 294.362 106.169C294.362 108.751 293.356 111.184 291.528 113.015C289.697 114.841 287.264 115.851 284.682 115.851C282.092 115.851 279.664 114.841 277.836 113.015Z" fill="#373A52"/>
<path d="M262.841 128.519C261.11 126.791 260.156 124.491 260.156 122.044C260.156 119.598 261.11 117.298 262.841 115.573C264.572 113.842 266.867 112.891 269.315 112.891C271.761 112.891 274.056 113.842 275.787 115.573C277.518 117.301 278.469 119.598 278.469 122.044C278.469 124.491 277.518 126.791 275.787 128.519C274.056 130.247 271.761 131.201 269.315 131.201C266.867 131.201 264.572 130.247 262.841 128.519Z" fill="#373A52"/>
<path d="M247.036 143.894C245.426 142.281 244.531 140.133 244.531 137.848C244.531 135.564 245.426 133.415 247.036 131.802C248.654 130.187 250.803 129.297 253.085 129.297C255.37 129.297 257.518 130.187 259.134 131.802C260.744 133.415 261.639 135.564 261.639 137.848C261.639 140.133 260.744 142.281 259.134 143.894C257.518 145.512 255.37 146.399 253.085 146.399C250.803 146.399 248.654 145.512 247.036 143.894Z" fill="#373A52"/>
<path d="M231.214 159.537C229.729 158.05 228.906 156.071 228.906 153.968C228.906 151.866 229.729 149.886 231.214 148.399C232.706 146.912 234.678 146.094 236.786 146.094C238.886 146.094 240.865 146.912 242.352 148.399C243.845 149.886 244.658 151.866 244.658 153.968C244.658 156.071 243.845 158.05 242.352 159.537C240.865 161.022 238.886 161.842 236.786 161.842C234.678 161.842 232.706 161.022 231.214 159.537Z" fill="#373A52"/>
<path d="M216.147 175.05C214.804 173.703 214.062 171.914 214.062 170.014C214.062 168.111 214.804 166.321 216.145 164.975C217.486 163.632 219.28 162.891 221.178 162.891C223.086 162.891 224.875 163.632 226.219 164.975C227.568 166.321 228.304 168.111 228.304 170.014C228.304 171.914 227.568 173.703 226.219 175.05C224.875 176.396 223.086 177.137 221.183 177.137C219.28 177.137 217.486 176.396 216.147 175.05Z" fill="#373A52"/>
<path d="M200.271 190.367C199.089 189.185 198.438 187.616 198.438 185.944C198.438 184.272 199.089 182.7 200.271 181.518C201.45 180.336 203.025 179.685 204.689 179.688C206.366 179.685 207.938 180.336 209.12 181.518C210.299 182.7 210.948 184.272 210.948 185.944C210.948 187.616 210.299 189.185 209.12 190.367C207.938 191.549 206.366 192.2 204.689 192.2C203.025 192.2 201.45 191.549 200.271 190.367Z" fill="#373A52"/>
<path d="M185.14 205.492C184.142 204.497 183.594 203.169 183.594 201.759C183.594 200.351 184.142 199.025 185.14 198.031C186.14 197.031 187.463 196.484 188.876 196.484C190.286 196.484 191.607 197.031 192.607 198.031C193.601 199.025 194.153 200.351 194.153 201.759C194.153 203.169 193.601 204.497 192.607 205.492C191.607 206.49 190.286 207.036 188.876 207.036C187.463 207.036 186.14 206.49 185.14 205.492Z" fill="#373A52"/>
<path d="M169.976 220.815C169.183 220.026 168.75 218.974 168.75 217.859C168.75 216.736 169.183 215.687 169.976 214.898C170.765 214.105 171.817 213.672 172.937 213.672C174.053 213.672 175.104 214.105 175.894 214.898C176.683 215.687 177.119 216.736 177.119 217.859C177.119 218.974 176.683 220.026 175.894 220.815C175.104 221.61 174.053 222.041 172.937 222.041C171.817 222.041 170.765 221.61 169.976 220.815Z" fill="#373A52"/>
<path d="M154.778 235.952C154.219 235.39 153.911 234.639 153.906 233.841C153.906 233.044 154.219 232.295 154.778 231.731C155.342 231.167 156.088 230.859 156.886 230.859C157.683 230.859 158.432 231.167 158.993 231.731C159.56 232.295 159.868 233.044 159.868 233.841C159.868 234.639 159.56 235.39 158.993 235.952C158.432 236.516 157.683 236.823 156.886 236.823C156.088 236.823 155.342 236.516 154.778 235.952Z" fill="#373A52"/>
<path d="M139.547 250.89C139.234 250.578 139.062 250.157 139.062 249.711C139.062 249.267 139.234 248.849 139.547 248.537C139.86 248.221 140.28 248.047 140.724 248.047C141.17 248.047 141.586 248.221 141.904 248.537C142.216 248.849 142.391 249.267 142.391 249.711C142.391 250.157 142.216 250.578 141.904 250.89C141.586 251.203 141.17 251.375 140.724 251.375C140.28 251.375 139.86 251.203 139.547 250.89Z" fill="#373A52"/>
<path d="M125.067 266.028L125 265.863L125.067 265.694L125.236 265.625L125.397 265.697L125.464 265.863L125.397 266.028L125.236 266.092L125.067 266.028Z" fill="#373A52"/>
<path d="M309.414 113.769C307.373 111.728 306.25 109.013 306.25 106.125C306.25 103.236 307.373 100.523 309.414 98.4792C311.458 96.4381 314.168 95.3125 317.058 95.3125C319.947 95.3125 322.658 96.4381 324.706 98.4792C326.745 100.523 327.871 103.236 327.871 106.125C327.871 109.013 326.745 111.728 324.706 113.769C322.658 115.81 319.947 116.936 317.058 116.936C314.168 116.936 311.458 115.81 309.414 113.769Z" fill="#373A52"/>
<path d="M293.702 129.272C291.717 127.287 290.625 124.646 290.625 121.838C290.625 119.033 291.717 116.392 293.702 114.408C295.684 112.423 298.322 111.328 301.13 111.328C303.938 111.328 306.579 112.423 308.563 114.408C310.546 116.392 311.64 119.033 311.64 121.838C311.64 124.646 310.546 127.287 308.563 129.272C306.579 131.256 303.938 132.351 301.13 132.351C298.322 132.351 295.684 131.256 293.702 129.272Z" fill="#373A52"/>
<path d="M277.967 145.034C276.049 143.119 275 140.575 275 137.868C275 135.16 276.049 132.616 277.967 130.704C279.882 128.788 282.421 127.734 285.133 127.734C287.838 127.734 290.385 128.788 292.297 130.704C294.21 132.616 295.264 135.16 295.264 137.868C295.264 140.575 294.21 143.119 292.297 145.034C290.385 146.947 287.838 148.001 285.133 148.001C282.421 148.001 279.882 146.947 277.967 145.034Z" fill="#373A52"/>
<path d="M262.206 160.669C260.383 158.838 259.375 156.407 259.375 153.823C259.375 151.236 260.378 148.805 262.206 146.977C264.037 145.148 266.47 144.141 269.052 144.141C271.642 144.141 274.07 145.148 275.898 146.977C277.726 148.805 278.737 151.236 278.737 153.823C278.737 156.407 277.726 158.838 275.898 160.669C274.075 162.497 271.642 163.505 269.052 163.505C266.47 163.505 264.037 162.497 262.206 160.669Z" fill="#373A52"/>
<path d="M246.43 176.568C244.699 174.838 243.75 172.538 243.75 170.094C243.75 167.648 244.699 165.348 246.43 163.62C248.158 161.891 250.46 160.938 252.901 160.938C255.347 160.938 257.647 161.891 259.378 163.62C261.101 165.35 262.058 167.648 262.058 170.094C262.058 172.538 261.101 174.838 259.378 176.568C257.647 178.296 255.347 179.248 252.901 179.248C250.46 179.248 248.158 178.296 246.43 176.568Z" fill="#373A52"/>
<path d="M230.625 191.944C229.012 190.326 228.125 188.182 228.125 185.898C228.125 183.613 229.012 181.464 230.625 179.849C232.243 178.233 234.392 177.344 236.676 177.344C238.958 177.344 241.104 178.233 242.722 179.849C244.338 181.464 245.23 183.613 245.23 185.898C245.23 188.182 244.338 190.326 242.722 191.944C241.104 193.559 238.958 194.449 236.676 194.449C234.392 194.449 232.243 193.559 230.625 191.944Z" fill="#373A52"/>
<path d="M215.586 207.584C214.099 206.097 213.281 204.12 213.281 202.015C213.281 199.915 214.099 197.935 215.586 196.448C217.074 194.964 219.05 194.141 221.153 194.141C223.263 194.141 225.24 194.964 226.725 196.448C228.212 197.935 229.033 199.915 229.033 202.015C229.033 204.12 228.212 206.097 226.725 207.584C225.24 209.071 223.263 209.892 221.158 209.892C219.05 209.892 217.074 209.071 215.586 207.584Z" fill="#373A52"/>
<path d="M199.741 223.096C198.397 221.748 197.656 219.958 197.656 218.058C197.656 216.155 198.397 214.368 199.741 213.022C201.087 211.676 202.874 210.938 204.774 210.938C206.682 210.938 208.464 211.676 209.813 213.022C211.159 214.368 211.9 216.155 211.9 218.058C211.9 219.958 211.159 221.748 209.813 223.096C208.464 224.438 206.682 225.181 204.774 225.181C202.874 225.181 201.087 224.438 199.741 223.096Z" fill="#373A52"/>
<path d="M184.643 238.411C183.461 237.229 182.812 235.663 182.812 233.988C182.812 232.319 183.461 230.75 184.643 229.568C185.825 228.383 187.395 227.734 189.072 227.734C190.741 227.734 192.31 228.383 193.489 229.568C194.672 230.75 195.323 232.319 195.323 233.988C195.323 235.663 194.672 237.229 193.489 238.411C192.31 239.591 190.741 240.245 189.072 240.245C187.395 240.245 185.825 239.591 184.643 238.411Z" fill="#373A52"/>
<path d="M169.515 253.539C168.517 252.544 167.969 251.218 167.969 249.806C167.969 248.4 168.517 247.072 169.515 246.075C170.51 245.08 171.838 244.531 173.248 244.531C174.653 244.531 175.982 245.08 176.976 246.075C177.974 247.072 178.525 248.4 178.525 249.806C178.525 251.218 177.974 252.544 176.976 253.539C175.982 254.539 174.653 255.085 173.248 255.085C171.838 255.085 170.51 254.539 169.515 253.539Z" fill="#373A52"/>
<path d="M154.348 268.865C153.556 268.075 153.125 267.024 153.125 265.909C153.125 264.788 153.556 263.737 154.348 262.944C155.14 262.155 156.192 261.719 157.307 261.719C158.428 261.719 159.479 262.155 160.271 262.944C161.058 263.737 161.497 264.788 161.497 265.909C161.497 267.024 161.058 268.075 160.271 268.865C159.479 269.655 158.428 270.091 157.307 270.091C156.192 270.091 155.14 269.655 154.348 268.865Z" fill="#373A52"/>
<path d="M139.156 283.999C138.592 283.437 138.281 282.686 138.281 281.888C138.281 281.093 138.592 280.347 139.156 279.781C139.717 279.216 140.471 278.906 141.263 278.906C142.061 278.906 142.809 279.216 143.376 279.781C143.938 280.347 144.248 281.093 144.248 281.888C144.248 282.686 143.938 283.437 143.376 283.999C142.809 284.56 142.061 284.873 141.263 284.873C140.471 284.873 139.717 284.56 139.156 283.999Z" fill="#373A52"/>
<path d="M123.927 298.932C123.612 298.619 123.438 298.199 123.438 297.755C123.438 297.314 123.612 296.894 123.927 296.578C124.24 296.263 124.655 296.094 125.104 296.094C125.545 296.094 125.966 296.263 126.279 296.578C126.594 296.894 126.763 297.314 126.763 297.755C126.763 298.199 126.594 298.619 126.279 298.932C125.966 299.248 125.545 299.419 125.104 299.419C124.655 299.419 124.24 299.248 123.927 298.932Z" fill="#373A52"/>
<path d="M108.658 314.069L108.594 313.905L108.658 313.739L108.822 313.672L108.986 313.739L109.058 313.905L108.986 314.069L108.822 314.139L108.658 314.069Z" fill="#373A52"/>
<path d="M311.46 207.073C310.119 205.735 309.375 203.942 309.375 202.04C309.375 200.14 310.119 198.35 311.46 197.004C312.803 195.658 314.598 194.922 316.496 194.922C318.398 194.922 320.188 195.658 321.531 197.004C322.878 198.35 323.616 200.14 323.616 202.04C323.616 203.942 322.878 205.735 321.531 207.073C320.188 208.422 318.398 209.163 316.496 209.163C314.598 209.163 312.803 208.422 311.46 207.073Z" fill="#373A52"/>
<path d="M296.365 222.401C295.185 221.219 294.531 219.647 294.531 217.978C294.531 216.306 295.185 214.732 296.365 213.55C297.547 212.367 299.118 211.719 300.785 211.719C302.462 211.719 304.026 212.367 305.208 213.55C306.39 214.732 307.042 216.306 307.042 217.978C307.042 219.647 306.39 221.219 305.208 222.401C304.026 223.583 302.462 224.232 300.785 224.232C299.118 224.232 297.547 223.583 296.365 222.401Z" fill="#373A52"/>
<path d="M281.234 237.526C280.236 236.531 279.688 235.208 279.688 233.795C279.688 232.385 280.236 231.062 281.234 230.064C282.231 229.069 283.557 228.516 284.97 228.516C286.375 228.516 287.7 229.069 288.7 230.064C289.695 231.062 290.244 232.385 290.244 233.795C290.244 235.208 289.695 236.531 288.7 237.526C287.7 238.528 286.375 239.075 284.97 239.075C283.557 239.075 282.231 238.528 281.234 237.526Z" fill="#373A52"/>
<path d="M266.067 252.847C265.277 252.054 264.844 251.003 264.844 249.883C264.844 248.767 265.277 247.718 266.067 246.926C266.859 246.134 267.908 245.703 269.023 245.703C270.144 245.703 271.195 246.136 271.987 246.926C272.775 247.718 273.21 248.767 273.21 249.883C273.21 251.003 272.775 252.054 271.987 252.847C271.195 253.634 270.144 254.072 269.028 254.072C267.908 254.072 266.859 253.634 266.067 252.847Z" fill="#373A52"/>
<path d="M250.877 267.978C250.308 267.414 250 266.665 250 265.873C250 265.075 250.308 264.327 250.877 263.76C251.441 263.198 252.187 262.891 252.982 262.891C253.779 262.891 254.531 263.198 255.09 263.76C255.656 264.327 255.964 265.075 255.964 265.873C255.964 266.67 255.656 267.414 255.09 267.978C254.531 268.539 253.779 268.847 252.982 268.847C252.187 268.847 251.441 268.539 250.877 267.978Z" fill="#373A52"/>
<path d="M235.643 282.917C235.331 282.601 235.156 282.186 235.156 281.74C235.156 281.296 235.331 280.876 235.643 280.563C235.956 280.25 236.374 280.078 236.82 280.078C237.266 280.078 237.682 280.25 237.997 280.563C238.313 280.876 238.484 281.296 238.484 281.74C238.484 282.186 238.313 282.601 237.997 282.917C237.682 283.232 237.266 283.406 236.82 283.406C236.374 283.406 235.956 283.232 235.643 282.917Z" fill="#373A52"/>
<path d="M221.158 298.049L221.094 297.887L221.158 297.723L221.322 297.656L221.491 297.723L221.558 297.887L221.491 298.049L221.327 298.118L221.158 298.049Z" fill="#373A52"/>
<path d="M311.68 239.61C310.196 238.126 309.375 236.154 309.375 234.046C309.375 231.941 310.196 229.969 311.68 228.48C313.167 226.99 315.147 226.172 317.247 226.172C319.352 226.172 321.334 226.99 322.816 228.48C324.303 229.969 325.124 231.941 325.124 234.046C325.124 236.154 324.303 238.126 322.816 239.61C321.334 241.103 319.352 241.921 317.247 241.921C315.147 241.921 313.167 241.103 311.68 239.61Z" fill="#373A52"/>
<path d="M295.837 254.74C294.491 253.396 293.75 251.606 293.75 249.701C293.75 247.799 294.491 246.011 295.837 244.665C297.183 243.324 298.968 242.578 300.871 242.578C302.778 242.578 304.563 243.324 305.909 244.665C307.255 246.011 307.996 247.804 307.996 249.701C307.996 251.606 307.255 253.396 305.909 254.74C304.563 256.083 302.778 256.824 300.871 256.824C298.968 256.824 297.183 256.083 295.837 254.74Z" fill="#373A52"/>
<path d="M280.734 270.443C279.552 269.261 278.906 267.696 278.906 266.025C278.906 264.35 279.552 262.781 280.734 261.599C281.916 260.417 283.488 259.766 285.163 259.766C286.832 259.766 288.401 260.417 289.583 261.599C290.765 262.781 291.414 264.35 291.414 266.025C291.414 267.696 290.765 269.261 289.583 270.443C288.401 271.625 286.832 272.276 285.163 272.276C283.488 272.276 281.916 271.625 280.734 270.443Z" fill="#373A52"/>
<path d="M264.83 285.573C263.832 284.575 263.281 283.252 263.281 281.839C263.281 280.429 263.832 279.106 264.83 278.109C265.822 277.109 267.148 276.562 268.556 276.562C269.966 276.562 271.294 277.109 272.289 278.109C273.286 279.106 273.835 280.429 273.835 281.839C273.835 283.252 273.286 284.575 272.289 285.573C271.294 286.568 269.966 287.121 268.561 287.121C267.148 287.121 265.822 286.568 264.83 285.573Z" fill="#373A52"/>
<path d="M249.666 300.896C248.873 300.101 248.438 299.053 248.438 297.932C248.438 296.814 248.873 295.765 249.666 294.971C250.458 294.181 251.509 293.75 252.625 293.75C253.748 293.75 254.796 294.181 255.584 294.971C256.376 295.765 256.812 296.814 256.812 297.932C256.812 299.053 256.376 300.101 255.584 300.896C254.796 301.683 253.748 302.119 252.625 302.119C251.509 302.119 250.458 301.683 249.666 300.896Z" fill="#373A52"/>
<path d="M235.247 316.025C234.685 315.463 234.375 314.712 234.375 313.917C234.375 313.12 234.685 312.368 235.247 311.809C235.808 311.248 236.557 310.938 237.357 310.938C238.152 310.938 238.901 311.248 239.462 311.809C240.029 312.368 240.339 313.12 240.339 313.917C240.339 314.712 240.029 315.463 239.462 316.025C238.901 316.586 238.152 316.896 237.357 316.896C236.557 316.896 235.808 316.586 235.247 316.025Z" fill="#373A52"/>
<path d="M220.018 330.963C219.706 330.651 219.531 330.235 219.531 329.789C219.531 329.343 219.706 328.925 220.018 328.612C220.334 328.297 220.752 328.125 221.19 328.125C221.639 328.125 222.054 328.297 222.367 328.612C222.683 328.925 222.857 329.343 222.857 329.789C222.857 330.235 222.683 330.651 222.367 330.963C222.054 331.281 221.639 331.456 221.195 331.456C220.752 331.456 220.334 331.281 220.018 330.963Z" fill="#373A52"/>
<path d="M204.759 346.095L204.688 345.933L204.759 345.767L204.921 345.703L205.085 345.767L205.159 345.933L205.085 346.095L204.921 346.167L204.759 346.095Z" fill="#373A52"/>
<path d="M308.7 273.526C306.61 271.444 305.469 268.667 305.469 265.726C305.469 262.777 306.61 260.005 308.7 257.918C310.787 255.836 313.556 254.688 316.502 254.688C319.451 254.688 322.22 255.836 324.31 257.918C326.389 260.005 327.543 262.777 327.543 265.726C327.543 268.667 326.389 271.444 324.31 273.526C322.22 275.611 319.451 276.762 316.502 276.762C313.556 276.762 310.787 275.611 308.7 273.526Z" fill="#373A52"/>
<path d="M293.01 289.55C290.967 287.512 289.844 284.794 289.844 281.907C289.844 279.019 290.967 276.307 293.01 274.266C295.054 272.219 297.767 271.094 300.654 271.094C303.544 271.094 306.259 272.219 308.303 274.266C310.344 276.307 311.467 279.019 311.467 281.907C311.467 284.794 310.344 287.512 308.303 289.55C306.259 291.596 303.544 292.719 300.654 292.719C297.767 292.719 295.054 291.596 293.01 289.55Z" fill="#373A52"/>
<path d="M277.301 305.048C275.311 303.066 274.219 300.425 274.219 297.617C274.219 294.812 275.311 292.173 277.301 290.184C279.283 288.202 281.924 287.109 284.734 287.109C287.537 287.109 290.178 288.202 292.165 290.184C294.149 292.173 295.242 294.812 295.242 297.617C295.242 300.425 294.149 303.066 292.165 305.048C290.178 307.038 287.537 308.127 284.734 308.127C281.924 308.127 279.283 307.038 277.301 305.048Z" fill="#373A52"/>
<path d="M261.563 320.818C259.65 318.903 258.594 316.357 258.594 313.649C258.594 310.941 259.65 308.398 261.563 306.48C263.476 304.567 266.025 303.516 268.732 303.516C271.437 303.516 273.978 304.567 275.896 306.48C277.812 308.398 278.866 310.941 278.866 313.649C278.866 316.357 277.812 318.903 275.896 320.818C273.978 322.728 271.437 323.782 268.732 323.782C266.025 323.782 263.481 322.728 261.563 320.818Z" fill="#373A52"/>
<path d="M245.805 336.45C243.976 334.622 242.969 332.186 242.969 329.604C242.969 327.017 243.976 324.586 245.805 322.758C247.633 320.932 250.069 319.922 252.651 319.922C255.238 319.922 257.669 320.932 259.497 322.758C261.325 324.586 262.335 327.017 262.335 329.604C262.335 332.186 261.325 334.622 259.497 336.45C257.669 338.278 255.238 339.286 252.651 339.286C250.069 339.286 247.633 338.278 245.805 336.45Z" fill="#373A52"/>
<path d="M230.81 352.347C229.081 350.616 228.125 348.319 228.125 345.873C228.125 343.429 229.081 341.126 230.81 339.398C232.54 337.67 234.838 336.719 237.287 336.719C239.73 336.719 242.03 337.67 243.756 339.398C245.487 341.126 246.438 343.429 246.438 345.873C246.438 348.319 245.487 350.616 243.756 352.347C242.03 354.078 239.73 355.026 237.287 355.026C234.838 355.026 232.54 354.078 230.81 352.347Z" fill="#373A52"/>
<path d="M215.008 367.725C213.387 366.112 212.5 363.963 212.5 361.679C212.5 359.392 213.387 357.246 215.008 355.633C216.621 354.015 218.767 353.12 221.054 353.125C223.338 353.125 225.487 354.015 227.1 355.633C228.718 357.246 229.603 359.392 229.603 361.679C229.603 363.963 228.718 366.112 227.1 367.725C225.487 369.343 223.338 370.228 221.054 370.228C218.767 370.228 216.621 369.343 215.008 367.725Z" fill="#373A52"/>
<path d="M199.18 383.368C197.693 381.878 196.875 379.901 196.875 377.801C196.875 375.694 197.693 373.717 199.18 372.23C200.667 370.742 202.647 369.922 204.742 369.922C206.849 369.922 208.829 370.742 210.316 372.23C211.803 373.722 212.621 375.694 212.621 377.801C212.621 379.901 211.803 381.878 210.316 383.368C208.829 384.86 206.849 385.673 204.742 385.673C202.647 385.673 200.667 384.86 199.18 383.368Z" fill="#373A52"/>
<path d="M184.118 398.875C182.77 397.532 182.031 395.742 182.031 393.839C182.031 391.937 182.77 390.15 184.118 388.803C185.462 387.457 187.249 386.719 189.154 386.719C191.057 386.719 192.842 387.457 194.188 388.803C195.536 390.15 196.275 391.942 196.275 393.839C196.275 395.742 195.536 397.532 194.188 398.875C192.842 400.221 191.057 400.96 189.154 400.96C187.249 400.96 185.462 400.221 184.118 398.875Z" fill="#373A52"/>
<path d="M310.489 304.3C308.764 302.569 307.812 300.274 307.812 297.826C307.812 295.382 308.764 293.08 310.489 291.354C312.22 289.623 314.523 288.672 316.964 288.672C319.413 288.672 321.707 289.623 323.438 291.354C325.169 293.085 326.12 295.382 326.12 297.826C326.12 300.274 325.169 302.569 323.438 304.3C321.707 306.031 319.413 306.982 316.964 306.982C314.523 306.982 312.22 306.031 310.489 304.3Z" fill="#373A52"/>
<path d="M294.69 319.676C293.077 318.063 292.188 315.917 292.188 313.629C292.188 311.342 293.077 309.196 294.69 307.583C296.308 305.965 298.459 305.078 300.739 305.078C303.023 305.078 305.17 305.965 306.79 307.583C308.403 309.196 309.293 311.342 309.293 313.629C309.293 315.917 308.403 318.063 306.79 319.676C305.17 321.294 303.023 322.183 300.739 322.183C298.459 322.183 296.308 321.294 294.69 319.676Z" fill="#373A52"/>
<path d="M279.649 335.316C278.164 333.831 277.344 331.854 277.344 329.752C277.344 327.644 278.164 325.672 279.649 324.183C281.136 322.695 283.116 321.875 285.223 321.875C287.323 321.875 289.303 322.695 290.787 324.183C292.28 325.672 293.092 327.644 293.092 329.752C293.092 331.854 292.28 333.831 290.787 335.316C289.303 336.808 287.323 337.624 285.223 337.624C283.116 337.624 281.136 336.808 279.649 335.316Z" fill="#373A52"/>
<path d="M263.806 350.831C262.46 349.482 261.719 347.697 261.719 345.795C261.719 343.89 262.46 342.103 263.801 340.756C265.147 339.413 266.937 338.672 268.837 338.672C270.742 338.672 272.532 339.413 273.878 340.756C275.219 342.103 275.96 343.895 275.96 345.795C275.96 347.697 275.219 349.482 273.878 350.831C272.532 352.174 270.742 352.915 268.842 352.915C266.937 352.915 265.147 352.174 263.806 350.831Z" fill="#373A52"/>
<path d="M248.711 366.148C247.529 364.966 246.875 363.397 246.875 361.72C246.875 360.051 247.529 358.482 248.711 357.302C249.893 356.117 251.462 355.469 253.131 355.469C254.806 355.469 256.378 356.117 257.56 357.302C258.739 358.482 259.388 360.051 259.388 361.72C259.388 363.397 258.739 364.966 257.56 366.148C256.378 367.328 254.806 367.982 253.131 367.982C251.462 367.982 249.893 367.328 248.711 366.148Z" fill="#373A52"/>
<path d="M233.58 381.281C232.58 380.281 232.031 378.955 232.031 377.548C232.031 376.137 232.58 374.807 233.58 373.814C234.575 372.817 235.9 372.266 237.311 372.266C238.724 372.266 240.041 372.817 241.044 373.814C242.036 374.807 242.585 376.137 242.585 377.548C242.585 378.955 242.036 380.281 241.044 381.281C240.041 382.271 238.724 382.822 237.311 382.822C235.9 382.822 234.575 382.271 233.58 381.281Z" fill="#373A52"/>
<path d="M218.411 396.597C217.618 395.81 217.188 394.758 217.188 393.638C217.188 392.522 217.618 391.471 218.411 390.679C219.2 389.886 220.254 389.453 221.372 389.453C222.49 389.453 223.541 389.886 224.334 390.679C225.121 391.471 225.557 392.522 225.557 393.638C225.557 394.758 225.121 395.81 224.334 396.597C223.541 397.389 222.49 397.825 221.372 397.825C220.254 397.825 219.2 397.389 218.411 396.597Z" fill="#373A52"/>
<path d="M312.773 334.114C311.589 332.935 310.938 331.366 310.938 329.694C310.938 328.025 311.589 326.45 312.773 325.268C313.953 324.089 315.522 323.438 317.194 323.438C318.866 323.438 320.438 324.089 321.62 325.273C322.799 326.45 323.453 328.025 323.453 329.694C323.453 331.366 322.799 332.935 321.62 334.114C320.438 335.296 318.866 335.948 317.194 335.948C315.522 335.948 313.953 335.296 312.773 334.114Z" fill="#373A52"/>
<path d="M296.854 349.633C295.861 348.638 295.312 347.312 295.312 345.902C295.312 344.492 295.861 343.163 296.854 342.169C297.851 341.174 299.179 340.625 300.584 340.625C301.997 340.625 303.323 341.174 304.318 342.169C305.318 343.163 305.866 344.492 305.866 345.902C305.866 347.312 305.318 348.638 304.318 349.633C303.323 350.633 301.997 351.179 300.584 351.179C299.179 351.179 297.851 350.633 296.854 349.633Z" fill="#373A52"/>
<path d="M281.699 364.571C280.905 363.778 280.469 362.727 280.469 361.604C280.469 360.491 280.905 359.44 281.694 358.648C282.484 357.858 283.535 357.422 284.659 357.422C285.774 357.422 286.825 357.858 287.615 358.648C288.41 359.44 288.846 360.491 288.846 361.604C288.846 362.727 288.41 363.778 287.615 364.571C286.825 365.355 285.774 365.794 284.659 365.794C283.535 365.794 282.484 365.355 281.699 364.571Z" fill="#373A52"/>
<path d="M266.497 379.697C265.938 379.132 265.625 378.386 265.625 377.591C265.625 376.794 265.938 376.043 266.497 375.479C267.058 374.92 267.81 374.609 268.607 374.609C269.399 374.609 270.148 374.92 270.715 375.479C271.276 376.043 271.586 376.794 271.586 377.591C271.586 378.386 271.276 379.132 270.715 379.697C270.148 380.263 269.399 380.573 268.607 380.573C267.81 380.573 267.058 380.263 266.497 379.697Z" fill="#373A52"/>
<path d="M252.05 395.026C251.734 394.713 251.562 394.298 251.562 393.852C251.562 393.405 251.734 392.987 252.05 392.675C252.362 392.359 252.78 392.188 253.227 392.188C253.673 392.188 254.091 392.359 254.404 392.675C254.719 392.987 254.893 393.405 254.893 393.852C254.893 394.298 254.719 394.713 254.404 395.026C254.091 395.344 253.673 395.516 253.227 395.516C252.78 395.516 252.362 395.344 252.05 395.026Z" fill="#373A52"/>
<path d="M310.489 368.363C308.764 366.632 307.812 364.334 307.812 361.891C307.812 359.445 308.764 357.147 310.489 355.416C312.22 353.686 314.523 352.734 316.964 352.734C319.413 352.734 321.707 353.686 323.438 355.416C325.169 357.147 326.12 359.445 326.12 361.891C326.12 364.334 325.169 366.632 323.438 368.363C321.707 370.091 319.413 371.047 316.964 371.047C314.523 371.047 312.22 370.091 310.489 368.363Z" fill="#373A52"/>
<path d="M294.69 383.741C293.077 382.12 292.188 379.974 292.188 377.692C292.188 375.407 293.077 373.259 294.69 371.641C296.308 370.028 298.459 369.141 300.739 369.141C303.023 369.141 305.17 370.028 306.79 371.641C308.403 373.259 309.293 375.407 309.293 377.692C309.293 379.974 308.403 382.12 306.79 383.741C305.17 385.353 303.023 386.243 300.739 386.243C298.459 386.243 296.308 385.353 294.69 383.741Z" fill="#373A52"/>
<path d="M279.649 399.381C278.164 397.897 277.344 395.917 277.344 393.812C277.344 391.712 278.164 389.73 279.649 388.245C281.136 386.755 283.116 385.938 285.223 385.938C287.323 385.938 289.303 386.761 290.787 388.245C292.28 389.73 293.092 391.712 293.092 393.812C293.092 395.917 292.28 397.897 290.787 399.381C289.303 400.868 287.323 401.686 285.223 401.686C283.116 401.686 281.136 400.868 279.649 399.381Z" fill="#373A52"/>
<path d="M311.46 143.018C310.119 141.675 309.375 139.885 309.375 137.982C309.375 136.08 310.119 134.29 311.46 132.947C312.803 131.6 314.598 130.859 316.496 130.859C318.398 130.859 320.188 131.6 321.531 132.947C322.878 134.29 323.616 136.08 323.616 137.982C323.616 139.885 322.878 141.675 321.531 143.018C320.188 144.365 318.398 145.106 316.496 145.106C314.598 145.106 312.803 144.365 311.46 143.018Z" fill="#373A52"/>
<path d="M296.365 158.336C295.185 157.154 294.531 155.584 294.531 153.913C294.531 152.241 295.185 150.672 296.365 149.49C297.547 148.308 299.118 147.656 300.785 147.656C302.457 147.656 304.026 148.308 305.208 149.49C306.39 150.672 307.042 152.241 307.042 153.913C307.042 155.584 306.39 157.154 305.208 158.336C304.026 159.518 302.457 160.169 300.785 160.169C299.118 160.169 297.547 159.518 296.365 158.336Z" fill="#373A52"/>
<path d="M281.234 173.854C280.236 172.859 279.688 171.533 279.688 170.123C279.688 168.713 280.236 167.387 281.234 166.39C282.231 165.395 283.557 164.844 284.97 164.844C286.375 164.844 287.7 165.395 288.7 166.39C289.695 167.387 290.244 168.713 290.244 170.123C290.244 171.533 289.695 172.859 288.7 173.854C287.7 174.851 286.375 175.4 284.97 175.4C283.557 175.4 282.231 174.851 281.234 173.854Z" fill="#373A52"/>
<path d="M266.067 188.787C265.277 187.997 264.844 186.943 264.844 185.828C264.844 184.71 265.277 183.656 266.067 182.866C266.859 182.077 267.908 181.641 269.023 181.641C270.144 181.641 271.195 182.077 271.987 182.866C272.775 183.656 273.21 184.71 273.21 185.828C273.21 186.943 272.775 187.997 271.987 188.787C271.195 189.579 270.144 190.012 269.023 190.012C267.908 190.012 266.859 189.579 266.067 188.787Z" fill="#373A52"/>
<path d="M250.877 203.918C250.308 203.356 250 202.605 250 201.808C250 201.01 250.308 200.267 250.877 199.702C251.441 199.141 252.187 198.828 252.982 198.828C253.779 198.828 254.531 199.141 255.09 199.702C255.656 200.267 255.964 201.015 255.964 201.808C255.964 202.605 255.656 203.356 255.09 203.918C254.531 204.482 253.779 204.79 252.982 204.79C252.187 204.79 251.441 204.482 250.877 203.918Z" fill="#373A52"/>
<path d="M235.643 219.245C235.331 218.927 235.156 218.509 235.156 218.068C235.156 217.622 235.331 217.204 235.643 216.891C235.956 216.578 236.374 216.406 236.82 216.406C237.266 216.406 237.682 216.578 237.997 216.891C238.313 217.204 238.484 217.622 238.484 218.068C238.484 218.509 238.313 218.927 237.997 219.245C237.682 219.56 237.266 219.732 236.82 219.732C236.374 219.732 235.956 219.56 235.643 219.245Z" fill="#373A52"/>
<path d="M221.158 233.991L221.094 233.827L221.158 233.663L221.322 233.594L221.491 233.663L221.558 233.827L221.491 233.991L221.322 234.06L221.158 233.991Z" fill="#373A52"/>
<path d="M313.723 172.774C312.936 171.979 312.5 170.93 312.5 169.812C312.5 168.694 312.936 167.643 313.723 166.851C314.515 166.061 315.564 165.625 316.682 165.625C317.803 165.625 318.854 166.061 319.646 166.851C320.433 167.643 320.872 168.694 320.872 169.812C320.872 170.93 320.433 171.979 319.646 172.774C318.854 173.563 317.803 173.999 316.682 173.999C315.564 173.999 314.515 173.563 313.723 172.774Z" fill="#373A52"/>
<path d="M298.536 187.902C297.966 187.341 297.656 186.589 297.656 185.792C297.656 184.997 297.966 184.248 298.536 183.684C299.097 183.123 299.843 182.812 300.638 182.812C301.436 182.812 302.187 183.123 302.751 183.687C303.31 184.248 303.623 184.997 303.623 185.795C303.623 186.589 303.31 187.341 302.751 187.902C302.187 188.466 301.436 188.774 300.638 188.774C299.843 188.774 299.097 188.466 298.536 187.902Z" fill="#373A52"/>
<path d="M284.081 203.227C283.766 202.914 283.594 202.493 283.594 202.05C283.594 201.609 283.766 201.188 284.081 200.878C284.394 200.56 284.809 200.391 285.258 200.391C285.704 200.391 286.119 200.56 286.432 200.878C286.745 201.193 286.922 201.609 286.922 202.05C286.922 202.493 286.745 202.914 286.432 203.227C286.119 203.539 285.704 203.716 285.258 203.716C284.809 203.716 284.394 203.539 284.081 203.227Z" fill="#373A52"/>
<path d="M268.814 217.976L268.75 217.811L268.814 217.647L268.978 217.578L269.147 217.647L269.212 217.811L269.147 217.976L268.983 218.047L268.814 217.976Z" fill="#373A52"/>
<path d="M310 17.2974C308.088 15.3846 307.031 12.8385 307.031 10.1333C307.031 7.42565 308.088 4.87949 310 2.96923C311.913 1.05385 314.459 0 317.165 0C319.875 0 322.416 1.05385 324.334 2.96923C326.247 4.87949 327.303 7.42565 327.303 10.1333C327.303 12.8385 326.247 15.3846 324.334 17.2974C322.416 19.2103 319.875 20.2667 317.165 20.2667C314.459 20.2667 311.913 19.2103 310 17.2974Z" fill="#373A52"/>
<path d="M294.245 32.937C292.416 31.1063 291.406 28.6729 291.406 26.0883C291.406 23.5011 292.416 21.0729 294.245 19.2421C296.073 17.4139 298.506 16.4062 301.088 16.4062C303.678 16.4062 306.106 17.4139 307.935 19.2421C309.765 21.0729 310.773 23.5011 310.773 26.0883C310.773 28.6729 309.765 31.1063 307.935 32.937C306.106 34.7652 303.678 35.7704 301.088 35.7704C298.506 35.7704 296.073 34.7652 294.245 32.937Z" fill="#373A52"/>
<path d="M278.466 48.4407C276.735 46.7125 275.781 44.4125 275.781 41.9663C275.781 39.5202 276.735 37.2228 278.466 35.492C280.194 33.7638 282.492 32.8125 284.94 32.8125C287.381 32.8125 289.684 33.7638 291.407 35.492C293.138 37.2228 294.092 39.5202 294.092 41.9663C294.092 44.4125 293.138 46.7125 291.407 48.4407C289.684 50.1715 287.381 51.1228 284.94 51.1228C282.492 51.1228 280.194 50.1715 278.466 48.4407Z" fill="#373A52"/>
<path d="M262.664 64.2094C261.046 62.594 260.156 60.4453 260.156 58.1607C260.156 55.8761 261.046 53.7273 262.664 52.1145C264.277 50.4966 266.425 49.6094 268.708 49.6094C270.997 49.6094 273.143 50.4991 274.759 52.1145C276.377 53.7273 277.261 55.8761 277.261 58.1607C277.261 60.4453 276.377 62.594 274.759 64.2094C273.143 65.8248 270.997 66.7145 268.708 66.7145C266.425 66.7145 264.277 65.8248 262.664 64.2094Z" fill="#373A52"/>
<path d="M247.618 79.4618C246.13 77.972 245.312 75.9951 245.312 73.8925C245.312 71.79 246.13 69.8105 247.618 68.3233C249.107 66.8361 251.087 66.0156 253.187 66.0156C255.289 66.0156 257.266 66.8361 258.756 68.3233C260.243 69.8105 261.064 71.79 261.064 73.8925C261.064 75.9951 260.243 77.972 258.756 79.4618C257.266 80.9464 255.289 81.7669 253.187 81.7669C251.087 81.7669 249.107 80.9464 247.618 79.4618Z" fill="#373A52"/>
<path d="M231.775 94.974C230.429 93.6279 229.688 91.8381 229.688 89.9381C229.688 88.0356 230.429 86.2458 231.775 84.8997C233.121 83.5535 234.908 82.8125 236.811 82.8125C238.716 82.8125 240.5 83.5535 241.849 84.8997C243.19 86.2458 243.934 88.0356 243.934 89.9381C243.934 91.8381 243.19 93.6279 241.849 94.974C240.5 96.3176 238.716 97.0612 236.811 97.0612C234.908 97.0612 233.121 96.3176 231.775 94.974Z" fill="#373A52"/>
<path d="M216.677 110.286C215.49 109.107 214.844 107.535 214.844 105.866C214.844 104.194 215.49 102.622 216.677 101.44C217.859 100.261 219.423 99.6068 221.095 99.6094C222.772 99.6068 224.341 100.261 225.523 101.44C226.705 102.622 227.357 104.194 227.357 105.866C227.357 107.535 226.705 109.107 225.523 110.286C224.341 111.471 222.772 112.122 221.095 112.122C219.423 112.122 217.859 111.471 216.677 110.286Z" fill="#373A52"/>
<path d="M201.544 125.807C200.549 124.81 200 123.484 200 122.074C200 120.664 200.549 119.34 201.544 118.343C202.544 117.346 203.867 116.797 205.272 116.797C206.685 116.797 208.01 117.346 209.005 118.343C210.008 119.34 210.554 120.664 210.554 122.074C210.554 123.484 210.008 124.81 209.005 125.807C208.01 126.802 206.685 127.353 205.272 127.353C203.867 127.353 202.544 126.802 201.544 125.807Z" fill="#373A52"/>
<path d="M186.384 141.131C185.595 140.338 185.156 139.287 185.156 138.169C185.156 137.051 185.595 136 186.384 135.21C187.174 134.418 188.223 133.984 189.346 133.984C190.461 133.984 191.515 134.42 192.305 135.21C193.095 136 193.531 137.051 193.531 138.169C193.531 139.287 193.095 140.338 192.305 141.131C191.515 141.92 190.461 142.356 189.346 142.356C188.223 142.356 187.174 141.92 186.384 141.131Z" fill="#373A52"/>
<path d="M171.184 156.262C170.62 155.698 170.312 154.949 170.312 154.154C170.312 153.356 170.62 152.61 171.184 152.046C171.748 151.482 172.497 151.172 173.295 151.172C174.087 151.172 174.838 151.482 175.4 152.046C175.961 152.61 176.271 153.356 176.271 154.154C176.271 154.951 175.961 155.698 175.4 156.262C174.838 156.826 174.087 157.133 173.295 157.133C172.497 157.133 171.748 156.826 171.184 156.262Z" fill="#373A52"/>
<path d="M155.961 171.2C155.643 170.885 155.469 170.467 155.469 170.023C155.469 169.577 155.643 169.162 155.961 168.847C156.274 168.534 156.689 168.359 157.135 168.359C157.584 168.359 157.999 168.534 158.312 168.847C158.628 169.162 158.799 169.577 158.799 170.023C158.799 170.467 158.628 170.885 158.312 171.2C157.999 171.513 157.584 171.688 157.135 171.688C156.689 171.688 156.274 171.513 155.961 171.2Z" fill="#373A52"/>
<path d="M140.697 185.944L140.625 185.778L140.697 185.614L140.858 185.547L141.025 185.614L141.094 185.778L141.025 185.944L140.858 186.011L140.697 185.944Z" fill="#373A52"/>
<path d="M234.336 15.7874C232.849 14.3002 232.031 12.3207 232.031 10.2181C232.031 8.11555 232.849 6.13606 234.336 4.65144C235.824 3.16426 237.803 2.34375 239.908 2.34375C242.008 2.34375 243.988 3.16426 245.475 4.65144C246.962 6.13863 247.78 8.11555 247.78 10.2181C247.78 12.3207 246.967 14.3002 245.475 15.7874C243.988 17.2745 242.008 18.0925 239.908 18.0925C237.803 18.0925 235.824 17.2745 234.336 15.7874Z" fill="#373A52"/>
<path d="M219.275 31.2996C217.926 29.956 217.19 28.1663 217.188 26.2637C217.19 24.3611 217.926 22.574 219.275 21.2278C220.621 19.8817 222.411 19.1406 224.308 19.1406C226.213 19.1406 228 19.8817 229.344 21.2278C230.693 22.574 231.434 24.3611 231.434 26.2637C231.434 28.1663 230.693 29.956 229.344 31.2996C228 32.6458 226.213 33.3868 224.308 33.3868C222.411 33.3868 220.621 32.6458 219.275 31.2996Z" fill="#373A52"/>
<path d="M203.393 46.617C202.214 45.4349 201.562 43.8631 201.562 42.1939C201.562 40.5247 202.214 38.9503 203.393 37.7683C204.575 36.5862 206.147 35.9375 207.819 35.9375C209.483 35.9375 211.06 36.5862 212.237 37.7683C213.427 38.9503 214.07 40.5247 214.07 42.1939C214.07 43.8631 213.427 45.4349 212.245 46.617C211.06 47.7991 209.483 48.4503 207.819 48.4503C206.147 48.4503 204.575 47.7991 203.393 46.617Z" fill="#373A52"/>
<path d="M188.265 61.7446C187.265 60.7498 186.719 59.4241 186.719 58.0139C186.719 56.6036 187.265 55.278 188.265 54.2805C189.257 53.2831 190.585 52.7344 191.998 52.7344C193.401 52.7344 194.729 53.2831 195.732 54.2805C196.721 55.278 197.273 56.6036 197.273 58.0139C197.273 59.4241 196.721 60.7498 195.732 61.7446C194.729 62.7421 193.401 63.2908 191.998 63.2908C190.585 63.2908 189.257 62.7421 188.265 61.7446Z" fill="#373A52"/>
<path d="M173.101 77.0706C172.311 76.2783 171.875 75.2244 171.875 74.1065C171.875 72.9885 172.311 71.9398 173.101 71.1475C173.893 70.3578 174.944 69.9219 176.057 69.9219C177.18 69.9219 178.229 70.3578 179.021 71.1475C179.808 71.9398 180.247 72.9911 180.247 74.1065C180.247 75.2244 179.808 76.2783 179.021 77.0706C178.229 77.8603 177.18 78.2962 176.057 78.2962C174.944 78.2962 173.893 77.8603 173.101 77.0706Z" fill="#373A52"/>
<path d="M157.908 92.1991C157.339 91.6376 157.031 90.8888 157.031 90.094C157.031 89.2965 157.339 88.5478 157.908 87.9837C158.47 87.4222 159.216 87.1094 160.013 87.1094C160.808 87.1094 161.559 87.4222 162.124 87.9837C162.688 88.5478 162.995 89.2965 162.995 90.094C162.995 90.8888 162.688 91.6376 162.124 92.1991C161.559 92.7632 160.808 93.0735 160.013 93.0735C159.216 93.0735 158.47 92.7632 157.908 92.1991Z" fill="#373A52"/>
<path d="M142.672 107.14C142.359 106.823 142.188 106.405 142.188 105.961C142.188 105.517 142.359 105.099 142.672 104.784C142.987 104.471 143.405 104.297 143.852 104.297C144.295 104.297 144.713 104.471 145.026 104.784C145.341 105.099 145.516 105.517 145.516 105.961C145.516 106.405 145.341 106.823 145.026 107.14C144.713 107.451 144.295 107.625 143.852 107.625C143.405 107.625 142.987 107.451 142.672 107.14Z" fill="#373A52"/>
<path d="M128.192 122.27L128.125 122.106L128.192 121.942L128.353 121.875L128.525 121.942L128.592 122.106L128.525 122.27L128.353 122.339L128.192 122.27Z" fill="#373A52"/>
<path d="M201.724 16.1625C200.109 14.5471 199.219 12.3984 199.219 10.1164C199.219 7.82917 200.109 5.68302 201.724 4.06763C203.342 2.44968 205.488 1.5625 207.773 1.5625C210.055 1.5625 212.201 2.45225 213.819 4.06763C215.432 5.68302 216.324 7.82917 216.324 10.1164C216.324 12.3984 215.432 14.5471 213.819 16.1625C212.201 17.7779 210.055 18.6676 207.773 18.6676C205.488 18.6676 203.342 17.7779 201.724 16.1625Z" fill="#373A52"/>
<path d="M186.683 31.803C185.195 30.3132 184.375 28.3363 184.375 26.2337C184.375 24.1312 185.195 22.1517 186.683 20.6645C188.167 19.1799 190.147 18.3594 192.255 18.3594C194.355 18.3594 196.331 19.1799 197.821 20.6645C199.306 22.1543 200.126 24.1312 200.126 26.2337C200.126 28.3363 199.311 30.3132 197.821 31.803C196.331 33.2902 194.355 34.1107 192.255 34.1107C190.147 34.1107 188.167 33.2902 186.683 31.803Z" fill="#373A52"/>
<path d="M170.835 47.3152C169.494 45.9691 168.755 44.1819 168.75 42.2793C168.755 40.3768 169.494 38.5896 170.835 37.2434C172.183 35.8973 173.973 35.1562 175.873 35.1562C177.776 35.1562 179.568 35.8973 180.909 37.2434C182.255 38.5896 182.996 40.3768 182.996 42.2793C182.996 44.1819 182.255 45.9691 180.909 47.3152C179.568 48.6614 177.776 49.3999 175.873 49.3999C173.973 49.3999 172.183 48.6614 170.835 47.3152Z" fill="#373A52"/>
<path d="M155.74 62.6352C154.56 61.4531 153.906 59.8839 153.906 58.2121C153.906 56.5429 154.56 54.9685 155.74 53.7865C156.922 52.607 158.491 51.9531 160.163 51.9531C161.832 51.9531 163.406 52.607 164.588 53.7865C165.77 54.9685 166.419 56.5429 166.419 58.2121C166.419 59.8839 165.77 61.4531 164.588 62.6352C163.406 63.8173 161.832 64.4685 160.163 64.4685C158.491 64.4685 156.922 63.8173 155.74 62.6352Z" fill="#373A52"/>
<path d="M140.609 77.7602C139.611 76.7628 139.062 75.4397 139.062 74.0269C139.062 72.6192 139.611 71.2936 140.609 70.2962C141.604 69.3013 142.932 68.75 144.342 68.75C145.75 68.75 147.075 69.3013 148.073 70.2962C149.065 71.2936 149.616 72.6192 149.616 74.0269C149.616 75.4397 149.065 76.7628 148.073 77.7602C147.075 78.7577 145.75 79.3064 144.342 79.3064C142.932 79.3064 141.606 78.7577 140.609 77.7602Z" fill="#373A52"/>
<path d="M125.444 93.0837C124.655 92.2914 124.219 91.2426 124.219 90.1247C124.219 89.0042 124.655 87.9555 125.444 87.1631C126.234 86.3708 127.285 85.9375 128.401 85.9375C129.524 85.9375 130.575 86.3708 131.365 87.1631C132.155 87.9555 132.591 89.0042 132.591 90.1247C132.591 91.2426 132.155 92.2914 131.365 93.0837C130.575 93.8734 129.524 94.3119 128.401 94.3119C127.285 94.3119 126.234 93.8734 125.444 93.0837Z" fill="#373A52"/>
<path d="M110.252 108.215C109.693 107.651 109.375 106.902 109.375 106.104C109.375 105.31 109.688 104.561 110.252 103.997C110.813 103.433 111.562 103.125 112.36 103.125C113.157 103.125 113.906 103.435 114.467 103.997C115.034 104.561 115.342 105.31 115.342 106.104C115.342 106.902 115.034 107.651 114.467 108.215C113.906 108.776 113.157 109.087 112.36 109.087C111.562 109.087 110.813 108.776 110.252 108.215Z" fill="#373A52"/>
<path d="M95.0184 123.154C94.7056 122.838 94.5312 122.42 94.5312 121.977C94.5312 121.533 94.7056 121.115 95.0184 120.802C95.3313 120.487 95.7518 120.312 96.1954 120.312C96.6415 120.312 97.0569 120.487 97.3723 120.802C97.6877 121.115 97.862 121.533 97.862 121.977C97.862 122.42 97.6877 122.838 97.3723 123.154C97.0569 123.469 96.6415 123.641 96.1954 123.641C95.7518 123.641 95.3313 123.469 95.0184 123.154Z" fill="#373A52"/>
<path d="M79.7516 138.288L79.6875 138.121L79.7516 137.957L79.926 137.891L80.0875 137.957L80.1542 138.121L80.0875 138.288L79.926 138.357L79.7516 138.288Z" fill="#373A52"/>
<path d="M172.64 13.6978C171.642 12.7003 171.094 11.3747 171.094 9.96442C171.094 8.55417 171.642 7.23109 172.64 6.23365C173.637 5.23622 174.96 4.6875 176.368 4.6875C177.781 4.6875 179.109 5.23622 180.099 6.23365C181.099 7.23109 181.648 8.55417 181.648 9.96442C181.648 11.3747 181.099 12.7003 180.099 13.6978C179.109 14.6926 177.781 15.2439 176.368 15.2439C174.96 15.2439 173.637 14.6926 172.64 13.6978Z" fill="#373A52"/>
<path d="M157.478 29.0212C156.686 28.2289 156.25 27.1801 156.25 26.0596C156.25 24.9417 156.686 23.8904 157.478 23.1006C158.265 22.3083 159.319 21.875 160.437 21.875C161.558 21.875 162.606 22.3083 163.396 23.1006C164.188 23.8904 164.624 24.9417 164.624 26.0596C164.624 27.1801 164.188 28.2289 163.396 29.0212C162.606 29.8109 161.558 30.2468 160.437 30.2468C159.319 30.2468 158.265 29.8109 157.478 29.0212Z" fill="#373A52"/>
<path d="M142.278 44.1522C141.716 43.5907 141.406 42.842 141.406 42.0445C141.406 41.2471 141.716 40.4984 142.278 39.9369C142.845 39.3728 143.593 39.0625 144.391 39.0625C145.186 39.0625 145.934 39.3728 146.496 39.9369C147.058 40.4984 147.37 41.2471 147.37 42.0445C147.37 42.842 147.058 43.5907 146.496 44.1522C145.934 44.7163 145.186 45.024 144.391 45.024C143.593 45.024 142.845 44.7163 142.278 44.1522Z" fill="#373A52"/>
<path d="M127.052 59.091C126.737 58.7756 126.562 58.3577 126.562 57.9141C126.562 57.4705 126.737 57.05 127.052 56.7372C127.365 56.4244 127.78 56.25 128.221 56.25C128.67 56.25 129.086 56.4244 129.401 56.7372C129.714 57.0526 129.886 57.4705 129.886 57.9141C129.886 58.3577 129.714 58.7756 129.401 59.091C129.086 59.4038 128.67 59.5782 128.221 59.5782C127.78 59.5782 127.365 59.4038 127.052 59.091Z" fill="#373A52"/>
<path d="M111.788 74.2256L111.719 74.0589L111.788 73.8948L111.955 73.8281L112.116 73.8948L112.185 74.0589L112.116 74.2256L111.955 74.2948L111.788 74.2256Z" fill="#373A52"/>
<path d="M137.838 16.8001C136.108 15.0719 135.156 12.7719 135.156 10.3283C135.156 7.88214 136.108 5.58214 137.838 3.85137C139.569 2.12316 141.867 1.17188 144.315 1.17188C146.759 1.17188 149.059 2.12316 150.785 3.85137C152.515 5.58214 153.469 7.88214 153.469 10.3283C153.469 12.7719 152.515 15.0719 150.785 16.8001C149.059 18.5283 146.759 19.4822 144.315 19.4822C141.867 19.4822 139.569 18.5283 137.838 16.8001Z" fill="#373A52"/>
<path d="M122.042 32.173C120.424 30.5602 119.531 28.4115 119.531 26.1269C119.531 23.8422 120.424 21.6961 122.042 20.0807C123.652 18.4653 125.8 17.5756 128.083 17.5781C130.375 17.5781 132.518 18.4653 134.131 20.0807C135.749 21.6961 136.636 23.8422 136.636 26.1269C136.636 28.4115 135.749 30.5602 134.131 32.173C132.518 33.791 130.375 34.6807 128.083 34.6807C125.8 34.6807 123.652 33.791 122.042 32.173Z" fill="#373A52"/>
<path d="M106.209 47.8186C104.724 46.3314 103.906 44.3519 103.906 42.2494C103.906 40.1468 104.724 38.1673 106.209 36.6827C107.701 35.1955 109.678 34.375 111.781 34.375C113.883 34.375 115.858 35.1955 117.347 36.6827C118.837 38.1673 119.658 40.1468 119.658 42.2494C119.658 44.3519 118.837 46.3314 117.347 47.8186C115.863 49.3058 113.883 50.1237 111.781 50.1237C109.678 50.1237 107.701 49.3058 106.209 47.8186Z" fill="#373A52"/>
<path d="M91.1471 62.9402C89.801 61.5966 89.0625 59.8069 89.0625 57.9043C89.0625 56.0018 89.801 54.212 91.1471 52.8684C92.4958 51.5223 94.2805 50.7812 96.183 50.7812C98.0856 50.7812 99.8753 51.5223 101.219 52.8684C102.565 54.212 103.304 56.0018 103.304 57.9043C103.304 59.8069 102.565 61.5966 101.219 62.9402C99.8753 64.2864 98.0856 65.0274 96.183 65.0274C94.2805 65.0274 92.4958 64.2864 91.1471 62.9402Z" fill="#373A52"/>
<path d="M76.0521 78.6483C74.87 77.4662 74.2188 75.8944 74.2188 74.2252C74.2188 72.5534 74.87 70.9816 76.0521 69.7995C77.2367 68.62 78.8059 67.9662 80.4828 67.9688C82.1495 67.9662 83.7187 68.62 84.9008 69.7995C86.0828 70.9816 86.7341 72.5534 86.7341 74.2252C86.7341 75.8944 86.0828 77.4662 84.9008 78.6483C83.7187 79.8303 82.1495 80.4816 80.4828 80.4816C78.8059 80.4816 77.2367 79.8303 76.0521 78.6483Z" fill="#373A52"/>
<path d="M60.1348 93.7733C59.1425 92.7785 58.5938 91.4502 58.5938 90.0426C58.5938 88.6297 59.1425 87.3067 60.1348 86.3092C61.1348 85.3118 62.4553 84.7656 63.8656 84.7656C65.2784 84.7656 66.6015 85.3118 67.5989 86.3092C68.5989 87.3067 69.1476 88.6297 69.1476 90.0426C69.1476 91.4502 68.5989 92.7785 67.5989 93.7733C66.6015 94.7682 65.2784 95.3195 63.8656 95.3195C62.4604 95.3195 61.1348 94.7682 60.1348 93.7733Z" fill="#373A52"/>
<path d="M44.9782 109.099C44.1859 108.307 43.75 107.258 43.75 106.138C43.75 105.022 44.1859 103.969 44.9782 103.179C45.7654 102.389 46.8141 101.953 47.9372 101.953C49.0526 101.953 50.1064 102.389 50.8961 103.179C51.6884 103.969 52.1218 105.022 52.1218 106.138C52.1218 107.258 51.6884 108.307 50.8961 109.099C50.1064 109.889 49.0526 110.325 47.9372 110.325C46.8141 110.325 45.7654 109.889 44.9782 109.099Z" fill="#373A52"/>
<path d="M29.7781 124.23C29.2165 123.669 28.9062 122.92 28.9062 122.123C28.9062 121.325 29.2165 120.579 29.7781 120.015C30.3422 119.453 31.0909 119.141 31.8857 119.141C32.6806 119.141 33.4319 119.453 33.996 120.015C34.5575 120.579 34.8652 121.328 34.8652 122.123C34.8652 122.92 34.5575 123.669 33.996 124.23C33.4319 124.794 32.6806 125.105 31.8883 125.105C31.0909 125.105 30.3422 124.794 29.7781 124.23Z" fill="#373A52"/>
<path d="M15.3309 139.169C15.0181 138.854 14.8438 138.436 14.8438 137.992C14.8438 137.549 15.0181 137.131 15.3309 136.815C15.6463 136.502 16.0617 136.328 16.5079 136.328C16.954 136.328 17.372 136.502 17.6848 136.815C17.9976 137.131 18.172 137.549 18.172 137.992C18.172 138.436 17.9976 138.854 17.6848 139.169C17.372 139.482 16.954 139.656 16.5079 139.656C16.0617 139.656 15.6463 139.482 15.3309 139.169Z" fill="#373A52"/>
<path d="M0.06925 154.304L0 154.14L0.06925 153.973L0.233337 153.906L0.397425 153.973L0.466675 154.14L0.397425 154.304L0.233337 154.373L0.06925 154.304Z" fill="#373A52"/>
</svg>
