<svg width="345" height="420" viewBox="0 0 345 420" fill="none" xmlns="http://www.w3.org/2000/svg">
<path d="M324.993 336.886C322.867 339.017 321.696 341.845 321.696 344.853C321.696 347.863 322.867 350.689 324.993 352.817C327.119 354.945 329.947 356.119 332.955 356.119C335.965 356.119 338.791 354.945 340.919 352.817C343.047 350.689 344.219 347.863 344.219 344.853C344.219 341.845 343.047 339.017 340.919 336.886C338.791 334.758 335.965 333.589 332.955 333.594C329.947 333.589 327.119 334.758 324.993 336.886Z" fill="#F3F3F7"/>
<path d="M308.718 320.855C306.605 322.97 305.441 325.781 305.441 328.768C305.441 331.76 306.605 334.568 308.718 336.676C310.83 338.793 313.641 339.952 316.628 339.952C319.618 339.952 322.425 338.793 324.541 336.676C326.648 334.568 327.812 331.76 327.812 328.768C327.812 325.781 326.648 322.97 324.541 320.855C322.425 318.742 319.618 317.578 316.628 317.578C313.641 317.578 310.83 318.742 308.718 320.855Z" fill="#F3F3F7"/>
<path d="M293.346 305.189C291.262 307.269 290.113 310.04 290.113 312.992C290.113 315.938 291.262 318.71 293.346 320.794C295.429 322.879 298.2 324.027 301.152 324.027C304.098 324.027 306.87 322.879 308.954 320.794C311.039 318.71 312.188 315.938 312.188 312.992C312.188 310.04 311.039 307.269 308.954 305.189C306.87 303.102 304.098 301.953 301.152 301.953C298.2 301.953 295.431 303.102 293.346 305.189Z" fill="#F3F3F7"/>
<path d="M277.325 289.104C275.281 291.148 274.158 293.863 274.158 296.75C274.158 299.64 275.281 302.355 277.325 304.396C279.368 306.435 282.081 307.561 284.971 307.561C287.858 307.561 290.574 306.435 292.615 304.396C294.658 302.355 295.781 299.64 295.781 296.75C295.781 293.863 294.658 291.148 292.615 289.104C290.574 287.063 287.858 285.938 284.971 285.938C282.081 285.938 279.368 287.063 277.325 289.104Z" fill="#F3F3F7"/>
<path d="M261.431 273.387C259.447 275.374 258.354 278.013 258.354 280.818C258.354 283.628 259.447 286.266 261.431 288.248C263.416 290.238 266.057 291.33 268.865 291.33C271.672 291.33 274.311 290.238 276.296 288.248C278.28 286.266 279.375 283.628 279.375 280.818C279.375 278.013 278.28 275.374 276.296 273.387C274.311 271.402 271.672 270.312 268.865 270.312C266.057 270.312 263.416 271.402 261.431 273.387Z" fill="#F3F3F7"/>
<path d="M245.669 257.657C243.756 259.567 242.702 262.113 242.702 264.821C242.702 267.526 243.756 270.072 245.669 271.982C247.584 273.895 250.128 274.954 252.835 274.954C255.541 274.954 258.087 273.895 260.002 271.982C261.915 270.072 262.969 267.526 262.969 264.821C262.969 262.113 261.915 259.567 260.002 257.657C258.087 255.741 255.541 254.688 252.835 254.688C250.128 254.688 247.584 255.741 245.669 257.657Z" fill="#F3F3F7"/>
<path d="M230.037 241.896C228.206 243.724 227.198 246.157 227.198 248.742C227.198 251.327 228.206 253.76 230.034 255.588C231.862 257.416 234.296 258.427 236.883 258.424C239.468 258.424 241.898 257.416 243.727 255.588C245.555 253.76 246.562 251.327 246.562 248.742C246.562 246.157 245.555 243.724 243.727 241.896C241.898 240.07 239.468 239.062 236.883 239.062C234.296 239.062 231.862 240.07 230.037 241.896Z" fill="#F3F3F7"/>
<path d="M214.528 226.508C212.797 228.236 211.846 230.538 211.846 232.979C211.846 235.428 212.797 237.726 214.528 239.454C216.256 241.185 218.554 242.136 221.002 242.136C223.446 242.136 225.746 241.185 227.474 239.454C229.202 237.726 230.156 235.428 230.156 232.979C230.156 230.538 229.202 228.236 227.474 226.508C225.746 224.777 223.446 223.828 221.002 223.828C218.554 223.828 216.256 224.777 214.528 226.508Z" fill="#F3F3F7"/>
<path d="M199.147 210.706C197.535 212.324 196.645 214.475 196.645 216.757C196.645 219.039 197.535 221.185 199.147 222.803C200.765 224.418 202.914 225.311 205.196 225.311C207.481 225.311 209.629 224.418 211.245 222.803C212.86 221.185 213.75 219.039 213.75 216.757C213.75 214.475 212.86 212.324 211.245 210.706C209.629 209.093 207.481 208.203 205.196 208.203C202.914 208.203 200.765 209.093 199.147 210.706Z" fill="#F3F3F7"/>
<path d="M183.9 195.274C182.413 196.758 181.595 198.738 181.595 200.843C181.595 202.946 182.413 204.923 183.9 206.41C185.387 207.902 187.364 208.715 189.469 208.715C191.572 208.715 193.551 207.902 195.036 206.41C196.523 204.923 197.344 202.946 197.344 200.843C197.344 198.738 196.523 196.758 195.036 195.274C193.551 193.787 191.572 192.969 189.469 192.969C187.364 192.969 185.387 193.787 183.9 195.274Z" fill="#F3F3F7"/>
<path d="M168 179.822C166.654 181.165 165.913 182.955 165.913 184.857C165.913 186.76 166.654 188.55 168 189.893C169.343 191.239 171.133 191.981 173.036 191.981C174.938 191.981 176.725 191.239 178.072 189.893C179.418 188.55 180.156 186.76 180.156 184.857C180.156 182.955 179.418 181.165 178.072 179.822C176.725 178.475 174.938 177.734 173.036 177.734C171.133 177.734 169.343 178.475 168 179.822Z" fill="#F3F3F7"/>
<path d="M153.07 164.724C151.888 165.903 151.237 167.475 151.237 169.147C151.237 170.819 151.888 172.391 153.07 173.57C154.253 174.752 155.822 175.403 157.496 175.403C159.165 175.403 160.737 174.752 161.917 173.57C163.101 172.391 163.75 170.819 163.75 169.147C163.75 167.475 163.101 165.903 161.917 164.724C160.737 163.542 159.165 162.891 157.496 162.891C155.822 162.891 154.253 163.542 153.07 164.724Z" fill="#F3F3F7"/>
<path d="M137.552 149.202C136.555 150.2 136.006 151.525 136.006 152.933C136.006 154.343 136.555 155.669 137.552 156.666C138.55 157.664 139.875 158.213 141.283 158.213C142.693 158.213 144.019 157.664 145.016 156.666C146.011 155.669 146.562 154.343 146.562 152.933C146.562 151.525 146.011 150.2 145.016 149.202C144.019 148.205 142.693 147.656 141.283 147.656C139.875 147.656 138.55 148.205 137.552 149.202Z" fill="#F3F3F7"/>
<path d="M122.229 134.038C121.439 134.828 121.003 135.879 121.003 137C121.003 138.115 121.439 139.166 122.229 139.959C123.019 140.748 124.07 141.184 125.19 141.184C126.308 141.184 127.357 140.748 128.147 139.956C128.939 139.166 129.375 138.115 129.375 137C129.375 135.879 128.939 134.828 128.147 134.038C127.357 133.248 126.308 132.812 125.19 132.812C124.07 132.812 123.019 133.248 122.229 134.038Z" fill="#F3F3F7"/>
<path d="M107.1 118.841C106.536 119.405 106.226 120.153 106.226 120.951C106.226 121.746 106.536 122.494 107.1 123.058C107.662 123.62 108.411 123.933 109.208 123.933C110.003 123.933 110.752 123.62 111.316 123.058C111.877 122.494 112.188 121.746 112.188 120.948C112.188 120.153 111.877 119.405 111.316 118.841C110.752 118.279 110.003 117.969 109.208 117.969C108.411 117.969 107.662 118.279 107.1 118.841Z" fill="#F3F3F7"/>
<path d="M92.1615 104.003C91.8462 104.318 91.6744 104.734 91.6744 105.18C91.6744 105.623 91.8462 106.041 92.1615 106.357C92.4744 106.669 92.8923 106.844 93.3385 106.844C93.782 106.844 94.2 106.669 94.5128 106.357C94.8282 106.041 95 105.623 95 105.18C95 104.734 94.8282 104.318 94.5128 104.003C94.2 103.69 93.782 103.516 93.3385 103.516C92.8923 103.516 92.4744 103.69 92.1615 104.003Z" fill="#F3F3F7"/>
<path d="M77.4125 88.7437L77.3459 88.9078L77.4125 89.0719L77.5792 89.1411L77.7433 89.0719L77.8125 88.9078L77.7433 88.7437L77.5792 88.6719L77.4125 88.7437Z" fill="#F3F3F7"/>
<path d="M324.981 305.122C322.94 307.163 321.817 309.879 321.817 312.769C321.817 315.656 322.94 318.371 324.981 320.41C327.025 322.453 329.737 323.579 332.625 323.579C335.512 323.579 338.23 322.453 340.271 320.41C342.312 318.371 343.438 315.656 343.438 312.769C343.438 309.879 342.312 307.163 340.271 305.122C338.23 303.079 335.512 301.953 332.625 301.953C329.737 301.953 327.025 303.079 324.981 305.122Z" fill="#F3F3F7"/>
<path d="M309.874 289.41C307.889 291.392 306.797 294.033 306.797 296.841C306.797 299.646 307.889 302.285 309.874 304.274C311.859 306.256 314.497 307.349 317.305 307.349C320.112 307.349 322.754 306.256 324.738 304.274C326.72 302.285 327.812 299.646 327.812 296.841C327.812 294.033 326.72 291.392 324.738 289.41C322.754 287.42 320.112 286.328 317.305 286.328C314.497 286.328 311.859 287.42 309.874 289.41Z" fill="#F3F3F7"/>
<path d="M294.106 273.672C292.191 275.585 291.137 278.129 291.137 280.836C291.137 283.547 292.191 286.09 294.106 288.001C296.019 289.919 298.565 290.975 301.273 290.975C303.978 290.975 306.524 289.919 308.437 288.001C310.35 286.09 311.406 283.547 311.406 280.836C311.406 278.129 310.35 275.585 308.437 273.672C306.524 271.76 303.978 270.703 301.273 270.703C298.565 270.703 296.019 271.76 294.106 273.672Z" fill="#F3F3F7"/>
<path d="M278.469 257.919C276.644 259.747 275.636 262.176 275.636 264.765C275.636 267.353 276.641 269.781 278.469 271.609C280.297 273.437 282.731 274.445 285.315 274.445C287.903 274.445 290.333 273.437 292.164 271.609C293.992 269.781 295 267.347 295 264.765C295 262.176 293.992 259.747 292.164 257.919C290.333 256.088 287.903 255.078 285.315 255.078C282.731 255.078 280.297 256.088 278.469 257.919Z" fill="#F3F3F7"/>
<path d="M262.184 242.528C260.456 244.259 259.505 246.554 259.505 249C259.505 251.446 260.456 253.746 262.184 255.475C263.912 257.205 266.212 258.157 268.659 258.157C271.105 258.157 273.402 257.205 275.13 255.475C276.861 253.744 277.812 251.446 277.812 249C277.812 246.554 276.861 244.259 275.13 242.528C273.402 240.798 271.105 239.844 268.659 239.844C266.212 239.844 263.912 240.798 262.184 242.528Z" fill="#F3F3F7"/>
<path d="M246.806 226.729C245.191 228.342 244.301 230.488 244.301 232.773C244.301 235.06 245.191 237.209 246.806 238.821C248.422 240.439 250.57 241.324 252.855 241.324C255.14 241.324 257.288 240.439 258.901 238.821C260.517 237.209 261.406 235.06 261.406 232.773C261.406 230.488 260.517 228.342 258.901 226.729C257.288 225.111 255.14 224.219 252.855 224.219C250.57 224.219 248.422 225.111 246.806 226.729Z" fill="#F3F3F7"/>
<path d="M231.554 211.295C230.067 212.777 229.249 214.754 229.249 216.859C229.249 218.964 230.067 220.936 231.554 222.428C233.041 223.915 235.018 224.736 237.126 224.736C239.226 224.736 241.203 223.915 242.692 222.428C244.179 220.936 245 218.964 245 216.859C245 214.754 244.179 212.777 242.692 211.295C241.203 209.802 239.226 208.984 237.126 208.984C235.018 208.984 233.041 209.802 231.554 211.295Z" fill="#F3F3F7"/>
<path d="M216.435 195.837C215.091 197.183 214.35 198.971 214.35 200.873C214.35 202.778 215.091 204.565 216.435 205.912C217.781 207.255 219.568 207.996 221.471 207.996C223.373 207.996 225.163 207.255 226.509 205.912C227.853 204.565 228.594 202.773 228.594 200.873C228.594 198.971 227.853 197.183 226.509 195.837C225.163 194.491 223.373 193.75 221.473 193.75C219.568 193.75 217.781 194.491 216.435 195.837Z" fill="#F3F3F7"/>
<path d="M200.724 180.349C199.545 181.531 198.891 183.1 198.891 184.772C198.891 186.444 199.545 188.013 200.724 189.195C201.906 190.377 203.478 191.028 205.147 191.028C206.819 191.028 208.391 190.377 209.573 189.195C210.755 188.013 211.406 186.444 211.406 184.772C211.406 183.1 210.755 181.531 209.573 180.349C208.391 179.167 206.819 178.516 205.147 178.516C203.478 178.516 201.906 179.167 200.724 180.349Z" fill="#F3F3F7"/>
<path d="M185.208 165.218C184.211 166.213 183.665 167.541 183.665 168.949C183.665 170.359 184.211 171.685 185.208 172.68C186.206 173.677 187.532 174.226 188.942 174.226C190.352 174.226 191.675 173.677 192.673 172.68C193.67 171.685 194.219 170.359 194.219 168.949C194.219 167.541 193.67 166.213 192.673 165.218C191.675 164.221 190.352 163.672 188.942 163.672C187.532 163.672 186.206 164.221 185.208 165.218Z" fill="#F3F3F7"/>
<path d="M169.888 150.054C169.095 150.844 168.659 151.895 168.659 153.013C168.659 154.131 169.095 155.185 169.888 155.974C170.677 156.764 171.729 157.2 172.847 157.2C173.965 157.2 175.016 156.764 175.806 155.972C176.598 155.185 177.031 154.131 177.031 153.013C177.031 151.895 176.598 150.844 175.806 150.054C175.016 149.264 173.965 148.828 172.847 148.828C171.729 148.828 170.677 149.264 169.888 150.054Z" fill="#F3F3F7"/>
<path d="M154.754 134.859C154.192 135.423 153.88 136.172 153.88 136.969C153.88 137.764 154.192 138.513 154.754 139.074C155.316 139.638 156.064 139.948 156.864 139.948C157.659 139.948 158.408 139.638 158.969 139.074C159.534 138.513 159.844 137.764 159.844 136.969C159.844 136.172 159.534 135.423 158.969 134.859C158.408 134.297 157.659 133.984 156.864 133.984C156.064 133.984 155.316 134.297 154.754 134.859Z" fill="#F3F3F7"/>
<path d="M139.818 120.018C139.502 120.331 139.328 120.749 139.328 121.195C139.328 121.639 139.502 122.057 139.818 122.372C140.131 122.685 140.549 122.857 140.992 122.857C141.436 122.857 141.856 122.685 142.169 122.372C142.484 122.057 142.656 121.639 142.656 121.195C142.656 120.749 142.484 120.331 142.169 120.018C141.856 119.703 141.436 119.531 140.992 119.531C140.549 119.531 140.131 119.703 139.818 120.018Z" fill="#F3F3F7"/>
<path d="M125.069 104.757L125 104.923L125.069 105.088L125.235 105.157L125.4 105.088L125.469 104.923L125.4 104.757L125.235 104.688L125.069 104.757Z" fill="#F3F3F7"/>
<path d="M325.38 273.153C323.296 275.24 322.144 278.009 322.144 280.955C322.144 283.904 323.296 286.673 325.378 288.765C327.46 290.845 330.232 291.994 333.18 291.994C336.129 291.994 338.901 290.845 340.985 288.765C343.07 286.673 344.219 283.904 344.219 280.955C344.219 278.009 343.07 275.24 340.985 273.153C338.901 271.065 336.129 269.922 333.18 269.922C330.232 269.922 327.46 271.065 325.38 273.153Z" fill="#F3F3F7"/>
<path d="M309.359 257.075C307.315 259.114 306.192 261.832 306.192 264.722C306.192 267.609 307.315 270.322 309.359 272.363C311.402 274.406 314.115 275.532 317.002 275.532C319.889 275.532 322.605 274.406 324.646 272.363C326.687 270.322 327.812 267.609 327.812 264.722C327.812 261.832 326.687 259.114 324.646 257.075C322.605 255.032 319.889 253.906 317.002 253.906C314.115 253.906 311.402 255.032 309.359 257.075Z" fill="#F3F3F7"/>
<path d="M293.465 241.361C291.481 243.343 290.388 245.986 290.388 248.792C290.388 251.597 291.481 254.238 293.465 256.227C295.45 258.209 298.091 259.304 300.899 259.304C303.704 259.304 306.342 258.209 308.329 256.227C310.314 254.238 311.406 251.597 311.406 248.792C311.406 245.986 310.314 243.343 308.329 241.361C306.342 239.379 303.704 238.281 300.899 238.281C298.091 238.281 295.45 239.379 293.465 241.361Z" fill="#F3F3F7"/>
<path d="M277.703 225.625C275.79 227.538 274.736 230.084 274.736 232.79C274.736 235.502 275.79 238.041 277.703 239.959C279.615 241.872 282.162 242.923 284.867 242.923C287.574 242.923 290.118 241.872 292.033 239.959C293.949 238.041 295 235.502 295 232.79C295 230.084 293.949 227.538 292.033 225.625C290.118 223.713 287.574 222.656 284.867 222.656C282.162 222.656 279.615 223.713 277.703 225.625Z" fill="#F3F3F7"/>
<path d="M262.068 210.26C260.24 212.089 259.232 214.522 259.232 217.106C259.232 219.691 260.24 222.124 262.068 223.953C263.896 225.778 266.327 226.789 268.914 226.789C271.499 226.789 273.93 225.778 275.76 223.953C277.589 222.124 278.596 219.691 278.594 217.106C278.596 214.522 277.589 212.089 275.76 210.26C273.932 208.432 271.499 207.422 268.914 207.422C266.327 207.422 263.896 208.432 262.068 210.26Z" fill="#F3F3F7"/>
<path d="M246.562 194.479C244.831 196.21 243.88 198.507 243.88 200.953C243.88 203.397 244.831 205.699 246.562 207.425C248.29 209.153 250.587 210.107 253.034 210.107C255.48 210.107 257.777 209.153 259.505 207.425C261.236 205.699 262.187 203.397 262.187 200.953C262.19 198.507 261.236 196.21 259.505 194.479C257.777 192.751 255.48 191.797 253.034 191.797C250.587 191.797 248.29 192.751 246.562 194.479Z" fill="#F3F3F7"/>
<path d="M231.181 179.068C229.566 180.683 228.676 182.832 228.676 185.116C228.676 187.401 229.566 189.547 231.181 191.163C232.797 192.78 234.943 193.668 237.23 193.668C239.512 193.668 241.661 192.78 243.276 191.163C244.892 189.547 245.781 187.401 245.781 185.116C245.781 182.832 244.892 180.683 243.276 179.068C241.661 177.452 239.512 176.562 237.23 176.562C234.943 176.562 232.797 177.452 231.181 179.068Z" fill="#F3F3F7"/>
<path d="M215.153 163.243C213.663 164.732 212.845 166.707 212.845 168.812C212.845 170.917 213.663 172.894 215.153 174.379C216.637 175.868 218.617 176.686 220.719 176.686C222.822 176.686 224.801 175.868 226.291 174.379C227.776 172.894 228.594 170.917 228.594 168.812C228.594 166.707 227.776 164.732 226.291 163.243C224.801 161.755 222.822 160.938 220.722 160.938C218.617 160.938 216.637 161.755 215.153 163.243Z" fill="#F3F3F7"/>
<path d="M200.029 147.788C198.685 149.134 197.944 150.921 197.944 152.824C197.944 154.729 198.685 156.516 200.029 157.86C201.375 159.206 203.162 159.947 205.064 159.947C206.967 159.947 208.757 159.206 210.1 157.86C211.449 156.516 212.188 154.726 212.188 152.824C212.188 150.921 211.449 149.134 210.1 147.788C208.757 146.444 206.967 145.703 205.064 145.703C203.162 145.703 201.375 146.444 200.029 147.788Z" fill="#F3F3F7"/>
<path d="M184.321 132.69C183.138 133.872 182.49 135.444 182.49 137.116C182.49 138.785 183.138 140.357 184.321 141.539C185.503 142.721 187.072 143.37 188.746 143.37C190.418 143.37 191.987 142.721 193.169 141.539C194.351 140.357 195 138.785 195 137.116C195 135.444 194.351 133.872 193.169 132.69C191.987 131.511 190.418 130.859 188.746 130.859C187.072 130.859 185.503 131.511 184.321 132.69Z" fill="#F3F3F7"/>
<path d="M169.583 117.171C168.589 118.169 168.04 119.494 168.04 120.904C168.04 122.312 168.589 123.64 169.583 124.635C170.581 125.633 171.907 126.181 173.317 126.181C174.725 126.181 176.05 125.633 177.048 124.635C178.045 123.64 178.594 122.312 178.594 120.902C178.594 119.494 178.045 118.169 177.048 117.171C176.05 116.174 174.725 115.625 173.317 115.625C171.907 115.625 170.581 116.174 169.583 117.171Z" fill="#F3F3F7"/>
<path d="M154.258 102.007C153.468 102.799 153.032 103.85 153.032 104.968C153.032 106.086 153.468 107.138 154.258 107.927C155.05 108.72 156.101 109.156 157.219 109.156C158.337 109.156 159.388 108.717 160.178 107.927C160.97 107.138 161.406 106.086 161.406 104.968C161.406 103.85 160.97 102.799 160.178 102.007C159.388 101.217 158.337 100.781 157.222 100.781C156.101 100.781 155.05 101.217 154.258 102.007Z" fill="#F3F3F7"/>
<path d="M139.129 86.8093C138.567 87.3708 138.257 88.1221 138.257 88.917C138.257 89.7144 138.565 90.4631 139.129 91.0247C139.691 91.5888 140.442 91.899 141.237 91.899C142.034 91.899 142.783 91.5888 143.344 91.0247C143.909 90.4631 144.219 89.7119 144.219 88.917C144.219 88.1196 143.909 87.3708 143.344 86.8093C142.783 86.2452 142.034 85.9375 141.237 85.9375C140.442 85.9375 139.691 86.2452 139.129 86.8093Z" fill="#F3F3F7"/>
<path d="M124.193 71.9716C123.877 72.2844 123.706 72.7049 123.706 73.1485C123.706 73.5946 123.877 74.01 124.19 74.3254C124.506 74.6382 124.924 74.8126 125.37 74.8126C125.813 74.8126 126.231 74.6382 126.544 74.3254C126.859 74.01 127.031 73.5946 127.031 73.1485C127.031 72.7049 126.859 72.2844 126.544 71.9716C126.231 71.6587 125.813 71.4844 125.37 71.4844C124.924 71.4844 124.506 71.6587 124.193 71.9716Z" fill="#F3F3F7"/>
<path d="M108.662 57.103L108.596 57.2646L108.662 57.4287L108.829 57.4979L108.993 57.4287L109.062 57.2646L108.993 57.103L108.829 57.0312L108.662 57.103Z" fill="#F3F3F7"/>
<path d="M327.653 179.261C326.163 180.748 325.348 182.725 325.348 184.83C325.348 186.935 326.163 188.912 327.653 190.397C329.137 191.884 331.117 192.704 333.219 192.704C335.322 192.704 337.301 191.884 338.789 190.397C340.276 188.91 341.094 186.935 341.094 184.83C341.094 182.725 340.276 180.748 338.789 179.261C337.301 177.774 335.322 176.953 333.219 176.953C331.117 176.953 329.137 177.774 327.653 179.261Z" fill="#F3F3F7"/>
<path d="M311.747 163.803C310.401 165.147 309.66 166.937 309.66 168.839C309.66 170.742 310.401 172.532 311.747 173.875C313.093 175.221 314.881 175.962 316.783 175.962C318.686 175.962 320.475 175.221 321.819 173.875C323.165 172.532 323.906 170.742 323.906 168.839C323.906 166.937 323.165 165.147 321.819 163.803C320.475 162.46 318.686 161.719 316.783 161.719C314.881 161.719 313.093 162.46 311.747 163.803Z" fill="#F3F3F7"/>
<path d="M296.821 148.706C295.638 149.888 294.99 151.457 294.99 153.129C294.99 154.801 295.638 156.372 296.821 157.555C298.003 158.734 299.572 159.385 301.246 159.385C302.915 159.385 304.487 158.734 305.669 157.555C306.851 156.372 307.5 154.801 307.5 153.129C307.5 151.457 306.851 149.888 305.669 148.706C304.487 147.524 302.915 146.875 301.246 146.875C299.572 146.875 298.003 147.524 296.821 148.706Z" fill="#F3F3F7"/>
<path d="M281.302 133.187C280.307 134.184 279.756 135.51 279.756 136.92C279.756 138.328 280.307 139.653 281.302 140.651C282.3 141.646 283.625 142.197 285.033 142.197C286.443 142.197 287.771 141.646 288.766 140.651C289.764 139.653 290.312 138.328 290.312 136.918C290.312 135.51 289.764 134.184 288.766 133.187C287.771 132.189 286.443 131.641 285.036 131.641C283.625 131.641 282.3 132.189 281.302 133.187Z" fill="#F3F3F7"/>
<path d="M265.979 118.023C265.189 118.815 264.753 119.866 264.753 120.981C264.753 122.102 265.189 123.153 265.979 123.943C266.771 124.735 267.82 125.169 268.94 125.169C270.058 125.169 271.11 124.735 271.899 123.943C272.692 123.153 273.125 122.102 273.125 120.981C273.125 119.866 272.692 118.815 271.899 118.023C271.11 117.233 270.058 116.797 268.94 116.797C267.82 116.797 266.771 117.233 265.979 118.023Z" fill="#F3F3F7"/>
<path d="M250.848 102.825C250.284 103.389 249.973 104.14 249.973 104.935C249.973 105.733 250.284 106.479 250.848 107.043C251.409 107.607 252.158 107.917 252.955 107.917C253.753 107.917 254.502 107.607 255.063 107.04C255.625 106.479 255.938 105.73 255.938 104.935C255.938 104.14 255.625 103.389 255.063 102.825C254.502 102.266 253.753 101.953 252.955 101.953C252.158 101.953 251.409 102.266 250.848 102.825Z" fill="#F3F3F7"/>
<path d="M235.909 87.9872C235.596 88.3 235.422 88.7205 235.422 89.1641C235.422 89.6103 235.596 90.0256 235.909 90.3385C236.224 90.6564 236.642 90.8282 237.088 90.8282C237.529 90.8282 237.95 90.6564 238.263 90.3385C238.576 90.0256 238.75 89.6103 238.75 89.1641C238.75 88.7205 238.576 88.3 238.263 87.9872C237.95 87.6718 237.529 87.5 237.088 87.5C236.642 87.5 236.224 87.6718 235.909 87.9872Z" fill="#F3F3F7"/>
<path d="M221.165 72.726L221.096 72.8901L221.165 73.0567L221.329 73.1234L221.496 73.0542L221.562 72.8901L221.496 72.726L221.332 72.6567L221.165 72.726Z" fill="#F3F3F7"/>
<path d="M327.272 147.036C325.657 148.649 324.77 150.798 324.77 153.083C324.77 155.37 325.657 157.516 327.272 159.131C328.89 160.747 331.037 161.636 333.321 161.634C335.606 161.634 337.754 160.747 339.37 159.131C340.985 157.516 341.875 155.37 341.875 153.083C341.875 150.798 340.985 148.649 339.37 147.036C337.754 145.418 335.606 144.531 333.321 144.531C331.037 144.531 328.89 145.421 327.272 147.036Z" fill="#F3F3F7"/>
<path d="M311.244 131.605C309.754 133.092 308.936 135.069 308.936 137.171C308.936 139.276 309.754 141.253 311.244 142.74C312.731 144.228 314.708 145.048 316.811 145.048C318.913 145.048 320.89 144.228 322.38 142.74C323.867 141.253 324.688 139.276 324.688 137.171C324.688 135.069 323.867 133.092 322.38 131.605C320.89 130.117 318.913 129.297 316.811 129.297C314.708 129.297 312.731 130.117 311.244 131.605Z" fill="#F3F3F7"/>
<path d="M296.122 116.147C294.776 117.493 294.038 119.283 294.038 121.183C294.038 123.086 294.776 124.878 296.122 126.219C297.468 127.565 299.258 128.306 301.161 128.306C303.061 128.306 304.85 127.565 306.197 126.219C307.543 124.878 308.281 123.086 308.281 121.183C308.281 119.283 307.543 117.493 306.197 116.147C304.85 114.804 303.061 114.062 301.161 114.062C299.258 114.062 297.468 114.804 296.122 116.147Z" fill="#F3F3F7"/>
<path d="M280.412 100.659C279.232 101.841 278.578 103.413 278.578 105.085C278.578 106.756 279.232 108.326 280.412 109.508C281.596 110.69 283.163 111.341 284.837 111.341C286.507 111.341 288.078 110.69 289.258 109.508C290.442 108.326 291.094 106.756 291.094 105.085C291.094 103.413 290.442 101.841 289.258 100.659C288.078 99.4794 286.507 98.8281 284.837 98.8281C283.163 98.8281 281.596 99.4794 280.412 100.659Z" fill="#F3F3F7"/>
<path d="M265.677 85.1404C264.682 86.1353 264.134 87.4609 264.134 88.8712C264.134 90.2814 264.68 91.6071 265.677 92.6019C266.675 93.6019 268 94.1481 269.411 94.1481C270.818 94.1481 272.146 93.6019 273.141 92.6019C274.139 91.6071 274.688 90.2814 274.688 88.8712C274.688 87.4609 274.139 86.1353 273.141 85.1404C272.146 84.143 270.818 83.5942 269.411 83.5942C268 83.5942 266.675 84.143 265.677 85.1404Z" fill="#F3F3F7"/>
<path d="M250.356 69.9756C249.567 70.7654 249.128 71.8167 249.128 72.9346C249.128 74.0526 249.567 75.1038 250.356 75.8936C251.146 76.6859 252.197 77.1192 253.315 77.1192C254.433 77.1192 255.485 76.6859 256.274 75.8936C257.067 75.1038 257.5 74.0526 257.5 72.9346C257.5 71.8167 257.067 70.7654 256.274 69.9756C255.485 69.1833 254.433 68.75 253.315 68.75C252.197 68.75 251.146 69.1833 250.356 69.9756Z" fill="#F3F3F7"/>
<path d="M235.223 55.1712C234.659 55.7328 234.348 56.4841 234.348 57.2789C234.348 58.0764 234.659 58.8251 235.223 59.3866C235.787 59.9507 236.536 60.261 237.333 60.261C238.128 60.261 238.877 59.9507 239.438 59.3866C240.002 58.8251 240.312 58.0764 240.312 57.2789C240.312 56.4841 240.002 55.7328 239.438 55.1712C238.877 54.6097 238.128 54.2969 237.333 54.2969C236.536 54.2969 235.787 54.6097 235.223 55.1712Z" fill="#F3F3F7"/>
<path d="M220.287 39.9403C219.971 40.2531 219.797 40.6711 219.797 41.1147C219.797 41.5608 219.971 41.9788 220.287 42.2942C220.599 42.607 221.017 42.7788 221.461 42.7788C221.907 42.7788 222.325 42.607 222.638 42.2942C222.953 41.9788 223.125 41.5608 223.125 41.1147C223.125 40.6711 222.953 40.2531 222.638 39.9403C222.325 39.6249 221.907 39.4531 221.463 39.4531C221.017 39.4531 220.599 39.6249 220.287 39.9403Z" fill="#F3F3F7"/>
<path d="M204.756 25.0718L204.687 25.2359L204.756 25.4L204.92 25.4692L205.087 25.4L205.156 25.2359L205.087 25.0718L204.92 25L204.756 25.0718Z" fill="#F3F3F7"/>
<path d="M325.124 113.045C323.008 115.155 321.847 117.966 321.847 120.953C321.847 123.943 323.008 126.753 325.124 128.866C327.234 130.978 330.044 132.143 333.032 132.143C336.021 132.143 338.829 130.978 340.944 128.866C343.055 126.753 344.219 123.943 344.219 120.953C344.219 117.966 343.055 115.155 340.944 113.045C338.829 110.93 336.021 109.766 333.032 109.766C330.044 109.766 327.234 110.93 325.124 113.045Z" fill="#F3F3F7"/>
<path d="M308.977 97.3714C306.892 99.456 305.743 102.228 305.743 105.177C305.743 108.125 306.892 110.894 308.974 112.979C311.059 115.066 313.83 116.212 316.779 116.212C319.728 116.212 322.5 115.066 324.587 112.979C326.666 110.894 327.812 108.125 327.812 105.177C327.812 102.228 326.666 99.456 324.587 97.3714C322.5 95.2868 319.728 94.1406 316.779 94.1406C313.83 94.1406 311.061 95.2868 308.977 97.3714Z" fill="#F3F3F7"/>
<path d="M293.731 81.2917C291.69 83.3353 290.564 86.0506 290.564 88.9378C290.564 91.825 291.69 94.5404 293.731 96.5814C295.772 98.625 298.487 99.7506 301.377 99.7506C304.262 99.7506 306.977 98.625 309.021 96.5814C311.062 94.5404 312.188 91.825 312.188 88.9378C312.188 86.0506 311.062 83.3353 309.021 81.2917C306.977 79.2506 304.262 78.125 301.377 78.125C298.487 78.125 295.772 79.2506 293.731 81.2917Z" fill="#F3F3F7"/>
<path d="M277.84 65.5769C275.853 67.5641 274.763 70.2026 274.763 73.0077C274.763 75.818 275.853 78.4564 277.84 80.441C279.825 82.4282 282.466 83.5205 285.274 83.5205C288.081 83.5205 290.72 82.4282 292.704 80.441C294.689 78.4564 295.781 75.818 295.781 73.0077C295.781 70.2026 294.689 67.5641 292.704 65.5769C290.72 63.5949 288.081 62.5 285.274 62.5C282.466 62.5 279.825 63.5949 277.84 65.5769Z" fill="#F3F3F7"/>
<path d="M262.075 49.8442C260.162 51.7571 259.108 54.3032 259.108 57.0083C259.108 59.716 260.162 62.2596 262.075 64.175C263.99 66.0878 266.534 67.1442 269.242 67.1442C271.949 67.1442 274.493 66.0878 276.406 64.175C278.321 62.2596 279.375 59.716 279.375 57.0083C279.375 54.3032 278.321 51.7571 276.406 49.8442C274.493 47.9288 271.949 46.875 269.242 46.875C266.534 46.875 263.99 47.9288 262.075 49.8442Z" fill="#F3F3F7"/>
<path d="M246.443 34.0833C244.615 35.9141 243.607 38.3449 243.607 40.9295C243.607 43.5167 244.615 45.9474 246.443 47.7756C248.271 49.6038 250.702 50.6115 253.289 50.6115C255.874 50.6115 258.307 49.6038 260.135 47.7756C261.964 45.9474 262.971 43.5167 262.969 40.9295C262.971 38.3449 261.964 35.9141 260.135 34.0833C258.307 32.2551 255.874 31.2474 253.289 31.25C250.702 31.2474 248.271 32.2551 246.443 34.0833Z" fill="#F3F3F7"/>
<path d="M230.937 18.6977C229.206 20.4259 228.255 22.7259 228.255 25.172C228.255 27.6182 229.206 29.9156 230.937 31.6439C232.665 33.3721 234.962 34.3259 237.411 34.3259C239.855 34.3259 242.152 33.3721 243.88 31.6439C245.611 29.9156 246.562 27.6182 246.562 25.172C246.562 22.7259 245.611 20.4259 243.88 18.6977C242.152 16.9669 239.855 16.0156 237.411 16.0156C234.962 16.0156 232.665 16.9669 230.937 18.6977Z" fill="#F3F3F7"/>
<path d="M214.772 3.28638C213.16 4.90177 212.27 7.05049 212.27 9.33254C212.27 11.6197 213.16 13.7659 214.772 15.3813C216.39 16.9967 218.537 17.8864 220.824 17.8864C223.106 17.8864 225.254 16.9967 226.87 15.3813C228.485 13.7659 229.375 11.6197 229.375 9.33254C229.375 7.05049 228.485 4.90177 226.87 3.28638C225.254 1.67099 223.106 0.78125 220.824 0.78125C218.537 0.78125 216.39 1.67099 214.772 3.28638Z" fill="#F3F3F7"/>
<path d="M326.128 82.1302C324.302 83.961 323.295 86.3917 323.295 88.9789C323.295 91.5661 324.302 93.9969 326.128 95.8251C327.956 97.6533 330.387 98.661 332.974 98.661C335.561 98.661 337.992 97.6533 339.823 95.8251C341.649 93.9969 342.656 91.5661 342.656 88.9789C342.656 86.3917 341.649 83.961 339.823 82.1302C337.992 80.3046 335.561 79.2969 332.974 79.2969C330.387 79.2969 327.956 80.3046 326.128 82.1302Z" fill="#F3F3F7"/>
<path d="M310.624 66.742C308.894 68.4728 307.942 70.7702 307.942 73.2138C307.942 75.6625 308.894 77.9599 310.624 79.6907C312.353 81.4189 314.653 82.3702 317.096 82.3702C319.542 82.3702 321.842 81.4189 323.571 79.6907C325.296 77.9599 326.25 75.6625 326.25 73.2138C326.25 70.7702 325.296 68.4728 323.571 66.742C321.842 65.0138 319.542 64.0625 317.096 64.0625C314.653 64.0625 312.353 65.0138 310.624 66.742Z" fill="#F3F3F7"/>
<path d="M295.244 50.9426C293.628 52.5555 292.739 54.7042 292.739 56.9888C292.739 59.276 293.628 61.4221 295.244 63.0375C296.859 64.6529 299.008 65.5426 301.292 65.5426C303.577 65.5426 305.723 64.6529 307.339 63.0375C308.954 61.4221 309.844 59.276 309.844 56.9888C309.844 54.7042 308.954 52.5555 307.339 50.9426C305.723 49.3272 303.577 48.4375 301.292 48.4375C299.008 48.4375 296.859 49.3272 295.244 50.9426Z" fill="#F3F3F7"/>
<path d="M279.213 35.5108C277.725 36.998 276.908 38.9749 276.908 41.0775C276.908 43.1826 277.725 45.1595 279.213 46.6467C280.7 48.1365 282.677 48.9519 284.779 48.9519C286.884 48.9519 288.861 48.1365 290.351 46.6467C291.838 45.1595 292.656 43.1826 292.656 41.0775C292.656 38.9749 291.838 36.998 290.351 35.5108C288.861 34.0236 286.884 33.2031 284.782 33.2031C282.677 33.2031 280.7 34.0236 279.213 35.5108Z" fill="#F3F3F7"/>
<path d="M264.094 20.0559C262.747 21.3995 262.006 23.1893 262.006 25.0918C262.006 26.9944 262.747 28.7816 264.094 30.1277C265.437 31.4713 267.227 32.2124 269.129 32.2124C271.032 32.2124 272.819 31.4713 274.165 30.1277C275.512 28.7816 276.25 26.9918 276.25 25.0918C276.25 23.1893 275.512 21.3995 274.165 20.0559C272.819 18.7098 271.032 17.9688 269.129 17.9688C267.227 17.9688 265.437 18.7098 264.094 20.0559Z" fill="#F3F3F7"/>
<path d="M248.383 4.56771C247.204 5.7472 246.552 7.31899 246.552 8.99079C246.552 10.6626 247.204 12.2318 248.383 13.4139C249.565 14.5959 251.137 15.2472 252.809 15.2446C254.48 15.2472 256.052 14.5959 257.232 13.4139C258.416 12.2318 259.062 10.6626 259.062 8.99079C259.062 7.31899 258.416 5.7472 257.232 4.56771C256.052 3.38566 254.48 2.73438 252.809 2.73438C251.137 2.73438 249.565 3.38566 248.383 4.56771Z" fill="#F3F3F7"/>
<path d="M312.445 36.5964C311.266 37.7785 310.612 39.3477 310.612 41.0195C310.612 42.6913 311.266 44.2631 312.445 45.4451C313.628 46.6272 315.197 47.2785 316.869 47.2785C318.54 47.2785 320.112 46.6272 321.294 45.4426C322.476 44.2631 323.128 42.6913 323.125 41.0195C323.125 39.3477 322.476 37.7785 321.294 36.5964C320.112 35.4169 318.54 34.7656 316.869 34.7656C315.199 34.7656 313.628 35.4169 312.445 36.5964Z" fill="#F3F3F7"/>
<path d="M296.93 21.4655C295.93 22.4629 295.384 23.7885 295.384 25.1988C295.384 26.6065 295.93 27.9347 296.93 28.9296C297.925 29.9245 299.248 30.4757 300.661 30.4757C302.068 30.4757 303.394 29.9245 304.391 28.9296C305.389 27.9347 305.938 26.6065 305.938 25.1988C305.938 23.7885 305.389 22.4629 304.391 21.4655C303.394 20.468 302.068 19.9219 300.661 19.9219C299.248 19.9219 297.925 20.468 296.93 21.4655Z" fill="#F3F3F7"/>
<path d="M326.128 18.4583C324.302 20.2891 323.295 22.7199 323.295 25.3071C323.295 27.8917 324.302 30.325 326.128 32.1532C327.956 33.9814 330.387 34.9891 332.974 34.9891C335.561 34.9891 337.992 33.9814 339.823 32.1532C341.649 30.325 342.656 27.8917 342.656 25.3071C342.656 22.7199 341.649 20.2891 339.823 18.4583C337.992 16.6301 335.561 15.625 332.974 15.625C330.387 15.625 327.956 16.6301 326.128 18.4583Z" fill="#F3F3F7"/>
<path d="M310.624 2.68205C308.894 4.41282 307.942 6.71026 307.942 9.15385C307.942 11.6 308.894 13.9 310.624 15.6282C312.353 17.359 314.653 18.3103 317.096 18.3103C319.542 18.3103 321.842 17.359 323.571 15.6282C325.296 13.9 326.25 11.6 326.25 9.15385C326.25 6.71026 325.296 4.41282 323.571 2.68205C321.842 0.953846 319.542 0 317.096 0C314.653 0.0025641 312.353 0.953846 310.624 2.68205Z" fill="#F3F3F7"/>
<path d="M327.653 243.323C326.163 244.811 325.348 246.787 325.348 248.89C325.348 250.995 326.163 252.972 327.653 254.459C329.137 255.946 331.117 256.767 333.219 256.767C335.322 256.767 337.301 255.946 338.789 254.459C340.276 252.972 341.094 250.995 341.094 248.89C341.094 246.787 340.276 244.811 338.789 243.323C337.301 241.834 335.322 241.016 333.219 241.016C331.117 241.016 329.137 241.834 327.653 243.323Z" fill="#F3F3F7"/>
<path d="M311.747 227.863C310.401 229.209 309.66 230.999 309.66 232.899C309.66 234.802 310.401 236.586 311.747 237.935C313.093 239.281 314.881 240.02 316.783 240.02C318.686 240.02 320.475 239.281 321.819 237.935C323.165 236.586 323.906 234.802 323.906 232.899C323.906 230.999 323.165 229.209 321.819 227.863C320.475 226.517 318.686 225.781 316.783 225.781C314.881 225.781 313.093 226.517 311.747 227.863Z" fill="#F3F3F7"/>
<path d="M296.821 212.38C295.638 213.562 294.99 215.134 294.99 216.803C294.99 218.473 295.638 220.047 296.821 221.226C298.003 222.411 299.572 223.057 301.246 223.057C302.915 223.057 304.487 222.411 305.669 221.226C306.851 220.047 307.5 218.473 307.5 216.803C307.5 215.134 306.851 213.562 305.669 212.38C304.487 211.201 302.915 210.547 301.246 210.547C299.572 210.547 298.003 211.201 296.821 212.38Z" fill="#F3F3F7"/>
<path d="M281.302 197.252C280.307 198.244 279.756 199.572 279.756 200.983C279.756 202.39 280.305 203.719 281.302 204.716C282.3 205.711 283.625 206.26 285.033 206.26C286.443 206.26 287.771 205.711 288.766 204.716C289.764 203.719 290.312 202.39 290.312 200.983C290.312 199.572 289.764 198.244 288.766 197.252C287.771 196.254 286.443 195.703 285.033 195.703C283.625 195.703 282.3 196.254 281.302 197.252Z" fill="#F3F3F7"/>
<path d="M265.979 182.085C265.189 182.877 264.753 183.929 264.753 185.047C264.753 186.165 265.189 187.216 265.979 188.006C266.771 188.798 267.82 189.231 268.94 189.231C270.058 189.231 271.11 188.798 271.899 188.006C272.692 187.216 273.125 186.165 273.125 185.047C273.125 183.929 272.692 182.877 271.899 182.085C271.11 181.295 270.058 180.859 268.94 180.859C267.82 180.859 266.771 181.295 265.979 182.085Z" fill="#F3F3F7"/>
<path d="M250.848 166.89C250.284 167.452 249.973 168.203 249.973 168.998C249.973 169.795 250.284 170.544 250.848 171.105C251.409 171.669 252.158 171.98 252.955 171.98C253.753 171.98 254.502 171.669 255.063 171.105C255.625 170.544 255.938 169.793 255.938 168.998C255.938 168.2 255.625 167.452 255.063 166.89C254.502 166.326 253.753 166.016 252.955 166.016C252.158 166.016 251.409 166.326 250.848 166.89Z" fill="#F3F3F7"/>
<path d="M235.909 151.659C235.596 151.974 235.422 152.392 235.422 152.836C235.422 153.282 235.596 153.698 235.909 154.013C236.224 154.328 236.64 154.5 237.088 154.5C237.529 154.5 237.95 154.328 238.263 154.013C238.576 153.698 238.75 153.282 238.75 152.836C238.75 152.392 238.576 151.974 238.263 151.659C237.95 151.346 237.529 151.172 237.088 151.172C236.642 151.172 236.224 151.346 235.909 151.659Z" fill="#F3F3F7"/>
<path d="M221.165 136.791L221.096 136.955L221.165 137.119L221.329 137.185L221.496 137.119L221.562 136.955L221.496 136.791L221.329 136.719L221.165 136.791Z" fill="#F3F3F7"/>
<path d="M313.635 198.106C312.845 198.893 312.409 199.944 312.409 201.062C312.409 202.178 312.845 203.229 313.635 204.021C314.425 204.813 315.476 205.247 316.594 205.247C317.715 205.247 318.763 204.813 319.553 204.021C320.345 203.229 320.781 202.178 320.781 201.062C320.781 199.944 320.345 198.893 319.553 198.106C318.763 197.313 317.715 196.875 316.594 196.875C315.476 196.875 314.425 197.313 313.635 198.106Z" fill="#F3F3F7"/>
<path d="M298.504 182.906C297.942 183.467 297.632 184.218 297.63 185.013C297.63 185.808 297.942 186.557 298.504 187.121C299.068 187.685 299.817 187.995 300.614 187.995C301.409 187.995 302.158 187.685 302.722 187.121C303.283 186.557 303.594 185.808 303.594 185.013C303.594 184.218 303.283 183.467 302.722 182.906C302.158 182.342 301.409 182.031 300.614 182.031C299.817 182.031 299.068 182.342 298.504 182.906Z" fill="#F3F3F7"/>
<path d="M283.568 167.675C283.252 167.99 283.078 168.408 283.078 168.852C283.078 169.295 283.252 169.716 283.568 170.029C283.881 170.344 284.299 170.516 284.742 170.516C285.188 170.516 285.606 170.344 285.919 170.029C286.234 169.716 286.406 169.295 286.406 168.852C286.406 168.408 286.234 167.99 285.919 167.675C285.606 167.362 285.188 167.188 284.745 167.188C284.299 167.188 283.881 167.362 283.568 167.675Z" fill="#F3F3F7"/>
<path d="M268.821 152.804L268.752 152.968L268.821 153.134L268.985 153.201L269.15 153.132L269.219 152.968L269.15 152.804L268.985 152.734L268.821 152.804Z" fill="#F3F3F7"/>
<path d="M325.494 369.478C323.512 371.468 322.42 374.109 322.42 376.911C322.42 379.719 323.512 382.36 325.494 384.345C327.481 386.332 330.12 387.424 332.927 387.424C335.735 387.424 338.373 386.332 340.361 384.345C342.343 382.36 343.438 379.719 343.438 376.911C343.438 374.109 342.343 371.468 340.361 369.478C338.373 367.496 335.735 366.406 332.927 366.406C330.12 366.406 327.481 367.496 325.494 369.478Z" fill="#F3F3F7"/>
<path d="M309.734 353.748C307.821 355.658 306.767 358.207 306.767 360.912C306.767 363.62 307.821 366.163 309.734 368.079C311.649 369.992 314.195 371.043 316.9 371.043C319.608 371.043 322.154 369.992 324.067 368.079C325.977 366.163 327.031 363.62 327.031 360.912C327.031 358.207 325.977 355.658 324.067 353.748C322.154 351.83 319.608 350.781 316.9 350.781C314.195 350.781 311.649 351.83 309.734 353.748Z" fill="#F3F3F7"/>
<path d="M294.097 337.99C292.269 339.82 291.261 342.254 291.261 344.838C291.261 347.423 292.269 349.856 294.097 351.684C295.925 353.513 298.356 354.52 300.943 354.52C303.53 354.52 305.961 353.513 307.792 351.684C309.62 349.856 310.625 347.423 310.625 344.838C310.625 342.254 309.62 339.82 307.792 337.99C305.961 336.166 303.53 335.156 300.943 335.156C298.356 335.156 295.925 336.166 294.097 337.99Z" fill="#F3F3F7"/>
<path d="M278.591 322.211C276.862 323.934 275.908 326.239 275.908 328.683C275.908 331.129 276.862 333.429 278.591 335.157C280.319 336.888 282.616 337.839 285.062 337.839C287.508 337.839 289.806 336.888 291.537 335.157C293.267 333.429 294.219 331.129 294.219 328.683C294.219 326.239 293.267 323.934 291.537 322.211C289.806 320.48 287.508 319.531 285.062 319.531C282.616 319.531 280.319 320.48 278.591 322.211Z" fill="#F3F3F7"/>
<path d="M263.212 306.797C261.597 308.415 260.707 310.564 260.707 312.848C260.707 315.13 261.597 317.276 263.212 318.894C264.828 320.51 266.977 321.402 269.261 321.402C271.546 321.402 273.692 320.51 275.307 318.894C276.923 317.276 277.812 315.13 277.812 312.848C277.812 310.564 276.923 308.415 275.307 306.797C273.692 305.184 271.546 304.297 269.261 304.297C266.977 304.297 264.828 305.184 263.212 306.797Z" fill="#F3F3F7"/>
<path d="M247.181 291.368C245.694 292.855 244.876 294.834 244.876 296.939C244.876 299.039 245.694 301.019 247.181 302.504C248.669 303.991 250.648 304.814 252.751 304.814C254.853 304.814 256.83 303.991 258.32 302.504C259.804 301.019 260.625 299.039 260.625 296.939C260.625 294.834 259.804 292.855 258.32 291.368C256.83 289.883 254.853 289.062 252.751 289.062C250.648 289.062 248.669 289.883 247.181 291.368Z" fill="#F3F3F7"/>
<path d="M232.062 275.91C230.716 277.256 229.975 279.049 229.975 280.946C229.975 282.849 230.716 284.636 232.062 285.985C233.408 287.328 235.196 288.069 237.101 288.069C239.001 288.069 240.791 287.328 242.134 285.985C243.48 284.636 244.219 282.849 244.219 280.946C244.219 279.049 243.48 277.256 242.134 275.91C240.791 274.564 239.001 273.828 237.101 273.828C235.196 273.828 233.408 274.564 232.062 275.91Z" fill="#F3F3F7"/>
<path d="M216.352 260.427C215.172 261.612 214.518 263.181 214.518 264.853C214.518 266.519 215.172 268.091 216.352 269.271C217.534 270.453 219.103 271.104 220.775 271.104C222.447 271.104 224.018 270.453 225.198 269.271C226.383 268.091 227.031 266.519 227.031 264.853C227.031 263.181 226.383 261.612 225.198 260.427C224.018 259.245 222.447 258.594 220.775 258.594C219.103 258.594 217.534 259.245 216.352 260.427Z" fill="#F3F3F7"/>
<path d="M201.615 245.296C200.617 246.291 200.069 247.619 200.069 249.027C200.069 250.435 200.617 251.763 201.615 252.763C202.612 253.755 203.935 254.304 205.346 254.304C206.756 254.304 208.081 253.755 209.079 252.763C210.074 251.763 210.625 250.435 210.625 249.027C210.625 247.619 210.074 246.291 209.079 245.296C208.081 244.299 206.756 243.75 205.346 243.75C203.935 243.75 202.612 244.299 201.615 245.296Z" fill="#F3F3F7"/>
<path d="M186.291 230.129C185.502 230.922 185.066 231.97 185.066 233.088C185.066 234.211 185.502 235.26 186.291 236.052C187.081 236.84 188.135 237.278 189.253 237.278C190.371 237.278 191.42 236.84 192.212 236.052C193.002 235.26 193.438 234.211 193.438 233.088C193.438 231.97 193.002 230.922 192.212 230.129C191.42 229.342 190.371 228.906 189.253 228.906C188.135 228.906 187.081 229.342 186.291 230.129Z" fill="#F3F3F7"/>
<path d="M171.16 214.934C170.596 215.501 170.286 216.245 170.286 217.045C170.286 217.839 170.596 218.586 171.16 219.155C171.722 219.716 172.471 220.027 173.265 220.027C174.063 220.027 174.812 219.716 175.376 219.155C175.937 218.586 176.25 217.839 176.25 217.045C176.25 216.245 175.937 215.501 175.376 214.934C174.812 214.37 174.063 214.062 173.268 214.062C172.471 214.062 171.722 214.37 171.16 214.934Z" fill="#F3F3F7"/>
<path d="M156.221 199.708C155.906 200.021 155.734 200.439 155.734 200.883C155.734 201.326 155.906 201.747 156.221 202.06C156.537 202.375 156.952 202.55 157.398 202.55C157.842 202.55 158.262 202.375 158.575 202.06C158.888 201.747 159.062 201.326 159.062 200.883C159.062 200.439 158.888 200.021 158.575 199.708C158.262 199.393 157.842 199.219 157.398 199.219C156.952 199.219 156.537 199.393 156.221 199.708Z" fill="#F3F3F7"/>
<path d="M140.696 184.835L140.627 185.002L140.696 185.166L140.86 185.235L141.027 185.166L141.094 185.002L141.027 184.835L140.86 184.766L140.696 184.835Z" fill="#F3F3F7"/>
<path d="M265.309 386.273C263.581 388.004 262.627 390.307 262.627 392.753C262.627 395.194 263.581 397.496 265.309 399.222C267.037 400.953 269.335 401.904 271.784 401.904C274.227 401.904 276.527 400.953 278.255 399.222C279.986 397.491 280.938 395.194 280.938 392.753C280.938 390.307 279.986 388.004 278.255 386.273C276.527 384.543 274.227 383.594 271.784 383.594C269.337 383.594 267.037 384.543 265.309 386.273Z" fill="#F3F3F7"/>
<path d="M249.929 370.867C248.313 372.48 247.424 374.629 247.424 376.911C247.424 379.2 248.313 381.347 249.929 382.959C251.544 384.577 253.693 385.464 255.977 385.464C258.259 385.464 260.408 384.577 262.024 382.959C263.639 381.347 264.531 379.2 264.531 376.911C264.531 374.629 263.639 372.48 262.024 370.867C260.408 369.249 258.259 368.359 255.977 368.359C253.693 368.359 251.544 369.249 249.929 370.867Z" fill="#F3F3F7"/>
<path d="M234.681 355.04C233.194 356.527 232.374 358.501 232.374 360.606C232.374 362.711 233.194 364.686 234.681 366.178C236.169 367.665 238.148 368.483 240.251 368.483C242.353 368.483 244.333 367.665 245.82 366.178C247.307 364.686 248.125 362.711 248.125 360.606C248.125 358.501 247.307 356.527 245.82 355.04C244.333 353.55 242.353 352.734 240.251 352.734C238.148 352.734 236.169 353.55 234.681 355.04Z" fill="#F3F3F7"/>
<path d="M218.779 339.587C217.432 340.933 216.691 342.718 216.691 344.621C216.691 346.521 217.432 348.315 218.779 349.659C220.122 351.005 221.912 351.746 223.814 351.746C225.717 351.746 227.504 351.005 228.85 349.659C230.196 348.315 230.938 346.521 230.938 344.621C230.938 342.718 230.196 340.933 228.85 339.587C227.504 338.238 225.717 337.5 223.814 337.5C221.912 337.5 220.122 338.238 218.779 339.587Z" fill="#F3F3F7"/>
<path d="M203.852 324.487C202.67 325.672 202.018 327.243 202.018 328.913C202.018 330.584 202.67 332.159 203.852 333.338C205.034 334.52 206.603 335.169 208.275 335.169C209.947 335.169 211.518 334.52 212.698 333.338C213.88 332.159 214.531 330.584 214.531 328.913C214.531 327.243 213.88 325.672 212.7 324.487C211.518 323.308 209.947 322.656 208.275 322.656C206.603 322.656 205.034 323.308 203.852 324.487Z" fill="#F3F3F7"/>
<path d="M188.333 308.965C187.339 309.963 186.787 311.286 186.787 312.699C186.787 314.106 187.336 315.43 188.333 316.432C189.331 317.422 190.657 317.978 192.064 317.978C193.475 317.978 194.8 317.422 195.798 316.432C196.795 315.43 197.344 314.106 197.344 312.699C197.344 311.286 196.795 309.963 195.798 308.965C194.8 307.971 193.475 307.422 192.064 307.422C190.657 307.422 189.331 307.971 188.333 308.965Z" fill="#F3F3F7"/>
<path d="M173.01 293.809C172.22 294.596 171.784 295.647 171.784 296.765C171.784 297.883 172.22 298.935 173.01 299.724C173.802 300.517 174.851 300.95 175.972 300.95C177.09 300.95 178.141 300.517 178.931 299.724C179.72 298.935 180.156 297.883 180.156 296.765C180.156 295.647 179.72 294.596 178.931 293.809C178.141 293.014 177.09 292.578 175.972 292.578C174.851 292.578 173.802 293.014 173.01 293.809Z" fill="#F3F3F7"/>
<path d="M157.879 278.609C157.315 279.168 157.007 279.919 157.007 280.716C157.007 281.506 157.315 282.257 157.879 282.822C158.441 283.386 159.189 283.693 159.987 283.693C160.782 283.693 161.53 283.386 162.094 282.822C162.658 282.257 162.969 281.506 162.969 280.711C162.969 279.919 162.658 279.168 162.094 278.609C161.53 278.042 160.782 277.734 159.987 277.734C159.189 277.734 158.441 278.042 157.879 278.609Z" fill="#F3F3F7"/>
<path d="M142.94 263.768C142.627 264.084 142.453 264.499 142.453 264.948C142.453 265.392 142.627 265.809 142.94 266.122C143.256 266.438 143.671 266.612 144.117 266.612C144.563 266.612 144.979 266.438 145.294 266.122C145.607 265.809 145.781 265.392 145.781 264.948C145.781 264.499 145.607 264.084 145.294 263.768C144.979 263.456 144.563 263.281 144.117 263.281C143.674 263.281 143.256 263.456 142.94 263.768Z" fill="#F3F3F7"/>
<path d="M128.196 248.897L128.127 249.059L128.196 249.226L128.36 249.297L128.525 249.226L128.594 249.059L128.525 248.897L128.36 248.828L128.196 248.897Z" fill="#F3F3F7"/>
<path d="M248.794 401.407C246.881 403.32 245.827 405.866 245.827 408.571C245.827 411.279 246.881 413.822 248.794 415.735C250.709 417.65 253.253 418.704 255.96 418.704C258.666 418.704 261.212 417.65 263.127 415.735C265.04 413.822 266.094 411.279 266.094 408.571C266.094 405.866 265.04 403.32 263.127 401.407C261.212 399.494 258.666 398.438 255.96 398.438C253.253 398.438 250.709 399.494 248.794 401.407Z" fill="#F3F3F7"/>
<path d="M233.159 386.039C231.331 387.872 230.323 390.298 230.323 392.89C230.323 395.47 231.331 397.906 233.159 399.736C234.987 401.562 237.418 402.567 240.005 402.567C242.59 402.567 245.023 401.562 246.852 399.736C248.68 397.906 249.688 395.47 249.688 392.89C249.688 390.298 248.68 387.872 246.852 386.039C245.023 384.213 242.59 383.203 240.005 383.203C237.418 383.203 234.987 384.213 233.159 386.039Z" fill="#F3F3F7"/>
<path d="M217.656 370.263C215.925 371.988 214.971 374.288 214.971 376.732C214.971 379.178 215.925 381.478 217.656 383.209C219.384 384.937 221.681 385.891 224.127 385.891C226.574 385.891 228.871 384.937 230.602 383.209C232.33 381.478 233.281 379.178 233.281 376.732C233.284 374.288 232.33 371.988 230.602 370.263C228.871 368.532 226.574 367.578 224.127 367.578C221.684 367.578 219.384 368.532 217.656 370.263Z" fill="#F3F3F7"/>
<path d="M202.272 354.849C200.66 356.467 199.77 358.613 199.77 360.898C199.77 363.18 200.66 365.328 202.272 366.946C203.89 368.559 206.037 369.449 208.321 369.449C210.606 369.449 212.752 368.559 214.37 366.946C215.985 365.328 216.875 363.18 216.875 360.898C216.875 358.613 215.985 356.467 214.37 354.849C212.752 353.236 210.606 352.344 208.321 352.344C206.037 352.344 203.89 353.236 202.272 354.849Z" fill="#F3F3F7"/>
<path d="M186.246 339.026C184.757 340.511 183.939 342.491 183.939 344.593C183.939 346.696 184.757 348.675 186.246 350.16C187.734 351.644 189.711 352.47 191.813 352.47C193.918 352.47 195.895 351.644 197.382 350.16C198.87 348.675 199.688 346.696 199.688 344.593C199.688 342.491 198.872 340.511 197.382 339.026C195.895 337.537 193.918 336.719 191.813 336.719C189.711 336.719 187.734 337.537 186.246 339.026Z" fill="#F3F3F7"/>
<path d="M171.125 323.564C169.776 324.913 169.038 326.702 169.038 328.602C169.038 330.505 169.776 332.295 171.125 333.638C172.468 334.984 174.258 335.723 176.161 335.723C178.063 335.723 179.848 334.984 181.197 333.638C182.54 332.295 183.281 330.505 183.281 328.602C183.281 326.702 182.54 324.913 181.197 323.564C179.848 322.22 178.063 321.484 176.161 321.484C174.258 321.484 172.468 322.22 171.125 323.564Z" fill="#F3F3F7"/>
<path d="M155.414 308.474C154.232 309.656 153.581 311.228 153.581 312.897C153.581 314.566 154.232 316.138 155.414 317.32C156.594 318.505 158.166 319.151 159.837 319.151C161.507 319.151 163.078 318.505 164.26 317.318C165.442 316.138 166.094 314.566 166.094 312.897C166.094 311.228 165.442 309.656 164.26 308.474C163.078 307.292 161.507 306.641 159.837 306.641C158.166 306.641 156.594 307.292 155.414 308.474Z" fill="#F3F3F7"/>
<path d="M140.677 292.952C139.682 293.95 139.131 295.273 139.131 296.686C139.131 298.093 139.682 299.422 140.677 300.416C141.675 301.411 143 301.96 144.411 301.96C145.821 301.96 147.146 301.411 148.141 300.416C149.139 299.422 149.688 298.093 149.688 296.686C149.688 295.273 149.139 293.95 148.141 292.952C147.146 291.955 145.821 291.406 144.411 291.406C143 291.406 141.675 291.955 140.677 292.952Z" fill="#F3F3F7"/>
<path d="M125.354 277.786C124.562 278.578 124.126 279.627 124.126 280.745C124.126 281.865 124.562 282.914 125.354 283.709C126.146 284.496 127.195 284.932 128.313 284.932C129.431 284.932 130.482 284.496 131.274 283.709C132.064 282.914 132.5 281.865 132.5 280.745C132.5 279.627 132.064 278.578 131.274 277.786C130.482 276.998 129.431 276.562 128.313 276.562C127.195 276.562 126.146 276.998 125.354 277.786Z" fill="#F3F3F7"/>
<path d="M110.223 262.596C109.659 263.16 109.351 263.903 109.351 264.703C109.351 265.498 109.659 266.25 110.223 266.811C110.787 267.375 111.536 267.683 112.33 267.683C113.125 267.683 113.874 267.375 114.441 266.811C115.002 266.25 115.312 265.498 115.312 264.703C115.312 263.903 115.002 263.16 114.441 262.596C113.874 262.029 113.125 261.719 112.33 261.719C111.536 261.719 110.787 262.029 110.223 262.596Z" fill="#F3F3F7"/>
<path d="M95.2865 247.755C94.9711 248.068 94.7993 248.489 94.7993 248.93C94.7993 249.378 94.9711 249.794 95.2865 250.109C95.5994 250.422 96.0173 250.596 96.4609 250.596C96.907 250.596 97.3224 250.422 97.6378 250.109C97.9532 249.794 98.125 249.378 98.125 248.93C98.125 248.489 97.9532 248.068 97.6378 247.755C97.3224 247.443 96.907 247.266 96.4609 247.266C96.0173 247.266 95.5994 247.443 95.2865 247.755Z" fill="#F3F3F7"/>
<path d="M79.7563 232.879L79.6896 233.048L79.7563 233.21L79.9204 233.277L80.087 233.21L80.1562 233.048L80.087 232.879L79.9204 232.812L79.7563 232.879Z" fill="#F3F3F7"/>
<path d="M203.154 387.634C201.81 388.975 201.069 390.765 201.069 392.673C201.069 394.57 201.81 396.36 203.154 397.708C204.5 399.055 206.289 399.793 208.189 399.793C210.092 399.793 211.879 399.055 213.225 397.708C214.571 396.36 215.312 394.57 215.312 392.673C215.312 390.765 214.571 388.975 213.225 387.634C211.879 386.288 210.092 385.547 208.189 385.547C206.289 385.547 204.5 386.288 203.154 387.634Z" fill="#F3F3F7"/>
<path d="M187.446 372.146C186.263 373.328 185.612 374.9 185.612 376.566C185.612 378.243 186.263 379.812 187.446 380.992C188.628 382.177 190.197 382.828 191.869 382.828C193.54 382.828 195.112 382.177 196.294 380.992C197.474 379.812 198.125 378.243 198.125 376.566C198.125 374.9 197.474 373.328 196.294 372.146C195.112 370.964 193.54 370.312 191.869 370.312C190.199 370.312 188.628 370.964 187.446 372.146Z" fill="#F3F3F7"/>
<path d="M172.706 357.017C171.711 358.017 171.162 359.341 171.162 360.751C171.162 362.164 171.711 363.484 172.706 364.484C173.706 365.479 175.032 366.028 176.442 366.028C177.85 366.028 179.175 365.479 180.173 364.484C181.17 363.484 181.719 362.164 181.719 360.751C181.719 359.341 181.17 358.017 180.173 357.017C179.175 356.025 177.85 355.469 176.442 355.469C175.032 355.469 173.706 356.025 172.706 357.017Z" fill="#F3F3F7"/>
<path d="M157.388 341.846C156.595 342.64 156.159 343.692 156.159 344.81C156.159 345.93 156.595 346.976 157.388 347.771C158.177 348.561 159.229 348.997 160.347 348.997C161.465 348.997 162.516 348.561 163.306 347.771C164.098 346.976 164.531 345.93 164.531 344.81C164.531 343.692 164.098 342.64 163.306 341.846C162.516 341.061 161.465 340.625 160.347 340.625C159.229 340.625 158.177 341.061 157.388 341.846Z" fill="#F3F3F7"/>
<path d="M142.251 326.656C141.69 327.217 141.38 327.966 141.38 328.761C141.38 329.558 141.69 330.309 142.251 330.868C142.816 331.433 143.564 331.743 144.362 331.743C145.159 331.743 145.905 331.433 146.469 330.868C147.033 330.309 147.344 329.558 147.344 328.761C147.344 327.963 147.033 327.217 146.469 326.656C145.905 326.092 145.159 325.781 144.362 325.781C143.564 325.781 142.818 326.092 142.251 326.656Z" fill="#F3F3F7"/>
<path d="M127.318 311.818C127 312.131 126.828 312.549 126.828 312.995C126.828 313.438 127 313.856 127.318 314.172C127.631 314.485 128.049 314.659 128.492 314.659C128.938 314.659 129.354 314.485 129.669 314.172C129.984 313.856 130.156 313.438 130.156 312.995C130.156 312.549 129.984 312.131 129.669 311.818C129.354 311.505 128.938 311.328 128.492 311.328C128.049 311.328 127.631 311.505 127.318 311.818Z" fill="#F3F3F7"/>
<path d="M111.788 296.556L111.721 296.72L111.788 296.884L111.954 296.954L112.121 296.884L112.188 296.72L112.121 296.556L111.954 296.484L111.788 296.556Z" fill="#F3F3F7"/>
<path d="M184.869 401.129C182.884 403.111 181.789 405.752 181.789 408.56C181.789 411.37 182.884 414.003 184.869 415.996C186.854 417.978 189.492 419.07 192.3 419.07C195.107 419.07 197.746 417.978 199.733 415.996C201.718 414.003 202.812 411.37 202.812 408.56C202.812 405.752 201.718 403.111 199.733 401.129C197.746 399.144 195.107 398.047 192.3 398.047C189.492 398.047 186.854 399.144 184.869 401.129Z" fill="#F3F3F7"/>
<path d="M169.106 385.391C167.191 387.306 166.137 389.848 166.137 392.56C166.137 395.265 167.191 397.812 169.106 399.724C171.022 401.637 173.565 402.691 176.273 402.691C178.978 402.691 181.524 401.637 183.437 399.724C185.35 397.812 186.406 395.265 186.406 392.56C186.406 389.848 185.35 387.306 183.437 385.391C181.524 383.478 178.978 382.422 176.273 382.422C173.565 382.422 171.022 383.478 169.106 385.391Z" fill="#F3F3F7"/>
<path d="M153.472 370.023C151.644 371.852 150.638 374.285 150.638 376.87C150.638 379.457 151.644 381.888 153.472 383.716C155.303 385.546 157.733 386.554 160.318 386.554C162.905 386.554 165.338 385.546 167.167 383.716C168.995 381.888 170 379.457 170 376.87C170 374.285 168.995 371.852 167.167 370.023C165.338 368.195 162.905 367.188 160.318 367.188C157.733 367.188 155.303 368.195 153.472 370.023Z" fill="#F3F3F7"/>
<path d="M137.966 354.242C136.237 355.973 135.283 358.273 135.283 360.719C135.283 363.163 136.237 365.462 137.966 367.193C139.696 368.919 141.994 369.873 144.44 369.873C146.883 369.873 149.183 368.919 150.914 367.193C152.642 365.462 153.594 363.163 153.594 360.719C153.594 358.273 152.642 355.973 150.914 354.242C149.183 352.519 146.883 351.562 144.44 351.562C141.994 351.568 139.696 352.519 137.966 354.242Z" fill="#F3F3F7"/>
<path d="M121.804 338.836C120.191 340.449 119.299 342.597 119.299 344.882C119.299 347.167 120.191 349.318 121.804 350.928C123.419 352.549 125.568 353.436 127.852 353.436C130.137 353.436 132.283 352.549 133.901 350.928C135.516 349.318 136.406 347.167 136.406 344.882C136.406 342.597 135.516 340.449 133.901 338.836C132.283 337.218 130.137 336.328 127.852 336.328C125.568 336.328 123.419 337.218 121.804 338.836Z" fill="#F3F3F7"/>
<path d="M106.554 323.401C105.067 324.886 104.249 326.868 104.249 328.968C104.249 331.071 105.067 333.05 106.554 334.537C108.044 336.025 110.021 336.842 112.123 336.842C114.228 336.842 116.205 336.025 117.692 334.537C119.179 333.05 120 331.071 120 328.968C120 326.868 119.179 324.886 117.692 323.401C116.205 321.914 114.228 321.094 112.123 321.094C110.021 321.094 108.044 321.914 106.554 323.401Z" fill="#F3F3F7"/>
<path d="M91.4373 307.949C90.0886 309.293 89.3501 311.077 89.3501 312.985C89.3501 314.888 90.0886 316.675 91.4373 318.018C92.7809 319.365 94.5707 320.108 96.4707 320.108C98.3758 320.108 100.16 319.365 101.509 318.018C102.853 316.675 103.594 314.888 103.594 312.985C103.594 311.077 102.853 309.293 101.509 307.949C100.16 306.6 98.3758 305.859 96.4707 305.859C94.5707 305.859 92.7809 306.6 91.4373 307.949Z" fill="#F3F3F7"/>
<path d="M75.7242 292.458C74.5421 293.64 73.8934 295.21 73.8934 296.884C73.8934 298.553 74.5421 300.125 75.7242 301.307C76.9062 302.489 78.4755 303.14 80.1473 303.14C81.8191 303.14 83.3909 302.489 84.5729 301.307C85.755 300.125 86.4062 298.553 86.4062 296.884C86.4062 295.21 85.755 293.64 84.5729 292.458C83.3909 291.276 81.8191 290.625 80.1473 290.625C78.4755 290.625 76.9062 291.276 75.7242 292.458Z" fill="#F3F3F7"/>
<path d="M60.2085 276.934C59.2111 277.929 58.6623 279.257 58.6623 280.665C58.6623 282.078 59.2111 283.403 60.2085 284.398C61.2059 285.398 62.529 285.944 63.9418 285.944C65.3495 285.944 66.6751 285.398 67.67 284.398C68.67 283.403 69.2188 282.078 69.2188 280.665C69.2188 279.257 68.6675 277.929 67.67 276.934C66.6751 275.937 65.3495 275.391 63.9418 275.391C62.529 275.391 61.2059 275.937 60.2085 276.934Z" fill="#F3F3F7"/>
<path d="M45.6664 261.778C44.874 262.562 44.4381 263.619 44.4381 264.737C44.4381 265.855 44.874 266.906 45.6664 267.693C46.4587 268.488 47.5074 268.924 48.6253 268.924C49.7433 268.924 50.7946 268.488 51.5869 267.693C52.3792 266.906 52.8125 265.849 52.8125 264.737C52.8125 263.619 52.3792 262.562 51.5869 261.778C50.7946 260.985 49.7433 260.547 48.6253 260.547C47.5074 260.547 46.4587 260.985 45.6664 261.778Z" fill="#F3F3F7"/>
<path d="M30.5353 246.966C29.9712 247.527 29.6635 248.278 29.6635 249.073C29.6635 249.873 29.9712 250.617 30.5353 251.184C31.0994 251.742 31.8481 252.058 32.6429 252.058C33.4404 252.058 34.1891 251.742 34.7506 251.184C35.3173 250.617 35.625 249.873 35.625 249.073C35.625 248.278 35.3173 247.527 34.7532 246.966C34.1891 246.401 33.4404 246.094 32.6429 246.094C31.8481 246.094 31.1019 246.401 30.5353 246.966Z" fill="#F3F3F7"/>
<path d="M14.8178 231.735C14.5024 232.047 14.3306 232.468 14.3306 232.909C14.3306 233.353 14.5024 233.773 14.8178 234.086C15.1332 234.399 15.5511 234.573 15.9947 234.573C16.4383 234.573 16.8537 234.399 17.1691 234.086C17.4844 233.773 17.6562 233.353 17.6562 232.909C17.6562 232.468 17.4844 232.047 17.1691 231.729C16.8537 231.422 16.4383 231.25 15.9947 231.25C15.5511 231.25 15.1332 231.422 14.8178 231.735Z" fill="#F3F3F7"/>
<path d="M0.071308 216.866L-0.000488281 217.03L0.071308 217.194L0.235402 217.264L0.402079 217.194L0.46875 217.03L0.402079 216.866L0.235402 216.797L0.071308 216.866Z" fill="#F3F3F7"/>
</svg>
