<svg width="600" height="600" viewBox="0 0 600 600" fill="none" xmlns="http://www.w3.org/2000/svg">
<path d="M211.934 267C211.934 253.875 222.663 243 235.839 243C249.016 243 259.934 253.687 259.934 267C259.934 280.312 249.204 291 235.839 291C222.663 291 211.934 280.312 211.934 267Z" fill="#F2002A"/>
<path d="M134 592C134 587.623 137.623 584 142 584C146.377 584 150 587.623 150 592C150 596.377 146.377 600 142 600C137.623 600 134 596.377 134 592Z" fill="#F2002A"/>
<path d="M42 459C42 457.889 42.8889 457 44 457C45.1111 457 46 457.889 46 459C46 460.111 45.1111 461 44 461C42.8889 460.926 42 460.111 42 459Z" fill="#F2002A"/>
<path d="M0 16.0001C0 7.11119 7.11101 0 15.9999 0C24.8888 0 32 7.11119 32 16.0001C32 24.889 24.8888 32 15.9999 32C7.11101 31.4074 0 24.889 0 16.0001Z" fill="#F2002A"/>
<path d="M584 130C584 125.556 587.556 122 592 122C596.444 122 600 125.556 600 130C600 134.444 596.444 138 592 138C587.556 137.704 584 134.444 584 130Z" fill="#F2002A"/>
<path d="M544.934 510C542.724 510 540.934 511.791 540.934 514C540.934 516.209 542.724 518 544.934 518C547.143 518 548.934 516.209 548.934 514C548.934 511.791 547.143 510 544.934 510Z" fill="#F2002A"/>
</svg>
