<svg width="600" height="600" viewBox="0 0 600 600" fill="none" xmlns="http://www.w3.org/2000/svg">
<path d="M388.066 267C388.066 253.875 377.337 243 364.161 243C350.984 243 340.066 253.687 340.066 267C340.066 280.312 350.796 291 364.161 291C377.337 291 388.066 280.312 388.066 267Z" fill="#F2002A"/>
<path d="M466 592C466 587.623 462.377 584 458 584C453.623 584 450 587.623 450 592C450 596.377 453.623 600 458 600C462.377 600 466 596.377 466 592Z" fill="#F2002A"/>
<path d="M558 459C558 457.889 557.111 457 556 457C554.889 457 554 457.889 554 459C554 460.111 554.889 461 556 461C557.111 460.926 558 460.111 558 459Z" fill="#F2002A"/>
<path d="M600 16.0001C600 7.11119 592.889 -1.90735e-06 584 -1.90735e-06C575.111 -1.90735e-06 568 7.11119 568 16.0001C568 24.889 575.111 32 584 32C592.889 31.4074 600 24.889 600 16.0001Z" fill="#F2002A"/>
<path d="M16 130C16 125.556 12.4444 122 8 122C3.55556 122 0 125.556 0 130C0 134.444 3.55556 138 8 138C12.4444 137.704 16 134.444 16 130Z" fill="#F2002A"/>
<path d="M55.0664 510C57.2755 510 59.0664 511.791 59.0664 514C59.0664 516.209 57.2755 518 55.0664 518C52.8573 518 51.0664 516.209 51.0664 514C51.0664 511.791 52.8573 510 55.0664 510Z" fill="#F2002A"/>
</svg>
