<svg width="345" height="420" viewBox="0 0 345 420" fill="none" xmlns="http://www.w3.org/2000/svg">
<path d="M19.2257 336.886C21.3513 339.017 22.5231 341.845 22.5231 344.853C22.5231 347.863 21.3513 350.689 19.2257 352.817C17.1 354.945 14.2718 356.119 11.2641 356.119C8.25385 356.119 5.42821 354.945 3.3 352.817C1.1718 350.689 0 347.863 0 344.853C0 341.845 1.1718 339.017 3.3 336.886C5.42821 334.758 8.25385 333.589 11.2641 333.594C14.2718 333.589 17.1 334.758 19.2257 336.886Z" fill="#373A52"/>
<path d="M35.5011 320.855C37.614 322.97 38.7781 325.781 38.7781 328.768C38.7781 331.76 37.614 334.568 35.5011 336.676C33.3883 338.793 30.5781 339.952 27.5909 339.952C24.6011 339.952 21.7934 338.793 19.678 336.676C17.5704 334.568 16.4062 331.76 16.4062 328.768C16.4062 325.781 17.5704 322.97 19.678 320.855C21.7934 318.742 24.6011 317.578 27.5909 317.578C30.5781 317.578 33.3883 318.742 35.5011 320.855Z" fill="#373A52"/>
<path d="M50.8723 305.189C52.9569 307.269 54.1056 310.04 54.1056 312.992C54.1056 315.938 52.9569 318.71 50.8723 320.794C48.7902 322.879 46.0184 324.027 43.0672 324.027C40.121 324.027 37.3492 322.879 35.2646 320.794C33.18 318.71 32.0312 315.938 32.0312 312.992C32.0312 310.04 33.18 307.269 35.2646 305.189C37.3492 303.102 40.121 301.953 43.0672 301.953C46.0184 301.953 48.7877 303.102 50.8723 305.189Z" fill="#373A52"/>
<path d="M66.8939 289.104C68.9375 291.148 70.0606 293.863 70.0606 296.75C70.0606 299.64 68.9375 302.355 66.8939 304.396C64.8503 306.435 62.1375 307.561 59.2478 307.561C56.3606 307.561 53.6452 306.435 51.6042 304.396C49.5606 302.355 48.4375 299.64 48.4375 296.75C48.4375 293.863 49.5606 291.148 51.6042 289.104C53.6452 287.063 56.3606 285.938 59.2478 285.938C62.1375 285.938 64.8503 287.063 66.8939 289.104Z" fill="#373A52"/>
<path d="M82.7874 273.387C84.772 275.374 85.8643 278.013 85.8643 280.818C85.8643 283.628 84.772 286.266 82.7874 288.248C80.8027 290.238 78.1617 291.33 75.354 291.33C72.5463 291.33 69.9079 290.238 67.9232 288.248C65.9386 286.266 64.8438 283.628 64.8438 280.818C64.8438 278.013 65.9386 275.374 67.9232 273.387C69.9079 271.402 72.5463 270.312 75.354 270.312C78.1617 270.312 80.8027 271.402 82.7874 273.387Z" fill="#373A52"/>
<path d="M98.55 257.657C100.463 259.567 101.517 262.113 101.517 264.821C101.517 267.526 100.463 270.072 98.55 271.982C96.6346 273.895 94.091 274.954 91.3833 274.954C88.6782 274.954 86.1321 273.895 84.2167 271.982C82.3038 270.072 81.25 267.526 81.25 264.821C81.25 262.113 82.3038 259.567 84.2167 257.657C86.1321 255.741 88.6782 254.688 91.3833 254.688C94.091 254.688 96.6346 255.741 98.55 257.657Z" fill="#373A52"/>
<path d="M114.182 241.896C116.013 243.724 117.02 246.157 117.02 248.742C117.02 251.327 116.013 253.76 114.184 255.588C112.356 257.416 109.923 258.427 107.336 258.424C104.751 258.424 102.32 257.416 100.492 255.588C98.6639 253.76 97.6562 251.327 97.6562 248.742C97.6562 246.157 98.6639 243.724 100.492 241.896C102.32 240.07 104.751 239.062 107.336 239.062C109.923 239.062 112.356 240.07 114.182 241.896Z" fill="#373A52"/>
<path d="M129.691 226.508C131.421 228.236 132.373 230.538 132.373 232.979C132.373 235.428 131.421 237.726 129.691 239.454C127.963 241.185 125.665 242.136 123.216 242.136C120.773 242.136 118.473 241.185 116.745 239.454C115.016 237.726 114.062 235.428 114.062 232.979C114.062 230.538 115.016 228.236 116.745 226.508C118.473 224.777 120.773 223.828 123.216 223.828C125.665 223.828 127.963 224.777 129.691 226.508Z" fill="#373A52"/>
<path d="M145.071 210.706C146.684 212.324 147.574 214.475 147.574 216.757C147.574 219.039 146.684 221.185 145.071 222.803C143.453 224.418 141.305 225.311 139.023 225.311C136.738 225.311 134.589 224.418 132.974 222.803C131.358 221.185 130.469 219.039 130.469 216.757C130.469 214.475 131.358 212.324 132.974 210.706C134.589 209.093 136.738 208.203 139.023 208.203C141.305 208.203 143.453 209.093 145.071 210.706Z" fill="#373A52"/>
<path d="M160.319 195.274C161.806 196.758 162.624 198.738 162.624 200.843C162.624 202.946 161.806 204.923 160.319 206.41C158.831 207.902 156.854 208.715 154.749 208.715C152.647 208.715 150.667 207.902 149.183 206.41C147.696 204.923 146.875 202.946 146.875 200.843C146.875 198.738 147.696 196.758 149.183 195.274C150.667 193.787 152.647 192.969 154.749 192.969C156.854 192.969 158.831 193.787 160.319 195.274Z" fill="#373A52"/>
<path d="M176.219 179.822C177.565 181.165 178.306 182.955 178.306 184.857C178.306 186.76 177.565 188.55 176.219 189.893C174.875 191.239 173.086 191.981 171.183 191.981C169.28 191.981 167.493 191.239 166.147 189.893C164.801 188.55 164.062 186.76 164.062 184.857C164.062 182.955 164.801 181.165 166.147 179.822C167.493 178.475 169.28 177.734 171.183 177.734C173.086 177.734 174.875 178.475 176.219 179.822Z" fill="#373A52"/>
<path d="M191.148 164.724C192.33 165.903 192.982 167.475 192.982 169.147C192.982 170.819 192.33 172.391 191.148 173.57C189.966 174.752 188.397 175.403 186.723 175.403C185.053 175.403 183.482 174.752 182.302 173.57C181.117 172.391 180.469 170.819 180.469 169.147C180.469 167.475 181.117 165.903 182.302 164.724C183.482 163.542 185.053 162.891 186.723 162.891C188.397 162.891 189.966 163.542 191.148 164.724Z" fill="#373A52"/>
<path d="M206.667 149.202C207.664 150.2 208.213 151.525 208.213 152.933C208.213 154.343 207.664 155.669 206.667 156.666C205.669 157.664 204.343 158.213 202.936 158.213C201.525 158.213 200.2 157.664 199.202 156.666C198.208 155.669 197.656 154.343 197.656 152.933C197.656 151.525 198.208 150.2 199.202 149.202C200.2 148.205 201.525 147.656 202.936 147.656C204.343 147.656 205.669 148.205 206.667 149.202Z" fill="#373A52"/>
<path d="M221.99 134.038C222.78 134.828 223.216 135.879 223.216 137C223.216 138.115 222.78 139.166 221.99 139.959C221.2 140.748 220.149 141.184 219.028 141.184C217.91 141.184 216.862 140.748 216.072 139.956C215.28 139.166 214.844 138.115 214.844 137C214.844 135.879 215.28 134.828 216.072 134.038C216.862 133.248 217.91 132.812 219.028 132.812C220.149 132.812 221.2 133.248 221.99 134.038Z" fill="#373A52"/>
<path d="M237.118 118.841C237.683 119.405 237.993 120.153 237.993 120.951C237.993 121.746 237.683 122.494 237.118 123.058C236.557 123.62 235.808 123.933 235.011 123.933C234.216 123.933 233.467 123.62 232.903 123.058C232.342 122.494 232.031 121.746 232.031 120.948C232.031 120.153 232.342 119.405 232.903 118.841C233.467 118.279 234.216 117.969 235.011 117.969C235.808 117.969 236.557 118.279 237.118 118.841Z" fill="#373A52"/>
<path d="M252.057 104.003C252.373 104.318 252.544 104.734 252.544 105.18C252.544 105.623 252.373 106.041 252.057 106.357C251.744 106.669 251.326 106.844 250.88 106.844C250.437 106.844 250.019 106.669 249.706 106.357C249.391 106.041 249.219 105.623 249.219 105.18C249.219 104.734 249.391 104.318 249.706 104.003C250.019 103.69 250.437 103.516 250.88 103.516C251.326 103.516 251.744 103.69 252.057 104.003Z" fill="#373A52"/>
<path d="M266.806 88.7437L266.873 88.9078L266.806 89.0719L266.64 89.1411L266.475 89.0719L266.406 88.9078L266.475 88.7437L266.64 88.6719L266.806 88.7437Z" fill="#373A52"/>
<path d="M19.2377 305.122C21.2787 307.163 22.4018 309.879 22.4018 312.769C22.4018 315.656 21.2787 318.371 19.2377 320.41C17.1941 322.453 14.4813 323.579 11.5941 323.579C8.7069 323.579 5.98895 322.453 3.94792 320.41C1.90689 318.371 0.78125 315.656 0.78125 312.769C0.78125 309.879 1.90689 307.163 3.94792 305.122C5.98895 303.079 8.7069 301.953 11.5941 301.953C14.4813 301.953 17.1941 303.079 19.2377 305.122Z" fill="#373A52"/>
<path d="M34.3447 289.41C36.3293 291.392 37.4217 294.033 37.4217 296.841C37.4217 299.646 36.3293 302.285 34.3447 304.274C32.3601 306.256 29.7216 307.349 26.914 307.349C24.1063 307.349 21.4652 306.256 19.4806 304.274C17.4986 302.285 16.4062 299.646 16.4062 296.841C16.4062 294.033 17.4986 291.392 19.4806 289.41C21.4652 287.42 24.1063 286.328 26.914 286.328C29.7216 286.328 32.3601 287.42 34.3447 289.41Z" fill="#373A52"/>
<path d="M50.1125 273.672C52.0279 275.585 53.0817 278.129 53.0817 280.836C53.0817 283.547 52.0279 286.09 50.1125 288.001C48.1997 289.919 45.6535 290.975 42.9458 290.975C40.2407 290.975 37.6946 289.919 35.7817 288.001C33.8689 286.09 32.8125 283.547 32.8125 280.836C32.8125 278.129 33.8689 275.585 35.7817 273.672C37.6946 271.76 40.2407 270.703 42.9458 270.703C45.6535 270.703 48.1997 271.76 50.1125 273.672Z" fill="#373A52"/>
<path d="M65.7495 257.919C67.5752 259.747 68.5829 262.176 68.5829 264.765C68.5829 267.353 67.5777 269.781 65.7495 271.609C63.9213 273.437 61.488 274.445 58.9034 274.445C56.3162 274.445 53.8854 273.437 52.0546 271.609C50.2264 269.781 49.2188 267.347 49.2188 264.765C49.2188 262.176 50.2264 259.747 52.0546 257.919C53.8854 256.088 56.3162 255.078 58.9034 255.078C61.488 255.078 63.9213 256.088 65.7495 257.919Z" fill="#373A52"/>
<path d="M82.0345 242.528C83.7627 244.259 84.714 246.554 84.714 249C84.714 251.446 83.7627 253.746 82.0345 255.475C80.3063 257.205 78.0063 258.157 75.5601 258.157C73.1139 258.157 70.8165 257.205 69.0883 255.475C67.3575 253.744 66.4062 251.446 66.4062 249C66.4062 246.554 67.3575 244.259 69.0883 242.528C70.8165 240.798 73.1139 239.844 75.5601 239.844C78.0063 239.844 80.3063 240.798 82.0345 242.528Z" fill="#373A52"/>
<path d="M97.4125 226.729C99.0279 228.342 99.9176 230.488 99.9176 232.773C99.9176 235.06 99.0279 237.209 97.4125 238.821C95.7971 240.439 93.6484 241.324 91.3638 241.324C89.0792 241.324 86.9304 240.439 85.3176 238.821C83.7022 237.209 82.8125 235.06 82.8125 232.773C82.8125 230.488 83.7022 228.342 85.3176 226.729C86.9304 225.111 89.0792 224.219 91.3638 224.219C93.6484 224.219 95.7971 225.111 97.4125 226.729Z" fill="#373A52"/>
<path d="M112.665 211.295C114.152 212.777 114.97 214.754 114.97 216.859C114.97 218.964 114.152 220.936 112.665 222.428C111.178 223.915 109.201 224.736 107.093 224.736C104.993 224.736 103.016 223.915 101.526 222.428C100.039 220.936 99.2188 218.964 99.2188 216.859C99.2188 214.754 100.039 212.777 101.526 211.295C103.016 209.802 104.993 208.984 107.093 208.984C109.201 208.984 111.178 209.802 112.665 211.295Z" fill="#373A52"/>
<path d="M127.784 195.837C129.128 197.183 129.869 198.971 129.869 200.873C129.869 202.778 129.128 204.565 127.784 205.912C126.438 207.255 124.651 207.996 122.748 207.996C120.846 207.996 119.056 207.255 117.71 205.912C116.366 204.565 115.625 202.773 115.625 200.873C115.625 198.971 116.366 197.183 117.71 195.837C119.056 194.491 120.846 193.75 122.746 193.75C124.651 193.75 126.438 194.491 127.784 195.837Z" fill="#373A52"/>
<path d="M143.495 180.349C144.674 181.531 145.328 183.1 145.328 184.772C145.328 186.444 144.674 188.013 143.495 189.195C142.313 190.377 140.741 191.028 139.071 191.028C137.4 191.028 135.828 190.377 134.646 189.195C133.464 188.013 132.812 186.444 132.812 184.772C132.812 183.1 133.464 181.531 134.646 180.349C135.828 179.167 137.4 178.516 139.071 178.516C140.741 178.516 142.313 179.167 143.495 180.349Z" fill="#373A52"/>
<path d="M159.01 165.218C160.008 166.213 160.554 167.541 160.554 168.949C160.554 170.359 160.008 171.685 159.01 172.68C158.013 173.677 156.687 174.226 155.277 174.226C153.867 174.226 152.544 173.677 151.546 172.68C150.549 171.685 150 170.359 150 168.949C150 167.541 150.549 166.213 151.546 165.218C152.544 164.221 153.867 163.672 155.277 163.672C156.687 163.672 158.013 164.221 159.01 165.218Z" fill="#373A52"/>
<path d="M174.331 150.054C175.123 150.844 175.559 151.895 175.559 153.013C175.559 154.131 175.123 155.185 174.331 155.974C173.541 156.764 172.49 157.2 171.372 157.2C170.254 157.2 169.203 156.764 168.413 155.972C167.621 155.185 167.188 154.131 167.188 153.013C167.188 151.895 167.621 150.844 168.413 150.054C169.203 149.264 170.254 148.828 171.372 148.828C172.49 148.828 173.541 149.264 174.331 150.054Z" fill="#373A52"/>
<path d="M189.465 134.859C190.026 135.423 190.339 136.172 190.339 136.969C190.339 137.764 190.026 138.513 189.465 139.074C188.903 139.638 188.154 139.948 187.354 139.948C186.56 139.948 185.811 139.638 185.249 139.074C184.685 138.513 184.375 137.764 184.375 136.969C184.375 136.172 184.685 135.423 185.249 134.859C185.811 134.297 186.56 133.984 187.354 133.984C188.154 133.984 188.903 134.297 189.465 134.859Z" fill="#373A52"/>
<path d="M204.401 120.018C204.716 120.331 204.891 120.749 204.891 121.195C204.891 121.639 204.716 122.057 204.401 122.372C204.088 122.685 203.67 122.857 203.227 122.857C202.783 122.857 202.362 122.685 202.05 122.372C201.734 122.057 201.562 121.639 201.562 121.195C201.562 120.749 201.734 120.331 202.05 120.018C202.362 119.703 202.783 119.531 203.227 119.531C203.67 119.531 204.088 119.703 204.401 120.018Z" fill="#373A52"/>
<path d="M219.15 104.757L219.219 104.923L219.15 105.088L218.983 105.157L218.819 105.088L218.75 104.923L218.819 104.757L218.983 104.688L219.15 104.757Z" fill="#373A52"/>
<path d="M18.8385 273.153C20.9231 275.24 22.0744 278.009 22.0744 280.955C22.0744 283.904 20.9231 286.673 18.841 288.765C16.759 290.845 13.9872 291.994 11.0385 291.994C8.08975 291.994 5.31795 290.845 3.23334 288.765C1.14872 286.673 0 283.904 0 280.955C0 278.009 1.14872 275.24 3.23334 273.153C5.31795 271.065 8.08975 269.922 11.0385 269.922C13.9872 269.922 16.759 271.065 18.8385 273.153Z" fill="#373A52"/>
<path d="M34.8601 257.075C36.9037 259.114 38.0268 261.832 38.0268 264.722C38.0268 267.609 36.9037 270.322 34.8601 272.363C32.8165 274.406 30.1037 275.532 27.2165 275.532C24.3293 275.532 21.6139 274.406 19.5729 272.363C17.5319 270.322 16.4062 267.609 16.4062 264.722C16.4062 261.832 17.5319 259.114 19.5729 257.075C21.6139 255.032 24.3293 253.906 27.2165 253.906C30.1037 253.906 32.8165 255.032 34.8601 257.075Z" fill="#373A52"/>
<path d="M50.7535 241.361C52.7382 243.343 53.8305 245.986 53.8305 248.792C53.8305 251.597 52.7382 254.238 50.7535 256.227C48.7689 258.209 46.1279 259.304 43.3202 259.304C40.5151 259.304 37.8766 258.209 35.8894 256.227C33.9048 254.238 32.8125 251.597 32.8125 248.792C32.8125 245.986 33.9048 243.343 35.8894 241.361C37.8766 239.379 40.5151 238.281 43.3202 238.281C46.1279 238.281 48.7689 239.379 50.7535 241.361Z" fill="#373A52"/>
<path d="M66.5162 225.625C68.429 227.538 69.4829 230.084 69.4829 232.79C69.4829 235.502 68.429 238.041 66.5162 239.959C64.6034 241.872 62.0572 242.923 59.3521 242.923C56.6444 242.923 54.1008 241.872 52.1854 239.959C50.27 238.041 49.2188 235.502 49.2188 232.79C49.2188 230.084 50.27 227.538 52.1854 225.625C54.1008 223.713 56.6444 222.656 59.3521 222.656C62.0572 222.656 64.6034 223.713 66.5162 225.625Z" fill="#373A52"/>
<path d="M82.1507 210.26C83.9789 212.089 84.9866 214.522 84.9866 217.106C84.9866 219.691 83.9789 222.124 82.1507 223.953C80.3225 225.778 77.8917 226.789 75.3045 226.789C72.7199 226.789 70.2891 225.778 68.4583 223.953C66.6301 222.124 65.6224 219.691 65.625 217.106C65.6224 214.522 66.6301 212.089 68.4583 210.26C70.2865 208.432 72.7199 207.422 75.3045 207.422C77.8917 207.422 80.3225 208.432 82.1507 210.26Z" fill="#373A52"/>
<path d="M97.6569 194.479C99.3877 196.21 100.339 198.507 100.339 200.953C100.339 203.397 99.3877 205.699 97.6569 207.425C95.9287 209.153 93.6313 210.107 91.1851 210.107C88.739 210.107 86.4415 209.153 84.7133 207.425C82.9825 205.699 82.0313 203.397 82.0313 200.953C82.0287 198.507 82.9825 196.21 84.7133 194.479C86.4415 192.751 88.739 191.797 91.1851 191.797C93.6313 191.797 95.9287 192.751 97.6569 194.479Z" fill="#373A52"/>
<path d="M113.038 179.068C114.653 180.683 115.543 182.832 115.543 185.116C115.543 187.401 114.653 189.547 113.038 191.163C111.422 192.78 109.276 193.668 106.989 193.668C104.707 193.668 102.558 192.78 100.943 191.163C99.3272 189.547 98.4375 187.401 98.4375 185.116C98.4375 182.832 99.3272 180.683 100.943 179.068C102.558 177.452 104.707 176.562 106.989 176.562C109.276 176.562 111.422 177.452 113.038 179.068Z" fill="#373A52"/>
<path d="M129.066 163.243C130.556 164.732 131.374 166.707 131.374 168.812C131.374 170.917 130.556 172.894 129.066 174.379C127.581 175.868 125.602 176.686 123.499 176.686C121.397 176.686 119.417 175.868 117.928 174.379C116.443 172.894 115.625 170.917 115.625 168.812C115.625 166.707 116.443 164.732 117.928 163.243C119.417 161.755 121.397 160.938 123.497 160.938C125.602 160.938 127.581 161.755 129.066 163.243Z" fill="#373A52"/>
<path d="M144.19 147.788C145.534 149.134 146.275 150.921 146.275 152.824C146.275 154.729 145.534 156.516 144.19 157.86C142.844 159.206 141.057 159.947 139.154 159.947C137.252 159.947 135.462 159.206 134.118 157.86C132.77 156.516 132.031 154.726 132.031 152.824C132.031 150.921 132.77 149.134 134.118 147.788C135.462 146.444 137.252 145.703 139.154 145.703C141.057 145.703 142.844 146.444 144.19 147.788Z" fill="#373A52"/>
<path d="M159.898 132.69C161.08 133.872 161.729 135.444 161.729 137.116C161.729 138.785 161.08 140.357 159.898 141.539C158.716 142.721 157.147 143.37 155.473 143.37C153.801 143.37 152.232 142.721 151.05 141.539C149.867 140.357 149.219 138.785 149.219 137.116C149.219 135.444 149.867 133.872 151.05 132.69C152.232 131.511 153.801 130.859 155.473 130.859C157.147 130.859 158.716 131.511 159.898 132.69Z" fill="#373A52"/>
<path d="M174.635 117.171C175.63 118.169 176.179 119.494 176.179 120.904C176.179 122.312 175.63 123.64 174.635 124.635C173.638 125.633 172.312 126.181 170.902 126.181C169.494 126.181 168.169 125.633 167.171 124.635C166.174 123.64 165.625 122.312 165.625 120.902C165.625 119.494 166.174 118.169 167.171 117.171C168.169 116.174 169.494 115.625 170.902 115.625C172.312 115.625 173.638 116.174 174.635 117.171Z" fill="#373A52"/>
<path d="M189.961 102.007C190.751 102.799 191.187 103.85 191.187 104.968C191.187 106.086 190.751 107.138 189.961 107.927C189.169 108.72 188.118 109.156 187 109.156C185.882 109.156 184.83 108.717 184.041 107.927C183.248 107.138 182.812 106.086 182.812 104.968C182.812 103.85 183.248 102.799 184.041 102.007C184.83 101.217 185.882 100.781 186.997 100.781C188.118 100.781 189.169 101.217 189.961 102.007Z" fill="#373A52"/>
<path d="M205.09 86.8093C205.651 87.3708 205.962 88.1221 205.962 88.917C205.962 89.7144 205.654 90.4631 205.09 91.0247C204.528 91.5888 203.777 91.899 202.982 91.899C202.185 91.899 201.436 91.5888 200.874 91.0247C200.31 90.4631 200 89.7119 200 88.917C200 88.1196 200.31 87.3708 200.874 86.8093C201.436 86.2452 202.185 85.9375 202.982 85.9375C203.777 85.9375 204.528 86.2452 205.09 86.8093Z" fill="#373A52"/>
<path d="M220.026 71.9716C220.341 72.2844 220.513 72.7049 220.513 73.1485C220.513 73.5946 220.341 74.01 220.029 74.3254C219.713 74.6382 219.295 74.8126 218.849 74.8126C218.405 74.8126 217.988 74.6382 217.675 74.3254C217.359 74.01 217.188 73.5946 217.188 73.1485C217.188 72.7049 217.359 72.2844 217.675 71.9716C217.988 71.6587 218.405 71.4844 218.849 71.4844C219.295 71.4844 219.713 71.6587 220.026 71.9716Z" fill="#373A52"/>
<path d="M235.556 57.103L235.623 57.2646L235.556 57.4287L235.39 57.4979L235.225 57.4287L235.156 57.2646L235.225 57.103L235.39 57.0312L235.556 57.103Z" fill="#373A52"/>
<path d="M16.566 179.261C18.0558 180.748 18.8712 182.725 18.8712 184.83C18.8712 186.935 18.0558 188.912 16.566 190.397C15.0814 191.884 13.1019 192.704 10.9994 192.704C8.8968 192.704 6.91731 191.884 5.43013 190.397C3.94295 188.91 3.125 186.935 3.125 184.83C3.125 182.725 3.94295 180.748 5.43013 179.261C6.91731 177.774 8.8968 176.953 10.9994 176.953C13.1019 176.953 15.0814 177.774 16.566 179.261Z" fill="#373A52"/>
<path d="M32.4715 163.803C33.8176 165.147 34.5587 166.937 34.5587 168.839C34.5587 170.742 33.8176 172.532 32.4715 173.875C31.1253 175.221 29.3381 175.962 27.4356 175.962C25.533 175.962 23.7433 175.221 22.3997 173.875C21.0535 172.532 20.3125 170.742 20.3125 168.839C20.3125 166.937 21.0535 165.147 22.3997 163.803C23.7433 162.46 25.533 161.719 27.4356 161.719C29.3381 161.719 31.1253 162.46 32.4715 163.803Z" fill="#373A52"/>
<path d="M47.3982 148.706C48.5803 149.888 49.229 151.457 49.229 153.129C49.229 154.801 48.5803 156.372 47.3982 157.555C46.2162 158.734 44.647 159.385 42.9726 159.385C41.3034 159.385 39.7316 158.734 38.5495 157.555C37.3675 156.372 36.7188 154.801 36.7188 153.129C36.7188 151.457 37.3675 149.888 38.5495 148.706C39.7316 147.524 41.3034 146.875 42.9726 146.875C44.647 146.875 46.2162 147.524 47.3982 148.706Z" fill="#373A52"/>
<path d="M62.9165 133.187C63.9114 134.184 64.4627 135.51 64.4627 136.92C64.4627 138.328 63.9114 139.653 62.9165 140.651C61.9191 141.646 60.5934 142.197 59.1857 142.197C57.7755 142.197 56.4473 141.646 55.4524 140.651C54.455 139.653 53.9062 138.328 53.9062 136.918C53.9062 135.51 54.455 134.184 55.4524 133.187C56.4473 132.189 57.7755 131.641 59.1832 131.641C60.5934 131.641 61.9191 132.189 62.9165 133.187Z" fill="#373A52"/>
<path d="M78.2399 118.023C79.0297 118.815 79.4656 119.866 79.4656 120.981C79.4656 122.102 79.0297 123.153 78.2399 123.943C77.4476 124.735 76.3989 125.169 75.2784 125.169C74.1604 125.169 73.1091 124.735 72.3194 123.943C71.5271 123.153 71.0938 122.102 71.0938 120.981C71.0938 119.866 71.5271 118.815 72.3194 118.023C73.1091 117.233 74.1604 116.797 75.2784 116.797C76.3989 116.797 77.4476 117.233 78.2399 118.023Z" fill="#373A52"/>
<path d="M93.371 102.825C93.9351 103.389 94.2454 104.14 94.2454 104.935C94.2454 105.733 93.9351 106.479 93.371 107.043C92.8095 107.607 92.0607 107.917 91.2633 107.917C90.4659 107.917 89.7172 107.607 89.1556 107.04C88.5941 106.479 88.2812 105.73 88.2812 104.935C88.2812 104.14 88.5941 103.389 89.1556 102.825C89.7172 102.266 90.4659 101.953 91.2633 101.953C92.0607 101.953 92.8095 102.266 93.371 102.825Z" fill="#373A52"/>
<path d="M108.31 87.9872C108.623 88.3 108.797 88.7205 108.797 89.1641C108.797 89.6103 108.623 90.0257 108.31 90.3385C107.994 90.6564 107.576 90.8282 107.13 90.8282C106.689 90.8282 106.269 90.6564 105.956 90.3385C105.643 90.0257 105.469 89.6103 105.469 89.1641C105.469 88.7205 105.643 88.3 105.956 87.9872C106.269 87.6718 106.689 87.5 107.13 87.5C107.576 87.5 107.994 87.6718 108.31 87.9872Z" fill="#373A52"/>
<path d="M123.054 72.726L123.123 72.8901L123.054 73.0567L122.89 73.1234L122.723 73.0542L122.656 72.8901L122.723 72.726L122.887 72.6567L123.054 72.726Z" fill="#373A52"/>
<path d="M16.9463 147.036C18.5617 148.649 19.4489 150.798 19.4489 153.083C19.4489 155.37 18.5617 157.516 16.9463 159.131C15.3284 160.747 13.1822 161.636 10.8976 161.634C8.61299 161.634 6.46427 160.747 4.84888 159.131C3.23349 157.516 2.34375 155.37 2.34375 153.083C2.34375 150.798 3.23349 148.649 4.84888 147.036C6.46427 145.418 8.61299 144.531 10.8976 144.531C13.1822 144.531 15.3284 145.421 16.9463 147.036Z" fill="#373A52"/>
<path d="M32.9749 131.605C34.4646 133.092 35.2825 135.069 35.2825 137.171C35.2825 139.276 34.4646 141.253 32.9749 142.74C31.4877 144.228 29.5107 145.048 27.4082 145.048C25.3056 145.048 23.3287 144.228 21.8389 142.74C20.3518 141.253 19.5312 139.276 19.5312 137.171C19.5312 135.069 20.3518 133.092 21.8389 131.605C23.3287 130.117 25.3056 129.297 27.4082 129.297C29.5107 129.297 31.4877 130.117 32.9749 131.605Z" fill="#373A52"/>
<path d="M48.0965 116.147C49.4426 117.493 50.1811 119.283 50.1811 121.183C50.1811 123.086 49.4426 124.878 48.0965 126.219C46.7503 127.565 44.9606 128.306 43.058 128.306C41.158 128.306 39.3683 127.565 38.0221 126.219C36.676 124.878 35.9375 123.086 35.9375 121.183C35.9375 119.283 36.676 117.493 38.0221 116.147C39.3683 114.804 41.158 114.062 43.058 114.062C44.9606 114.062 46.7503 114.804 48.0965 116.147Z" fill="#373A52"/>
<path d="M63.8071 100.659C64.9865 101.841 65.6404 103.413 65.6404 105.085C65.6404 106.756 64.9865 108.326 63.8071 109.508C62.6224 110.69 61.0558 111.341 59.3814 111.341C57.7122 111.341 56.1404 110.69 54.9609 109.508C53.7763 108.326 53.125 106.756 53.125 105.085C53.125 103.413 53.7763 101.841 54.9609 100.659C56.1404 99.4794 57.7122 98.8281 59.3814 98.8281C61.0558 98.8281 62.6224 99.4794 63.8071 100.659Z" fill="#373A52"/>
<path d="M78.5415 85.1404C79.5364 86.1353 80.0851 87.4609 80.0851 88.8712C80.0851 90.2814 79.539 91.6071 78.5415 92.6019C77.5441 93.6019 76.2184 94.1481 74.8082 94.1481C73.4005 94.1481 72.0723 93.6019 71.0774 92.6019C70.08 91.6071 69.5312 90.2814 69.5312 88.8712C69.5312 87.4609 70.08 86.1353 71.0774 85.1404C72.0723 84.143 73.4005 83.5942 74.8082 83.5942C76.2184 83.5942 77.5441 84.143 78.5415 85.1404Z" fill="#373A52"/>
<path d="M93.8623 69.9756C94.6521 70.7654 95.0906 71.8167 95.0906 72.9346C95.0906 74.0526 94.6521 75.1038 93.8623 75.8936C93.0726 76.6859 92.0213 77.1192 90.9034 77.1192C89.7854 77.1192 88.7341 76.6859 87.9444 75.8936C87.1521 75.1038 86.7188 74.0526 86.7188 72.9346C86.7188 71.8167 87.1521 70.7654 87.9444 69.9756C88.7341 69.1833 89.7854 68.75 90.9034 68.75C92.0213 68.75 93.0726 69.1833 93.8623 69.9756Z" fill="#373A52"/>
<path d="M108.996 55.1712C109.56 55.7328 109.87 56.4841 109.87 57.2789C109.87 58.0764 109.56 58.8251 108.996 59.3866C108.432 59.9507 107.683 60.261 106.886 60.261C106.091 60.261 105.342 59.9507 104.781 59.3866C104.217 58.8251 103.906 58.0764 103.906 57.2789C103.906 56.4841 104.217 55.7328 104.781 55.1712C105.342 54.6097 106.091 54.2969 106.886 54.2969C107.683 54.2969 108.432 54.6097 108.996 55.1712Z" fill="#373A52"/>
<path d="M123.932 39.9403C124.248 40.2531 124.422 40.6711 124.422 41.1147C124.422 41.5608 124.248 41.9788 123.932 42.2942C123.619 42.607 123.201 42.7788 122.758 42.7788C122.312 42.7788 121.894 42.607 121.581 42.2942C121.266 41.9788 121.094 41.5608 121.094 41.1147C121.094 40.6711 121.266 40.2531 121.581 39.9403C121.894 39.6249 122.312 39.4531 122.755 39.4531C123.201 39.4531 123.619 39.6249 123.932 39.9403Z" fill="#373A52"/>
<path d="M139.463 25.0718L139.532 25.2359L139.463 25.4L139.298 25.4692L139.132 25.4L139.062 25.2359L139.132 25.0718L139.298 25L139.463 25.0718Z" fill="#373A52"/>
<path d="M19.0949 113.045C21.2103 115.155 22.3718 117.966 22.3718 120.953C22.3718 123.943 21.2103 126.753 19.0949 128.866C16.9846 130.978 14.1744 132.143 11.1872 132.143C8.19744 132.143 5.38975 130.978 3.27436 128.866C1.1641 126.753 0 123.943 0 120.953C0 117.966 1.1641 115.155 3.27436 113.045C5.38975 110.93 8.19744 109.766 11.1872 109.766C14.1744 109.766 16.9846 110.93 19.0949 113.045Z" fill="#373A52"/>
<path d="M35.2422 97.3714C37.3268 99.456 38.4755 102.228 38.4755 105.177C38.4755 108.125 37.3268 110.894 35.2447 112.979C33.1601 115.066 30.3883 116.212 27.4396 116.212C24.4909 116.212 21.7191 115.066 19.6319 112.979C17.5524 110.894 16.4062 108.125 16.4062 105.177C16.4062 102.228 17.5524 99.456 19.6319 97.3714C21.7191 95.2868 24.4909 94.1406 27.4396 94.1406C30.3883 94.1406 33.1575 95.2868 35.2422 97.3714Z" fill="#373A52"/>
<path d="M50.4877 81.2917C52.5287 83.3353 53.6544 86.0506 53.6544 88.9378C53.6544 91.825 52.5287 94.5404 50.4877 96.5814C48.4467 98.625 45.7313 99.7506 42.8415 99.7506C39.9569 99.7506 37.2415 98.625 35.1979 96.5814C33.1569 94.5404 32.0312 91.825 32.0312 88.9378C32.0312 86.0506 33.1569 83.3353 35.1979 81.2917C37.2415 79.2506 39.9569 78.125 42.8415 78.125C45.7313 78.125 48.4467 79.2506 50.4877 81.2917Z" fill="#373A52"/>
<path d="M66.3785 65.5769C68.3657 67.5641 69.4555 70.2026 69.4555 73.0077C69.4555 75.818 68.3657 78.4564 66.3785 80.441C64.3939 82.4282 61.7529 83.5205 58.9452 83.5205C56.1375 83.5205 53.499 82.4282 51.5144 80.441C49.5298 78.4564 48.4375 75.818 48.4375 73.0077C48.4375 70.2026 49.5298 67.5641 51.5144 65.5769C53.499 63.5949 56.1375 62.5 58.9452 62.5C61.7529 62.5 64.3939 63.5949 66.3785 65.5769Z" fill="#373A52"/>
<path d="M82.1438 49.8442C84.0566 51.7571 85.1104 54.3032 85.1104 57.0083C85.1104 59.716 84.0566 62.2596 82.1438 64.175C80.2284 66.0878 77.6848 67.1442 74.9771 67.1442C72.2694 67.1442 69.7258 66.0878 67.813 64.175C65.8976 62.2596 64.8438 59.716 64.8438 57.0083C64.8438 54.3032 65.8976 51.7571 67.813 49.8442C69.7258 47.9288 72.2694 46.875 74.9771 46.875C77.6848 46.875 80.2284 47.9288 82.1438 49.8442Z" fill="#373A52"/>
<path d="M97.7757 34.0833C99.6039 35.9141 100.612 38.3449 100.612 40.9295C100.612 43.5167 99.6039 45.9474 97.7757 47.7756C95.9474 49.6038 93.5167 50.6115 90.9295 50.6115C88.3449 50.6115 85.9115 49.6038 84.0833 47.7756C82.2551 45.9474 81.2474 43.5167 81.25 40.9295C81.2474 38.3449 82.2551 35.9141 84.0833 34.0833C85.9115 32.2551 88.3449 31.2474 90.9295 31.25C93.5167 31.2474 95.9474 32.2551 97.7757 34.0833Z" fill="#373A52"/>
<path d="M113.282 18.6977C115.013 20.4259 115.964 22.7259 115.964 25.172C115.964 27.6182 115.013 29.9156 113.282 31.6439C111.554 33.3721 109.256 34.3259 106.808 34.3259C104.364 34.3259 102.067 33.3721 100.338 31.6439C98.6075 29.9156 97.6562 27.6182 97.6562 25.172C97.6562 22.7259 98.6075 20.4259 100.338 18.6977C102.067 16.9669 104.364 16.0156 106.808 16.0156C109.256 16.0156 111.554 16.9669 113.282 18.6977Z" fill="#373A52"/>
<path d="M129.446 3.28638C131.059 4.90177 131.949 7.05049 131.949 9.33254C131.949 11.6197 131.059 13.7659 129.446 15.3813C127.828 16.9967 125.682 17.8864 123.395 17.8864C121.113 17.8864 118.964 16.9967 117.349 15.3813C115.733 13.7659 114.844 11.6197 114.844 9.33254C114.844 7.05049 115.733 4.90177 117.349 3.28638C118.964 1.67099 121.113 0.78125 123.395 0.78125C125.682 0.78125 127.828 1.67099 129.446 3.28638Z" fill="#373A52"/>
<path d="M18.0907 82.1302C19.9164 83.961 20.9241 86.3917 20.9241 88.9789C20.9241 91.5661 19.9164 93.9969 18.0907 95.8251C16.2625 97.6533 13.8317 98.661 11.2446 98.661C8.65738 98.661 6.22661 97.6533 4.39584 95.8251C2.57019 93.9969 1.5625 91.5661 1.5625 88.9789C1.5625 86.3917 2.57019 83.961 4.39584 82.1302C6.22661 80.3046 8.65738 79.2969 11.2446 79.2969C13.8317 79.2969 16.2625 80.3046 18.0907 82.1302Z" fill="#373A52"/>
<path d="M33.5944 66.742C35.3252 68.4728 36.2765 70.7702 36.2765 73.2138C36.2765 75.6625 35.3252 77.9599 33.5944 79.6907C31.8662 81.4189 29.5662 82.3702 27.1226 82.3702C24.6764 82.3702 22.3764 81.4189 20.6482 79.6907C18.9226 77.9599 17.9688 75.6625 17.9688 73.2138C17.9688 70.7702 18.9226 68.4728 20.6482 66.742C22.3764 65.0138 24.6764 64.0625 27.1226 64.0625C29.5662 64.0625 31.8662 65.0138 33.5944 66.742Z" fill="#373A52"/>
<path d="M48.975 50.9426C50.5904 52.5555 51.4801 54.7042 51.4801 56.9888C51.4801 59.276 50.5904 61.4221 48.975 63.0375C47.3596 64.6529 45.2109 65.5426 42.9263 65.5426C40.6417 65.5426 38.4955 64.6529 36.8801 63.0375C35.2647 61.4221 34.375 59.276 34.375 56.9888C34.375 54.7042 35.2647 52.5555 36.8801 50.9426C38.4955 49.3272 40.6417 48.4375 42.9263 48.4375C45.2109 48.4375 47.3596 49.3272 48.975 50.9426Z" fill="#373A52"/>
<path d="M65.0061 35.5108C66.4933 36.998 67.3112 38.9749 67.3112 41.0775C67.3112 43.1826 66.4933 45.1595 65.0061 46.6467C63.5189 48.1365 61.542 48.9519 59.4394 48.9519C57.3343 48.9519 55.3574 48.1365 53.8676 46.6467C52.3804 45.1595 51.5625 43.1826 51.5625 41.0775C51.5625 38.9749 52.3804 36.998 53.8676 35.5108C55.3574 34.0236 57.3343 33.2031 59.4369 33.2031C61.542 33.2031 63.5189 34.0236 65.0061 35.5108Z" fill="#373A52"/>
<path d="M80.1252 20.0559C81.4713 21.3995 82.2124 23.1893 82.2124 25.0918C82.2124 26.9944 81.4713 28.7816 80.1252 30.1277C78.7816 31.4713 76.9918 32.2124 75.0893 32.2124C73.1867 32.2124 71.3995 31.4713 70.0534 30.1277C68.7072 28.7816 67.9688 26.9918 67.9688 25.0918C67.9688 23.1893 68.7072 21.3995 70.0534 20.0559C71.3995 18.7098 73.1867 17.9688 75.0893 17.9688C76.9918 17.9688 78.7816 18.7098 80.1252 20.0559Z" fill="#373A52"/>
<path d="M95.8357 4.56771C97.0152 5.7472 97.6665 7.31899 97.6665 8.99079C97.6665 10.6626 97.0152 12.2318 95.8357 13.4139C94.6537 14.5959 93.0819 15.2472 91.4101 15.2446C89.7383 15.2472 88.1665 14.5959 86.987 13.4139C85.8024 12.2318 85.1562 10.6626 85.1562 8.99079C85.1562 7.31899 85.8024 5.7472 86.987 4.56771C88.1665 3.38566 89.7383 2.73438 91.4101 2.73438C93.0819 2.73438 94.6537 3.38566 95.8357 4.56771Z" fill="#373A52"/>
<path d="M31.7733 36.5964C32.9527 37.7785 33.6066 39.3477 33.6066 41.0195C33.6066 42.6913 32.9527 44.2631 31.7733 45.4451C30.5912 46.6272 29.022 47.2785 27.3502 47.2785C25.6784 47.2785 24.1066 46.6272 22.9245 45.4426C21.7425 44.2631 21.0912 42.6913 21.0938 41.0195C21.0938 39.3477 21.7425 37.7785 22.9245 36.5964C24.1066 35.4169 25.6784 34.7656 27.3502 34.7656C29.0194 34.7656 30.5912 35.4169 31.7733 36.5964Z" fill="#373A52"/>
<path d="M47.289 21.4655C48.289 22.4629 48.8351 23.7885 48.8351 25.1988C48.8351 26.6065 48.289 27.9347 47.289 28.9296C46.2941 29.9245 44.971 30.4757 43.5582 30.4757C42.1505 30.4757 40.8248 29.9245 39.8274 28.9296C38.83 27.9347 38.2812 26.6065 38.2812 25.1988C38.2812 23.7885 38.83 22.4629 39.8274 21.4655C40.8248 20.468 42.1505 19.9219 43.5582 19.9219C44.971 19.9219 46.2941 20.468 47.289 21.4655Z" fill="#373A52"/>
<path d="M18.0907 18.4583C19.9164 20.2891 20.9241 22.7199 20.9241 25.3071C20.9241 27.8917 19.9164 30.325 18.0907 32.1532C16.2625 33.9814 13.8317 34.9891 11.2446 34.9891C8.65738 34.9891 6.22661 33.9814 4.39584 32.1532C2.57019 30.325 1.5625 27.8917 1.5625 25.3071C1.5625 22.7199 2.57019 20.2891 4.39584 18.4583C6.22661 16.6301 8.65738 15.625 11.2446 15.625C13.8317 15.625 16.2625 16.6301 18.0907 18.4583Z" fill="#373A52"/>
<path d="M33.5944 2.68205C35.3252 4.41282 36.2765 6.71026 36.2765 9.15385C36.2765 11.6 35.3252 13.9 33.5944 15.6282C31.8662 17.359 29.5662 18.3103 27.1226 18.3103C24.6764 18.3103 22.3764 17.359 20.6482 15.6282C18.9226 13.9 17.9688 11.6 17.9688 9.15385C17.9688 6.71026 18.9226 4.41282 20.6482 2.68205C22.3764 0.953846 24.6764 0 27.1226 0C29.5662 0.0025641 31.8662 0.953846 33.5944 2.68205Z" fill="#373A52"/>
<path d="M16.566 243.323C18.0558 244.811 18.8712 246.787 18.8712 248.89C18.8712 250.995 18.0558 252.972 16.566 254.459C15.0814 255.946 13.1019 256.767 10.9994 256.767C8.8968 256.767 6.91731 255.946 5.43013 254.459C3.94295 252.972 3.125 250.995 3.125 248.89C3.125 246.787 3.94295 244.811 5.43013 243.323C6.91731 241.834 8.8968 241.016 10.9994 241.016C13.1019 241.016 15.0814 241.834 16.566 243.323Z" fill="#373A52"/>
<path d="M32.4715 227.863C33.8176 229.209 34.5587 230.999 34.5587 232.899C34.5587 234.802 33.8176 236.586 32.4715 237.935C31.1253 239.281 29.3381 240.02 27.4356 240.02C25.533 240.02 23.7433 239.281 22.3997 237.935C21.0535 236.586 20.3125 234.802 20.3125 232.899C20.3125 230.999 21.0535 229.209 22.3997 227.863C23.7433 226.517 25.533 225.781 27.4356 225.781C29.3381 225.781 31.1253 226.517 32.4715 227.863Z" fill="#373A52"/>
<path d="M47.3982 212.38C48.5803 213.562 49.229 215.134 49.229 216.803C49.229 218.473 48.5803 220.047 47.3982 221.226C46.2162 222.411 44.647 223.057 42.9726 223.057C41.3034 223.057 39.7316 222.411 38.5495 221.226C37.3675 220.047 36.7188 218.473 36.7188 216.803C36.7188 215.134 37.3675 213.562 38.5495 212.38C39.7316 211.201 41.3034 210.547 42.9726 210.547C44.647 210.547 46.2162 211.201 47.3982 212.38Z" fill="#373A52"/>
<path d="M62.9165 197.252C63.9114 198.244 64.4627 199.572 64.4627 200.983C64.4627 202.39 63.914 203.719 62.9165 204.716C61.9191 205.711 60.5934 206.26 59.1857 206.26C57.7755 206.26 56.4473 205.711 55.4524 204.716C54.455 203.719 53.9062 202.39 53.9062 200.983C53.9062 199.572 54.455 198.244 55.4524 197.252C56.4473 196.254 57.7755 195.703 59.1857 195.703C60.5934 195.703 61.9191 196.254 62.9165 197.252Z" fill="#373A52"/>
<path d="M78.2399 182.085C79.0297 182.877 79.4656 183.929 79.4656 185.047C79.4656 186.165 79.0297 187.216 78.2399 188.006C77.4476 188.798 76.3989 189.231 75.2784 189.231C74.1604 189.231 73.1091 188.798 72.3194 188.006C71.5271 187.216 71.0938 186.165 71.0938 185.047C71.0938 183.929 71.5271 182.877 72.3194 182.085C73.1091 181.295 74.1604 180.859 75.2784 180.859C76.3989 180.859 77.4476 181.295 78.2399 182.085Z" fill="#373A52"/>
<path d="M93.371 166.89C93.9351 167.452 94.2454 168.203 94.2454 168.998C94.2454 169.795 93.9351 170.544 93.371 171.105C92.8095 171.669 92.0607 171.98 91.2633 171.98C90.4659 171.98 89.7172 171.669 89.1556 171.105C88.5941 170.544 88.2812 169.793 88.2812 168.998C88.2812 168.2 88.5941 167.452 89.1556 166.89C89.7172 166.326 90.4659 166.016 91.2633 166.016C92.0607 166.016 92.8095 166.326 93.371 166.89Z" fill="#373A52"/>
<path d="M108.31 151.659C108.623 151.974 108.797 152.392 108.797 152.836C108.797 153.282 108.623 153.698 108.31 154.013C107.994 154.328 107.579 154.5 107.13 154.5C106.689 154.5 106.269 154.328 105.956 154.013C105.643 153.698 105.469 153.282 105.469 152.836C105.469 152.392 105.643 151.974 105.956 151.659C106.269 151.346 106.689 151.172 107.13 151.172C107.576 151.172 107.994 151.346 108.31 151.659Z" fill="#373A52"/>
<path d="M123.054 136.791L123.123 136.955L123.054 137.119L122.89 137.185L122.723 137.119L122.656 136.955L122.723 136.791L122.89 136.719L123.054 136.791Z" fill="#373A52"/>
<path d="M30.5837 198.106C31.3734 198.893 31.8093 199.944 31.8093 201.062C31.8093 202.178 31.3734 203.229 30.5837 204.021C29.7939 204.813 28.7426 205.247 27.6247 205.247C26.5042 205.247 25.4555 204.813 24.6657 204.021C23.8734 203.229 23.4375 202.178 23.4375 201.062C23.4375 199.944 23.8734 198.893 24.6657 198.106C25.4555 197.313 26.5042 196.875 27.6247 196.875C28.7426 196.875 29.7939 197.313 30.5837 198.106Z" fill="#373A52"/>
<path d="M45.7147 182.906C46.2763 183.467 46.5865 184.218 46.5891 185.013C46.5891 185.808 46.2763 186.557 45.7147 187.121C45.1506 187.685 44.4019 187.995 43.6045 187.995C42.8096 187.995 42.0609 187.685 41.4968 187.121C40.9353 186.557 40.625 185.808 40.625 185.013C40.625 184.218 40.9353 183.467 41.4968 182.906C42.0609 182.342 42.8096 182.031 43.6045 182.031C44.4019 182.031 45.1506 182.342 45.7147 182.906Z" fill="#373A52"/>
<path d="M60.651 167.675C60.9663 167.99 61.1407 168.408 61.1407 168.852C61.1407 169.295 60.9663 169.716 60.651 170.029C60.3381 170.344 59.9202 170.516 59.4766 170.516C59.0304 170.516 58.6125 170.344 58.2997 170.029C57.9843 169.716 57.8125 169.295 57.8125 168.852C57.8125 168.408 57.9843 167.99 58.2997 167.675C58.6125 167.362 59.0304 167.188 59.474 167.188C59.9202 167.188 60.3381 167.362 60.651 167.675Z" fill="#373A52"/>
<path d="M75.3974 152.804L75.4667 152.968L75.3974 153.134L75.2333 153.201L75.0692 153.132L75 152.968L75.0692 152.804L75.2333 152.734L75.3974 152.804Z" fill="#373A52"/>
<path d="M18.7249 369.478C20.7069 371.468 21.7992 374.109 21.7992 376.911C21.7992 379.719 20.7069 382.36 18.7249 384.345C16.7377 386.332 14.0992 387.424 11.2915 387.424C8.48382 387.424 5.84536 386.332 3.85818 384.345C1.87612 382.36 0.78125 379.719 0.78125 376.911C0.78125 374.109 1.87612 371.468 3.85818 369.478C5.84536 367.496 8.48382 366.406 11.2915 366.406C14.0992 366.406 16.7377 367.496 18.7249 369.478Z" fill="#373A52"/>
<path d="M34.485 353.748C36.3978 355.658 37.4516 358.207 37.4516 360.912C37.4516 363.62 36.3978 366.163 34.485 368.079C32.5696 369.992 30.0234 371.043 27.3183 371.043C24.6106 371.043 22.0644 369.992 20.1516 368.079C18.2413 366.163 17.1875 363.62 17.1875 360.912C17.1875 358.207 18.2413 355.658 20.1516 353.748C22.0644 351.83 24.6106 350.781 27.3183 350.781C30.0234 350.781 32.5696 351.83 34.485 353.748Z" fill="#373A52"/>
<path d="M50.122 337.99C51.9502 339.82 52.9579 342.254 52.9579 344.838C52.9579 347.423 51.9502 349.856 50.122 351.684C48.2938 353.513 45.863 354.52 43.2758 354.52C40.6886 354.52 38.2579 353.513 36.4271 351.684C34.5989 349.856 33.5938 347.423 33.5938 344.838C33.5938 342.254 34.5989 339.82 36.4271 337.99C38.2579 336.166 40.6886 335.156 43.2758 335.156C45.863 335.156 48.2938 336.166 50.122 337.99Z" fill="#373A52"/>
<path d="M65.6282 322.211C67.3564 323.934 68.3103 326.239 68.3103 328.683C68.3103 331.129 67.3564 333.429 65.6282 335.157C63.9 336.888 61.6026 337.839 59.1564 337.839C56.7103 337.839 54.4128 336.888 52.6821 335.157C50.9513 333.429 50 331.129 50 328.683C50 326.239 50.9513 323.934 52.6821 322.211C54.4128 320.48 56.7103 319.531 59.1564 319.531C61.6026 319.531 63.9 320.48 65.6282 322.211Z" fill="#373A52"/>
<path d="M81.0063 306.797C82.6216 308.415 83.5114 310.564 83.5114 312.848C83.5114 315.13 82.6216 317.276 81.0063 318.894C79.3909 320.51 77.2422 321.402 74.9575 321.402C72.6729 321.402 70.5268 320.51 68.9114 318.894C67.296 317.276 66.4062 315.13 66.4062 312.848C66.4062 310.564 67.296 308.415 68.9114 306.797C70.5268 305.184 72.6729 304.297 74.9575 304.297C77.2422 304.297 79.3909 305.184 81.0063 306.797Z" fill="#373A52"/>
<path d="M97.0374 291.368C98.5245 292.855 99.3425 294.834 99.3425 296.939C99.3425 299.039 98.5245 301.019 97.0374 302.504C95.5502 303.991 93.5707 304.814 91.4681 304.814C89.3655 304.814 87.3886 303.991 85.8989 302.504C84.4143 301.019 83.5938 299.039 83.5938 296.939C83.5938 294.834 84.4143 292.855 85.8989 291.368C87.3886 289.883 89.3655 289.062 91.4681 289.062C93.5707 289.062 95.5502 289.883 97.0374 291.368Z" fill="#373A52"/>
<path d="M112.156 275.91C113.503 277.256 114.244 279.049 114.244 280.946C114.244 282.849 113.503 284.636 112.156 285.985C110.81 287.328 109.023 288.069 107.118 288.069C105.218 288.069 103.428 287.328 102.085 285.985C100.738 284.636 100 282.849 100 280.946C100 279.049 100.738 277.256 102.085 275.91C103.428 274.564 105.218 273.828 107.118 273.828C109.023 273.828 110.81 274.564 112.156 275.91Z" fill="#373A52"/>
<path d="M127.867 260.427C129.046 261.612 129.7 263.181 129.7 264.853C129.7 266.519 129.046 268.091 127.867 269.271C126.685 270.453 125.116 271.104 123.444 271.104C121.772 271.104 120.2 270.453 119.021 269.271C117.836 268.091 117.188 266.519 117.188 264.853C117.188 263.181 117.836 261.612 119.021 260.427C120.2 259.245 121.772 258.594 123.444 258.594C125.116 258.594 126.685 259.245 127.867 260.427Z" fill="#373A52"/>
<path d="M142.604 245.296C143.601 246.291 144.15 247.619 144.15 249.027C144.15 250.435 143.601 251.763 142.604 252.763C141.607 253.755 140.284 254.304 138.873 254.304C137.463 254.304 136.137 253.755 135.14 252.763C134.145 251.763 133.594 250.435 133.594 249.027C133.594 247.619 134.145 246.291 135.14 245.296C136.137 244.299 137.463 243.75 138.873 243.75C140.284 243.75 141.607 244.299 142.604 245.296Z" fill="#373A52"/>
<path d="M157.927 230.129C158.717 230.922 159.153 231.97 159.153 233.088C159.153 234.211 158.717 235.26 157.927 236.052C157.138 236.84 156.084 237.278 154.966 237.278C153.848 237.278 152.799 236.84 152.007 236.052C151.217 235.26 150.781 234.211 150.781 233.088C150.781 231.97 151.217 230.922 152.007 230.129C152.799 229.342 153.848 228.906 154.966 228.906C156.084 228.906 157.138 229.342 157.927 230.129Z" fill="#373A52"/>
<path d="M173.059 214.934C173.623 215.501 173.933 216.245 173.933 217.045C173.933 217.839 173.623 218.586 173.059 219.155C172.497 219.716 171.748 220.027 170.953 220.027C170.156 220.027 169.407 219.716 168.843 219.155C168.282 218.586 167.969 217.839 167.969 217.045C167.969 216.245 168.282 215.501 168.843 214.934C169.407 214.37 170.156 214.062 170.951 214.062C171.748 214.062 172.497 214.37 173.059 214.934Z" fill="#373A52"/>
<path d="M187.997 199.708C188.313 200.021 188.484 200.439 188.484 200.883C188.484 201.326 188.313 201.747 187.997 202.06C187.682 202.375 187.267 202.55 186.82 202.55C186.377 202.55 185.956 202.375 185.643 202.06C185.331 201.747 185.156 201.326 185.156 200.883C185.156 200.439 185.331 200.021 185.643 199.708C185.956 199.393 186.377 199.219 186.82 199.219C187.267 199.219 187.682 199.393 187.997 199.708Z" fill="#373A52"/>
<path d="M203.522 184.835L203.592 185.002L203.522 185.166L203.358 185.235L203.192 185.166L203.125 185.002L203.192 184.835L203.358 184.766L203.522 184.835Z" fill="#373A52"/>
<path d="M78.9095 386.273C80.6377 388.004 81.5915 390.307 81.5915 392.753C81.5915 395.194 80.6377 397.496 78.9095 399.222C77.1813 400.953 74.8838 401.904 72.4351 401.904C69.9915 401.904 67.6915 400.953 65.9633 399.222C64.2325 397.491 63.2812 395.194 63.2812 392.753C63.2812 390.307 64.2325 388.004 65.9633 386.273C67.6915 384.543 69.9915 383.594 72.4351 383.594C74.8813 383.594 77.1813 384.543 78.9095 386.273Z" fill="#373A52"/>
<path d="M94.2901 370.867C95.9055 372.48 96.7952 374.629 96.7952 376.911C96.7952 379.2 95.9055 381.347 94.2901 382.959C92.6747 384.577 90.526 385.464 88.2414 385.464C85.9593 385.464 83.8106 384.577 82.1952 382.959C80.5798 381.347 79.6875 379.2 79.6875 376.911C79.6875 374.629 80.5798 372.48 82.1952 370.867C83.8106 369.249 85.9593 368.359 88.2414 368.359C90.526 368.359 92.6747 369.249 94.2901 370.867Z" fill="#373A52"/>
<path d="M109.537 355.04C111.025 356.527 111.845 358.501 111.845 360.606C111.845 362.711 111.025 364.686 109.537 366.178C108.05 367.665 106.071 368.483 103.968 368.483C101.866 368.483 99.8861 367.665 98.3989 366.178C96.9117 364.686 96.0938 362.711 96.0938 360.606C96.0938 358.501 96.9117 356.527 98.3989 355.04C99.8861 353.55 101.866 352.734 103.968 352.734C106.071 352.734 108.05 353.55 109.537 355.04Z" fill="#373A52"/>
<path d="M125.44 339.587C126.786 340.933 127.527 342.718 127.527 344.621C127.527 346.521 126.786 348.315 125.44 349.659C124.097 351.005 122.307 351.746 120.404 351.746C118.502 351.746 116.715 351.005 115.368 349.659C114.022 348.315 113.281 346.521 113.281 344.621C113.281 342.718 114.022 340.933 115.368 339.587C116.715 338.238 118.502 337.5 120.404 337.5C122.307 337.5 124.097 338.238 125.44 339.587Z" fill="#373A52"/>
<path d="M140.367 324.487C141.549 325.672 142.2 327.243 142.2 328.913C142.2 330.584 141.549 332.159 140.367 333.338C139.185 334.52 137.616 335.169 135.944 335.169C134.272 335.169 132.7 334.52 131.521 333.338C130.339 332.159 129.688 330.584 129.688 328.913C129.688 327.243 130.339 325.672 131.518 324.487C132.7 323.308 134.272 322.656 135.944 322.656C137.616 322.656 139.185 323.308 140.367 324.487Z" fill="#373A52"/>
<path d="M155.885 308.965C156.88 309.963 157.431 311.286 157.431 312.699C157.431 314.106 156.883 315.43 155.885 316.432C154.888 317.422 153.562 317.978 152.154 317.978C150.744 317.978 149.419 317.422 148.421 316.432C147.424 315.43 146.875 314.106 146.875 312.699C146.875 311.286 147.424 309.963 148.421 308.965C149.419 307.971 150.744 307.422 152.154 307.422C153.562 307.422 154.888 307.971 155.885 308.965Z" fill="#373A52"/>
<path d="M171.209 293.809C171.998 294.596 172.434 295.647 172.434 296.765C172.434 297.883 171.998 298.935 171.209 299.724C170.416 300.517 169.368 300.95 168.247 300.95C167.129 300.95 166.078 300.517 165.288 299.724C164.498 298.935 164.062 297.883 164.062 296.765C164.062 295.647 164.498 294.596 165.288 293.809C166.078 293.014 167.129 292.578 168.247 292.578C169.368 292.578 170.416 293.014 171.209 293.809Z" fill="#373A52"/>
<path d="M186.34 278.609C186.904 279.168 187.212 279.919 187.212 280.716C187.212 281.506 186.904 282.257 186.34 282.822C185.778 283.386 185.029 283.693 184.232 283.693C183.437 283.693 182.688 283.386 182.124 282.822C181.56 282.257 181.25 281.506 181.25 280.711C181.25 279.919 181.56 279.168 182.124 278.609C182.688 278.042 183.437 277.734 184.232 277.734C185.029 277.734 185.778 278.042 186.34 278.609Z" fill="#373A52"/>
<path d="M201.279 263.768C201.591 264.084 201.766 264.499 201.766 264.948C201.766 265.392 201.591 265.809 201.279 266.122C200.963 266.438 200.548 266.612 200.102 266.612C199.655 266.612 199.24 266.438 198.925 266.122C198.612 265.809 198.438 265.392 198.438 264.948C198.438 264.499 198.612 264.084 198.925 263.768C199.24 263.456 199.655 263.281 200.102 263.281C200.545 263.281 200.963 263.456 201.279 263.768Z" fill="#373A52"/>
<path d="M216.022 248.897L216.092 249.059L216.022 249.226L215.858 249.297L215.694 249.226L215.625 249.059L215.694 248.897L215.858 248.828L216.022 248.897Z" fill="#373A52"/>
<path d="M95.425 401.407C97.3378 403.32 98.3917 405.866 98.3917 408.571C98.3917 411.279 97.3378 413.822 95.425 415.735C93.5096 417.65 90.966 418.704 88.2583 418.704C85.5532 418.704 83.0071 417.65 81.0917 415.735C79.1788 413.822 78.125 411.279 78.125 408.571C78.125 405.866 79.1788 403.32 81.0917 401.407C83.0071 399.494 85.5532 398.438 88.2583 398.438C90.966 398.438 93.5096 399.494 95.425 401.407Z" fill="#373A52"/>
<path d="M111.059 386.039C112.888 387.872 113.895 390.298 113.895 392.89C113.895 395.47 112.888 397.906 111.059 399.736C109.231 401.562 106.8 402.567 104.213 402.567C101.629 402.567 99.1954 401.562 97.3671 399.736C95.5389 397.906 94.5312 395.47 94.5312 392.89C94.5312 390.298 95.5389 387.872 97.3671 386.039C99.1954 384.213 101.629 383.203 104.213 383.203C106.8 383.203 109.231 384.213 111.059 386.039Z" fill="#373A52"/>
<path d="M126.563 370.263C128.294 371.988 129.248 374.288 129.248 376.732C129.248 379.178 128.294 381.478 126.563 383.209C124.835 384.937 122.538 385.891 120.091 385.891C117.645 385.891 115.348 384.937 113.617 383.209C111.889 381.478 110.938 379.178 110.938 376.732C110.935 374.288 111.889 371.988 113.617 370.263C115.348 368.532 117.645 367.578 120.091 367.578C122.535 367.578 124.835 368.532 126.563 370.263Z" fill="#373A52"/>
<path d="M141.946 354.849C143.559 356.467 144.449 358.613 144.449 360.898C144.449 363.18 143.559 365.328 141.946 366.946C140.328 368.559 138.182 369.449 135.898 369.449C133.613 369.449 131.467 368.559 129.849 366.946C128.233 365.328 127.344 363.18 127.344 360.898C127.344 358.613 128.233 356.467 129.849 354.849C131.467 353.236 133.613 352.344 135.898 352.344C138.182 352.344 140.328 353.236 141.946 354.849Z" fill="#373A52"/>
<path d="M157.972 339.026C159.462 340.511 160.28 342.491 160.28 344.593C160.28 346.696 159.462 348.675 157.972 350.16C156.485 351.644 154.508 352.47 152.406 352.47C150.3 352.47 148.324 351.644 146.836 350.16C145.349 348.675 144.531 346.696 144.531 344.593C144.531 342.491 145.347 340.511 146.836 339.026C148.324 337.537 150.3 336.719 152.406 336.719C154.508 336.719 156.485 337.537 157.972 339.026Z" fill="#373A52"/>
<path d="M173.094 323.564C174.443 324.913 175.181 326.702 175.181 328.602C175.181 330.505 174.443 332.295 173.094 333.638C171.75 334.984 169.961 335.723 168.058 335.723C166.155 335.723 164.371 334.984 163.022 333.638C161.679 332.295 160.938 330.505 160.938 328.602C160.938 326.702 161.679 324.913 163.022 323.564C164.371 322.22 166.155 321.484 168.058 321.484C169.961 321.484 171.75 322.22 173.094 323.564Z" fill="#373A52"/>
<path d="M188.804 308.474C189.987 309.656 190.638 311.228 190.638 312.897C190.638 314.566 189.987 316.138 188.804 317.32C187.625 318.505 186.053 319.151 184.381 319.151C182.712 319.151 181.14 318.505 179.958 317.318C178.776 316.138 178.125 314.566 178.125 312.897C178.125 311.228 178.776 309.656 179.958 308.474C181.14 307.292 182.712 306.641 184.381 306.641C186.053 306.641 187.625 307.292 188.804 308.474Z" fill="#373A52"/>
<path d="M203.542 292.952C204.536 293.95 205.088 295.273 205.088 296.686C205.088 298.093 204.536 299.422 203.542 300.416C202.544 301.411 201.218 301.96 199.808 301.96C198.398 301.96 197.072 301.411 196.077 300.416C195.08 299.422 194.531 298.093 194.531 296.686C194.531 295.273 195.08 293.95 196.077 292.952C197.072 291.955 198.398 291.406 199.808 291.406C201.218 291.406 202.544 291.955 203.542 292.952Z" fill="#373A52"/>
<path d="M218.865 277.786C219.657 278.578 220.093 279.627 220.093 280.745C220.093 281.865 219.657 282.914 218.865 283.709C218.073 284.496 217.024 284.932 215.906 284.932C214.788 284.932 213.737 284.496 212.944 283.709C212.155 282.914 211.719 281.865 211.719 280.745C211.719 279.627 212.155 278.578 212.944 277.786C213.737 276.998 214.788 276.562 215.906 276.562C217.024 276.562 218.073 276.998 218.865 277.786Z" fill="#373A52"/>
<path d="M233.996 262.596C234.56 263.16 234.868 263.903 234.868 264.703C234.868 265.498 234.56 266.25 233.996 266.811C233.432 267.375 232.683 267.683 231.888 267.683C231.093 267.683 230.345 267.375 229.778 266.811C229.216 266.25 228.906 265.498 228.906 264.703C228.906 263.903 229.216 263.16 229.778 262.596C230.345 262.029 231.093 261.719 231.888 261.719C232.683 261.719 233.432 262.029 233.996 262.596Z" fill="#373A52"/>
<path d="M248.932 247.755C249.248 248.068 249.419 248.489 249.419 248.93C249.419 249.378 249.248 249.794 248.932 250.109C248.619 250.422 248.201 250.596 247.758 250.596C247.312 250.596 246.896 250.422 246.581 250.109C246.266 249.794 246.094 249.378 246.094 248.93C246.094 248.489 246.266 248.068 246.581 247.755C246.896 247.443 247.312 247.266 247.758 247.266C248.201 247.266 248.619 247.443 248.932 247.755Z" fill="#373A52"/>
<path d="M264.462 232.879L264.529 233.048L264.462 233.21L264.298 233.277L264.132 233.21L264.062 233.048L264.132 232.879L264.298 232.812L264.462 232.879Z" fill="#373A52"/>
<path d="M141.065 387.634C142.409 388.975 143.15 390.765 143.15 392.673C143.15 394.57 142.409 396.36 141.065 397.708C139.719 399.055 137.929 399.793 136.029 399.793C134.127 399.793 132.34 399.055 130.993 397.708C129.647 396.36 128.906 394.57 128.906 392.673C128.906 390.765 129.647 388.975 130.993 387.634C132.34 386.288 134.127 385.547 136.029 385.547C137.929 385.547 139.719 386.288 141.065 387.634Z" fill="#373A52"/>
<path d="M156.773 372.146C157.955 373.328 158.607 374.9 158.607 376.566C158.607 378.243 157.955 379.812 156.773 380.992C155.591 382.177 154.022 382.828 152.35 382.828C150.678 382.828 149.107 382.177 147.925 380.992C146.745 379.812 146.094 378.243 146.094 376.566C146.094 374.9 146.745 373.328 147.925 372.146C149.107 370.964 150.678 370.312 152.35 370.312C154.019 370.312 155.591 370.964 156.773 372.146Z" fill="#373A52"/>
<path d="M171.513 357.017C172.508 358.017 173.056 359.341 173.056 360.751C173.056 362.164 172.508 363.484 171.513 364.484C170.513 365.479 169.187 366.028 167.777 366.028C166.369 366.028 165.044 365.479 164.046 364.484C163.049 363.484 162.5 362.164 162.5 360.751C162.5 359.341 163.049 358.017 164.046 357.017C165.044 356.025 166.369 355.469 167.777 355.469C169.187 355.469 170.513 356.025 171.513 357.017Z" fill="#373A52"/>
<path d="M186.831 341.846C187.623 342.64 188.059 343.692 188.059 344.81C188.059 345.93 187.623 346.976 186.831 347.771C186.041 348.561 184.99 348.997 183.872 348.997C182.754 348.997 181.703 348.561 180.913 347.771C180.121 346.976 179.688 345.93 179.688 344.81C179.688 343.692 180.121 342.64 180.913 341.846C181.703 341.061 182.754 340.625 183.872 340.625C184.99 340.625 186.041 341.061 186.831 341.846Z" fill="#373A52"/>
<path d="M201.967 326.656C202.529 327.217 202.839 327.966 202.839 328.761C202.839 329.558 202.529 330.309 201.967 330.868C201.403 331.433 200.654 331.743 199.857 331.743C199.06 331.743 198.313 331.433 197.749 330.868C197.185 330.309 196.875 329.558 196.875 328.761C196.875 327.963 197.185 327.217 197.749 326.656C198.313 326.092 199.06 325.781 199.857 325.781C200.654 325.781 201.401 326.092 201.967 326.656Z" fill="#373A52"/>
<path d="M216.901 311.818C217.219 312.131 217.391 312.549 217.391 312.995C217.391 313.438 217.219 313.856 216.901 314.172C216.588 314.485 216.17 314.659 215.727 314.659C215.28 314.659 214.865 314.485 214.55 314.172C214.234 313.856 214.062 313.438 214.062 312.995C214.062 312.549 214.234 312.131 214.55 311.818C214.865 311.505 215.28 311.328 215.727 311.328C216.17 311.328 216.588 311.505 216.901 311.818Z" fill="#373A52"/>
<path d="M232.431 296.556L232.498 296.72L232.431 296.884L232.265 296.954L232.098 296.884L232.031 296.72L232.098 296.556L232.265 296.484L232.431 296.556Z" fill="#373A52"/>
<path d="M159.35 401.129C161.334 403.111 162.429 405.752 162.429 408.56C162.429 411.37 161.334 414.003 159.35 415.996C157.365 417.978 154.727 419.07 151.919 419.07C149.111 419.07 146.473 417.978 144.486 415.996C142.501 414.003 141.406 411.37 141.406 408.56C141.406 405.752 142.501 403.111 144.486 401.129C146.473 399.144 149.111 398.047 151.919 398.047C154.727 398.047 157.365 399.144 159.35 401.129Z" fill="#373A52"/>
<path d="M175.113 385.391C177.028 387.306 178.082 389.848 178.082 392.56C178.082 395.265 177.028 397.812 175.113 399.724C173.197 401.637 170.654 402.691 167.946 402.691C165.241 402.691 162.695 401.637 160.782 399.724C158.869 397.812 157.812 395.265 157.812 392.56C157.812 389.848 158.869 387.306 160.782 385.391C162.695 383.478 165.241 382.422 167.946 382.422C170.654 382.422 173.197 383.478 175.113 385.391Z" fill="#373A52"/>
<path d="M190.747 370.023C192.575 371.852 193.58 374.285 193.58 376.87C193.58 379.457 192.575 381.888 190.747 383.716C188.916 385.546 186.485 386.554 183.901 386.554C181.314 386.554 178.88 385.546 177.052 383.716C175.224 381.888 174.219 379.457 174.219 376.87C174.219 374.285 175.224 371.852 177.052 370.023C178.88 368.195 181.314 367.188 183.901 367.188C186.485 367.188 188.916 368.195 190.747 370.023Z" fill="#373A52"/>
<path d="M206.253 354.242C207.981 355.973 208.935 358.273 208.935 360.719C208.935 363.163 207.981 365.462 206.253 367.193C204.522 368.919 202.225 369.873 199.779 369.873C197.335 369.873 195.035 368.919 193.304 367.193C191.576 365.462 190.625 363.163 190.625 360.719C190.625 358.273 191.576 355.973 193.304 354.242C195.035 352.519 197.335 351.562 199.779 351.562C202.225 351.568 204.522 352.519 206.253 354.242Z" fill="#373A52"/>
<path d="M222.415 338.836C224.028 340.449 224.92 342.597 224.92 344.882C224.92 347.167 224.028 349.318 222.415 350.928C220.8 352.549 218.651 353.436 216.366 353.436C214.082 353.436 211.936 352.549 210.318 350.928C208.702 349.318 207.812 347.167 207.812 344.882C207.812 342.597 208.702 340.449 210.318 338.836C211.936 337.218 214.082 336.328 216.366 336.328C218.651 336.328 220.8 337.218 222.415 338.836Z" fill="#373A52"/>
<path d="M237.665 323.401C239.152 324.886 239.97 326.868 239.97 328.968C239.97 331.071 239.152 333.05 237.665 334.537C236.175 336.025 234.198 336.842 232.096 336.842C229.991 336.842 228.014 336.025 226.526 334.537C225.039 333.05 224.219 331.071 224.219 328.968C224.219 326.868 225.039 324.886 226.526 323.401C228.014 321.914 229.991 321.094 232.096 321.094C234.198 321.094 236.175 321.914 237.665 323.401Z" fill="#373A52"/>
<path d="M252.781 307.949C254.13 309.293 254.869 311.077 254.869 312.985C254.869 314.888 254.13 316.675 252.781 318.018C251.438 319.365 249.648 320.108 247.748 320.108C245.843 320.108 244.058 319.365 242.71 318.018C241.366 316.675 240.625 314.888 240.625 312.985C240.625 311.077 241.366 309.293 242.71 307.949C244.058 306.6 245.843 305.859 247.748 305.859C249.648 305.859 251.438 306.6 252.781 307.949Z" fill="#373A52"/>
<path d="M268.495 292.458C269.677 293.64 270.325 295.21 270.325 296.884C270.325 298.553 269.677 300.125 268.495 301.307C267.313 302.489 265.743 303.14 264.071 303.14C262.4 303.14 260.828 302.489 259.646 301.307C258.464 300.125 257.812 298.553 257.812 296.884C257.812 295.21 258.464 293.64 259.646 292.458C260.828 291.276 262.4 290.625 264.071 290.625C265.743 290.625 267.313 291.276 268.495 292.458Z" fill="#373A52"/>
<path d="M284.01 276.934C285.008 277.929 285.556 279.257 285.556 280.665C285.556 282.078 285.008 283.403 284.01 284.398C283.013 285.398 281.69 285.944 280.277 285.944C278.869 285.944 277.544 285.398 276.549 284.398C275.549 283.403 275 282.078 275 280.665C275 279.257 275.551 277.929 276.549 276.934C277.544 275.937 278.869 275.391 280.277 275.391C281.69 275.391 283.013 275.937 284.01 276.934Z" fill="#373A52"/>
<path d="M298.552 261.778C299.345 262.562 299.781 263.619 299.781 264.737C299.781 265.855 299.345 266.906 298.552 267.693C297.76 268.488 296.711 268.924 295.593 268.924C294.475 268.924 293.424 268.488 292.632 267.693C291.84 266.906 291.406 265.849 291.406 264.737C291.406 263.619 291.84 262.562 292.632 261.778C293.424 260.985 294.475 260.547 295.593 260.547C296.711 260.547 297.76 260.985 298.552 261.778Z" fill="#373A52"/>
<path d="M313.683 246.966C314.248 247.527 314.555 248.278 314.555 249.073C314.555 249.873 314.248 250.617 313.683 251.184C313.119 251.742 312.371 252.058 311.576 252.058C310.778 252.058 310.03 251.742 309.468 251.184C308.901 250.617 308.594 249.873 308.594 249.073C308.594 248.278 308.901 247.527 309.466 246.966C310.03 246.401 310.778 246.094 311.576 246.094C312.371 246.094 313.117 246.401 313.683 246.966Z" fill="#373A52"/>
<path d="M329.401 231.735C329.716 232.047 329.888 232.468 329.888 232.909C329.888 233.353 329.716 233.773 329.401 234.086C329.086 234.399 328.668 234.573 328.224 234.573C327.78 234.573 327.365 234.399 327.05 234.086C326.734 233.773 326.562 233.353 326.562 232.909C326.562 232.468 326.734 232.047 327.05 231.729C327.365 231.422 327.78 231.25 328.224 231.25C328.668 231.25 329.086 231.422 329.401 231.735Z" fill="#373A52"/>
<path d="M344.147 216.866L344.219 217.03L344.147 217.194L343.983 217.264L343.817 217.194L343.75 217.03L343.817 216.866L343.983 216.797L344.147 216.866Z" fill="#373A52"/>
</svg>
