<svg xmlns="http://www.w3.org/2000/svg" xmlns:xlink="http://www.w3.org/1999/xlink" viewBox="0 0 24 24" fill="#144364">
  <path d="M8 2C7.448 2 7 2.448 7 3L7 4C7 4.552 7.448 5 8 5C8.552 5 9 4.552 9 4L9 3C9 2.448 8.552 2 8 2 z M 12 2C11.448 2 11 2.448 11 3L11 4C11 4.552 11.448 5 12 5C12.552 5 13 4.552 13 4L13 3C13 2.448 12.552 2 12 2 z M 16 2C15.448 2 15 2.448 15 3L15 4C15 4.552 15.448 5 16 5C16.552 5 17 4.552 17 4L17 3C17 2.448 16.552 2 16 2 z M 5 6C4.448 6 4 6.448 4 7C4 9.61278 5.6474825 11.891261 8.078125 13.09375L4.640625 20.601562C4.341625 21.255562 4.8181094 22 5.5371094 22C5.9231094 22 6.2745469 21.775781 6.4355469 21.425781L8.015625 18L15.970703 18L16.365234 18.851562 A 2 2 0 0 0 16 20 A 2 2 0 0 0 18 22 A 2 2 0 0 0 20 20 A 2 2 0 0 0 18.179688 18.009766L15.904297 13.103516C18.344903 11.903429 20 9.6192803 20 7C20 6.448 19.552 6 19 6L5 6 z M 9.96875 13.763672C10.61866 13.913324 11.297157 14 12 14C12.694528 14 13.364843 13.913823 14.007812 13.767578L15.042969 16L8.9375 16L9.96875 13.763672 z" fill="#144364" />
</svg>