<svg xmlns="http://www.w3.org/2000/svg" xmlns:xlink="http://www.w3.org/1999/xlink" viewBox="0 0 24 24" fill="#144364">
  <path d="M4 3C2.897 3 2 3.897 2 5L2 8.7636719C2 9.0726719 2.0729375 9.3812031 2.2109375 9.6582031L3.828125 12.894531C4.168125 13.576531 4.8531875 14 5.6171875 14L18.382812 14C19.146812 14 19.831875 13.575531 20.171875 12.894531L21.789062 9.6582031C21.927063 9.3812031 22 9.0716719 22 8.7636719L22 5C22 3.897 21.103 3 20 3L4 3 z M 4.6171875 10L19.382812 10L18.382812 12L5.6171875 12L4.6171875 10 z M 8 16 A 1 1 0 0 0 7 17 A 1 1 0 0 0 8 18 A 1 1 0 0 0 9 17 A 1 1 0 0 0 8 16 z M 12 16 A 1 1 0 0 0 11 17 A 1 1 0 0 0 12 18 A 1 1 0 0 0 13 17 A 1 1 0 0 0 12 16 z M 16 16 A 1 1 0 0 0 15 17 A 1 1 0 0 0 16 18 A 1 1 0 0 0 17 17 A 1 1 0 0 0 16 16 z M 6 19 A 1 1 0 0 0 5 20 A 1 1 0 0 0 6 21 A 1 1 0 0 0 7 20 A 1 1 0 0 0 6 19 z M 12 19 A 1 1 0 0 0 11 20 A 1 1 0 0 0 12 21 A 1 1 0 0 0 13 20 A 1 1 0 0 0 12 19 z M 18 19 A 1 1 0 0 0 17 20 A 1 1 0 0 0 18 21 A 1 1 0 0 0 19 20 A 1 1 0 0 0 18 19 z" fill="#144364" />
</svg>