<svg xmlns="http://www.w3.org/2000/svg" xmlns:xlink="http://www.w3.org/1999/xlink" viewBox="0 0 24 24" fill="#144364">
  <path d="M7 2 A 1.0001 1.0001 0 0 0 5.9863281 3L5 3C3.897 3 3 3.897 3 5L3 9L21 9L21 5C21 3.897 20.103 3 19 3L18.013672 3 A 1.0001 1.0001 0 0 0 17 2L15 2 A 1.0001 1.0001 0 0 0 13.986328 3L11.013672 3 A 1.0001 1.0001 0 0 0 10 2L7 2 z M 6 5C6.552 5 7 5.448 7 6C7 6.552 6.552 7 6 7C5.448 7 5 6.552 5 6C5 5.448 5.448 5 6 5 z M 9 5C9.552 5 10 5.448 10 6C10 6.552 9.552 7 9 7C8.448 7 8 6.552 8 6C8 5.448 8.448 5 9 5 z M 12 5C12.552 5 13 5.448 13 6C13 6.552 12.552 7 12 7C11.448 7 11 6.552 11 6C11 5.448 11.448 5 12 5 z M 18 5C18.552 5 19 5.448 19 6C19 6.552 18.552 7 18 7C17.448 7 17 6.552 17 6C17 5.448 17.448 5 18 5 z M 3 11L3 19C3 20.103 3.897 21 5 21L19 21C20.103 21 21 20.103 21 19L21 11L3 11 z M 7 14L17 14C17.552 14 18 14.448 18 15L18 17C18 17.552 17.552 18 17 18L7 18C6.448 18 6 17.552 6 17L6 15C6 14.448 6.448 14 7 14 z" fill="#144364" />
</svg>