<?xml version="1.0" encoding="UTF-8" standalone="no"?>
<!DOCTYPE svg PUBLIC "-//W3C//DTD SVG 1.1//EN" "http://www.w3.org/Graphics/SVG/1.1/DTD/svg11.dtd">
<svg width="100%" height="100%" viewBox="0 0 24 24" version="1.1" xmlns="http://www.w3.org/2000/svg" xmlns:xlink="http://www.w3.org/1999/xlink" xml:space="preserve" xmlns:serif="http://www.serif.com/" style="fill-rule:evenodd;clip-rule:evenodd;stroke-linejoin:round;stroke-miterlimit:2;">
    <g>
        <rect x="0" y="0" width="24" height="24" style="fill:none;"/>
    </g>
    <g transform="matrix(1.33323,0,0,1.33323,-3.99788,-3.9997)">
        <path d="M15.63,14.4L13.11,16.9C10.61,15.47 8.54,13.4 7.11,10.9L9.61,8.38C9.84,8.14 9.94,7.81 9.88,7.48L9.13,3.8C9.04,3.34 8.63,3 8.15,3L4,3C3.44,3 2.97,3.47 3,4.03C3.17,6.92 4.05,9.63 5.43,12C7.01,14.73 9.28,16.99 12,18.57C14.37,19.94 17.08,20.83 19.97,21C20.53,21.03 21,20.56 21,20L21,15.85C21,15.37 20.66,14.96 20.2,14.87L16.53,14.14C16.2,14.07 15.86,14.17 15.63,14.4Z" style="fill:white;fill-rule:nonzero;"/>
    </g>
</svg>
