<svg width="24" height="24" viewBox="0 0 24 24" fill="none" xmlns="http://www.w3.org/2000/svg">
<path d="M19.7826 0C19.6035 4.36704e-05 19.4286 0.0535039 19.2801 0.153541C19.1316 0.253577 19.0163 0.395641 18.949 0.561555C18.8817 0.72747 18.8655 0.909689 18.9023 1.0849C18.9392 1.26011 19.0274 1.42034 19.1559 1.5451L21.4214 3.81062C21.6482 4.03739 21.6482 4.3769 21.4214 4.60367L19.6479 6.37837L14.7361 1.46661C14.6532 1.38027 14.5539 1.31134 14.444 1.26385C14.3342 1.21636 14.2159 1.19128 14.0962 1.19006C13.9765 1.18884 13.8578 1.21152 13.747 1.25676C13.6362 1.302 13.5355 1.3689 13.4509 1.45354C13.3662 1.53818 13.2993 1.63885 13.2541 1.74967C13.2089 1.86048 13.1862 1.97921 13.1874 2.0989C13.1886 2.21859 13.2137 2.33684 13.2612 2.44671C13.3087 2.55658 13.3776 2.65588 13.4639 2.73877L18.9075 8.18235C18.9643 8.26132 19.0336 8.33055 19.1125 8.38735L20.4069 9.68176C21.1973 10.4721 21.1973 11.7262 20.4069 12.5166L15.5116 17.4119C14.7212 18.2023 13.4671 18.2023 12.6768 17.4119L5.73376 10.469C5.65087 10.3826 5.55157 10.3137 5.4417 10.2662C5.33183 10.2187 5.21359 10.1936 5.0939 10.1924C4.97421 10.1912 4.85548 10.2139 4.74466 10.2591C4.63385 10.3044 4.53318 10.3713 4.44854 10.4559C4.3639 10.5405 4.297 10.6412 4.25176 10.752C4.20652 10.8628 4.18384 10.9816 4.18506 11.1012C4.18628 11.2209 4.21136 11.3392 4.25885 11.4491C4.30633 11.5589 4.37527 11.6582 4.46161 11.7411L5.81108 13.0906L2.1504 16.7513C1.68258 17.2191 1.68258 17.9797 2.1504 18.4475L2.97742 19.2745L1.37492 20.877C1.33773 20.9148 1.30525 20.9573 1.27886 21.0035L0.0793326 23.1027C-0.0550149 23.3378 -0.0159365 23.633 0.175389 23.8243C0.290544 23.94 0.444103 24 0.599442 24C0.701402 24 0.804018 23.9737 0.896982 23.9203L2.99616 22.7208C3.04234 22.6944 3.08489 22.6625 3.12268 22.6248L4.72517 21.0223L5.55337 21.8504C5.78008 22.076 6.08063 22.2007 6.4003 22.2007C6.71998 22.2007 7.0205 22.076 7.24841 21.8493L10.9091 18.1886L11.4046 18.6841C12.8826 20.1621 15.3058 20.1621 16.7837 18.6841L21.6791 13.7888C23.1571 12.3108 23.1571 9.88757 21.6791 8.40961L20.92 7.65053L22.6935 5.87583C23.6075 4.96185 23.6075 3.45244 22.6935 2.53846L20.428 0.27294C20.3442 0.186582 20.2438 0.117929 20.133 0.0710466C20.0221 0.024164 19.9029 4.79325e-06 19.7826 0V0ZM12.8946 5.10738C12.6645 5.10738 12.4343 5.19522 12.2586 5.37095L8.36008 9.26943C8.00862 9.62029 8.00862 10.1907 8.36008 10.5416L9.55961 11.7411C9.73475 11.9174 9.96538 12.0047 10.1957 12.0047C10.426 12.0047 10.656 11.9168 10.8318 11.7411L14.7303 7.84264C15.0811 7.49118 15.0811 6.92194 14.7303 6.57048L13.5307 5.37095C13.355 5.19522 13.1248 5.10738 12.8946 5.10738ZM16.7931 9.00586C16.563 9.00586 16.3328 9.09369 16.157 9.26943L12.2586 13.1679C11.9071 13.5188 11.9071 14.0892 12.2586 14.4401L13.4581 15.6396C13.6338 15.8153 13.865 15.902 14.0953 15.902C14.3257 15.902 14.5557 15.8153 14.7314 15.6396L18.6299 11.7411C18.9802 11.3903 18.9796 10.8204 18.6287 10.469L17.4292 9.26943C17.2535 9.09369 17.0233 9.00586 16.7931 9.00586Z" fill="white"/>
</svg>
