<svg width="24" height="24" viewBox="0 0 24 24" fill="none" xmlns="http://www.w3.org/2000/svg">
<path d="M0.899031 0C0.720086 4.36586e-05 0.545222 0.0534749 0.396813 0.153457C0.248404 0.25344 0.1332 0.395426 0.0659394 0.561251C-0.00132068 0.727075 -0.0175774 0.909196 0.0192488 1.08431C0.0560749 1.25943 0.144309 1.41957 0.272663 1.54426L8.39555 9.66715L2.95727 15.1054C2.7055 15.3566 2.51993 15.6711 2.42222 16.0128L0.643801 22.2413C0.554484 22.5555 0.641319 22.8927 0.872103 23.1241C1.04294 23.295 1.27286 23.3875 1.50784 23.3875C1.59056 23.3875 1.67335 23.3758 1.75487 23.3524L7.98343 21.574C8.32571 21.4763 8.63903 21.2907 8.89079 21.039L14.3291 15.6007L22.452 23.7236C22.5348 23.8099 22.6341 23.8787 22.7439 23.9262C22.8537 23.9737 22.9719 23.9987 23.0915 24C23.2111 24.0012 23.3298 23.9785 23.4405 23.9333C23.5513 23.8881 23.6519 23.8212 23.7365 23.7366C23.8211 23.652 23.8879 23.5514 23.9332 23.4407C23.9784 23.3299 24.001 23.2112 23.9998 23.0916C23.9986 22.972 23.9735 22.8538 23.9261 22.744C23.8786 22.6342 23.8097 22.5349 23.7234 22.4521L1.54413 0.272792C1.46032 0.186481 1.36004 0.117865 1.24923 0.0710081C1.13842 0.0241508 1.01934 4.79867e-06 0.899031 0ZM19.1913 0.608807C18.0704 0.608807 17.0164 1.04567 16.2246 1.83813L15.062 3.00071L20.9955 8.93424L22.1581 7.77165C22.9506 6.97919 23.3874 5.92584 23.3874 4.80489C23.3874 3.68394 22.95 2.63059 22.1581 1.83813C21.3656 1.04627 20.3123 0.608807 19.1913 0.608807ZM13.7905 4.27218L10.9373 7.12538L16.8708 13.0589L19.724 10.2057L13.7905 4.27218Z" fill="white"/>
</svg>
