<svg width="24" height="23" viewBox="0 0 24 23" fill="none" xmlns="http://www.w3.org/2000/svg">
<path d="M19.1429 0C18.3571 0 17.6593 0.325505 17.2165 0.823661C16.7737 1.32182 16.5714 1.95238 16.5714 2.57143C16.5714 3.19048 16.7737 3.82104 17.2165 4.3192C17.4892 4.62592 17.8587 4.86656 18.2857 5.0067V9.91741C16.747 10.2158 15.7144 10.6875 14.8571 11.1027V12.0569V13.0112V15.1429C14.8571 15.6171 14.4743 16 14 16C13.5257 16 13.1429 15.6171 13.1429 15.1429V13.5938V12.7143V11.8348V7.29241C13.5698 7.15227 13.9394 6.91164 14.2121 6.60491C14.6549 6.10675 14.8571 5.47619 14.8571 4.85714C14.8571 4.2381 14.6549 3.60753 14.2121 3.10938C13.7692 2.61122 13.0714 2.28571 12.2857 2.28571C11.5 2.28571 10.8022 2.61122 10.3594 3.10938C9.91657 3.60753 9.71429 4.2381 9.71429 4.85714C9.71429 5.47619 9.91657 6.10675 10.3594 6.60491C10.632 6.91164 11.0016 7.15227 11.4286 7.29241V11.9821C10.4588 11.906 9.84207 11.5921 9.02232 11.1719C8.43375 10.869 7.76571 10.5201 6.85714 10.2344V11.1317V12.0458V13.4286C6.85714 13.9029 6.47429 14.2857 6 14.2857C5.52571 14.2857 5.14286 13.9029 5.14286 13.4286V11.5603V10.6975V9.82255V5.57813C5.56985 5.43799 5.93941 5.19735 6.21205 4.89063C6.65486 4.39247 6.85714 3.7619 6.85714 3.14286C6.85714 2.52381 6.65486 1.89325 6.21205 1.39509C5.76925 0.896933 5.07143 0.571429 4.28571 0.571429C3.5 0.571429 2.80218 0.896933 2.35938 1.39509C1.91657 1.89325 1.71429 2.52381 1.71429 3.14286C1.71429 3.7619 1.91657 4.39247 2.35938 4.89063C2.63202 5.19735 3.00158 5.43799 3.42857 5.57813V9.64509C2.35957 9.58984 1.27687 9.63686 0.207589 9.79018C0.0887321 9.80732 0 9.91125 0 10.0313V20.0435C0 21.5972 1.2599 22.8571 2.81362 22.8571H21.1864C22.7401 22.8571 24 21.5972 24 20.0435V10.0223C24 9.90232 23.9118 9.79946 23.7924 9.7846C23.109 9.69831 22.4057 9.63635 21.7143 9.62835V10.4911V11.3482V12.8571C21.7143 13.3314 21.3314 13.7143 20.8571 13.7143C20.3829 13.7143 20 13.3314 20 12.8571V11.4063V10.5491V9.68527V5.0067C20.427 4.86656 20.7966 4.62592 21.0692 4.3192C21.512 3.82104 21.7143 3.19048 21.7143 2.57143C21.7143 1.95238 21.512 1.32182 21.0692 0.823661C20.6264 0.325505 19.9286 0 19.1429 0ZM19.1429 1.71429C19.5 1.71429 19.6593 1.81735 19.7879 1.96205C19.9166 2.10675 20 2.33333 20 2.57143C20 2.80952 19.9166 3.0361 19.7879 3.1808C19.6593 3.3255 19.5 3.42857 19.1429 3.42857C18.7857 3.42857 18.6264 3.3255 18.4978 3.1808C18.3691 3.0361 18.2857 2.80952 18.2857 2.57143C18.2857 2.33333 18.3691 2.10675 18.4978 1.96205C18.6264 1.81735 18.7857 1.71429 19.1429 1.71429ZM4.28571 2.28571C4.64286 2.28571 4.80218 2.38878 4.9308 2.53348C5.05943 2.67818 5.14286 2.90476 5.14286 3.14286C5.14286 3.38095 5.05943 3.60753 4.9308 3.75223C4.80218 3.89693 4.64286 4 4.28571 4C3.92857 4 3.76925 3.89693 3.64063 3.75223C3.512 3.60753 3.42857 3.38095 3.42857 3.14286C3.42857 2.90476 3.512 2.67818 3.64063 2.53348C3.76925 2.38878 3.92857 2.28571 4.28571 2.28571ZM12.2857 4C12.6429 4 12.8022 4.10307 12.9308 4.24777C13.0594 4.39247 13.1429 4.61905 13.1429 4.85714C13.1429 5.09524 13.0594 5.32182 12.9308 5.46652C12.8022 5.61122 12.6429 5.71429 12.2857 5.71429C11.9286 5.71429 11.7692 5.61122 11.6406 5.46652C11.512 5.32182 11.4286 5.09524 11.4286 4.85714C11.4286 4.61905 11.512 4.39247 11.6406 4.24777C11.7692 4.10307 11.9286 4 12.2857 4Z" fill="white"/>
</svg>
