<svg width="24" height="24" viewBox="0 0 24 24" fill="none" xmlns="http://www.w3.org/2000/svg">
<path d="M14.6892 0C13.8423 0 12.9946 0.320414 12.3537 0.961169L0.961344 12.351C-0.320448 13.6325 -0.320448 15.7382 0.961344 17.0197L6.977 23.0341C7.51368 23.5706 8.20223 23.8283 8.9068 23.9155C9.02934 23.9727 9.16318 24.0015 9.29839 23.9999H20.1034C20.2227 24.0016 20.3411 23.9796 20.4519 23.9351C20.5626 23.8906 20.6634 23.8246 20.7483 23.7408C20.8333 23.657 20.9008 23.5572 20.9468 23.4472C20.9929 23.3371 21.0166 23.219 21.0166 23.0997C21.0166 22.9804 20.9929 22.8623 20.9468 22.7522C20.9008 22.6422 20.8333 22.5424 20.7483 22.4586C20.6634 22.3748 20.5626 22.3088 20.4519 22.2643C20.3411 22.2198 20.2227 22.1978 20.1034 22.1995H12.4803L23.0391 11.643C24.3206 10.361 24.3204 8.25573 23.0379 6.97433L17.0234 0.961169C16.3825 0.320414 15.536 0 14.6892 0ZM3.98617 11.8728L12.1239 20.0087L10.3723 21.7599C10.0795 22.0527 9.7025 22.1956 9.32535 22.1995H9.29839C9.298 22.1995 9.2976 22.1995 9.29721 22.1995C8.92006 22.1956 8.54305 22.0527 8.25025 21.7599L2.23459 15.7468C1.64111 15.1534 1.64111 14.2173 2.23459 13.624L3.98617 11.8728Z" fill="white"/>
</svg>
