<svg width="13" height="24" viewBox="0 0 13 24" fill="none" xmlns="http://www.w3.org/2000/svg">
<path d="M1.28396 0.00116531C1.60282 0.0150746 1.90378 0.152422 2.12322 0.384175L12.5738 11.1421C12.797 11.3716 12.9219 11.6792 12.9219 11.9993C12.9219 12.3195 12.797 12.6271 12.5738 12.8566L2.12322 23.6145C2.01131 23.7331 1.87695 23.8282 1.72794 23.8943C1.57894 23.9604 1.41828 23.9963 1.2553 23.9997C1.09232 24.0032 0.930273 23.9742 0.778593 23.9145C0.626913 23.8548 0.488625 23.7655 0.371773 23.6518C0.254921 23.5381 0.161838 23.4023 0.0979394 23.2524C0.0340404 23.1024 0.000599778 22.9412 -0.000434907 22.7782C-0.00146959 22.6152 0.0299213 22.4536 0.0919114 22.3028C0.153902 22.1521 0.245254 22.0151 0.360654 21.9L9.97793 11.9993L0.360654 2.09872C0.185564 1.92349 0.0674803 1.69946 0.0218722 1.45599C-0.0237358 1.21251 0.0052577 0.960937 0.105055 0.734219C0.204853 0.5075 0.370801 0.31621 0.581161 0.185407C0.791521 0.0546029 1.03648 -0.00961494 1.28396 0.00116531V0.00116531Z" fill="white"/>
</svg>
