<svg width="22" height="24" viewBox="0 0 22 24" fill="none" xmlns="http://www.w3.org/2000/svg">
<path d="M9.07314 8.78115e-05C8.95679 -0.00155769 8.84127 0.0199379 8.7333 0.0633254C8.62532 0.106713 8.52705 0.171127 8.44419 0.252824C8.36133 0.334522 8.29553 0.431873 8.25062 0.53922C8.20571 0.646568 8.18259 0.76177 8.18259 0.878133C8.18259 0.994497 8.20571 1.1097 8.25062 1.21705C8.29553 1.32439 8.36133 1.42175 8.44419 1.50344C8.52705 1.58514 8.62532 1.64955 8.7333 1.69294C8.84127 1.73633 8.95679 1.75782 9.07314 1.75618H9.6585V2.97149C4.25895 3.42012 0 7.95007 0 13.4635C0 19.2732 4.72681 24 10.5365 24C16.3463 24 21.0731 19.2732 21.0731 13.4635C21.0731 10.8741 20.1303 8.50314 18.575 6.6666L19.6428 5.59877C19.7695 5.4754 19.856 5.31667 19.891 5.14334C19.9259 4.97001 19.9077 4.79016 19.8388 4.62733C19.7699 4.4645 19.6534 4.32628 19.5046 4.23075C19.3558 4.13521 19.1816 4.08683 19.0049 4.09192C18.7769 4.09856 18.5604 4.19369 18.4012 4.35716L17.3334 5.42499C15.707 4.04767 13.6603 3.15808 11.4146 2.97149V1.75618H12C12.1163 1.75782 12.2318 1.73633 12.3398 1.69294C12.4478 1.64955 12.546 1.58514 12.6289 1.50344C12.7118 1.42175 12.7776 1.32439 12.8225 1.21705C12.8674 1.1097 12.8905 0.994497 12.8905 0.878133C12.8905 0.76177 12.8674 0.646568 12.8225 0.53922C12.7776 0.431873 12.7118 0.334522 12.6289 0.252824C12.546 0.171127 12.4478 0.106713 12.3398 0.0633254C12.2318 0.0199379 12.1163 -0.00155769 12 8.78115e-05H9.07314ZM14.3414 8.78054C14.566 8.78054 14.7907 8.86627 14.9622 9.03778C15.3052 9.38022 15.3047 9.93637 14.9622 10.2794L12.2275 13.0141C12.2655 13.1581 12.2926 13.3072 12.2926 13.4635C12.2926 14.4334 11.5065 15.2195 10.5365 15.2195C9.5666 15.2195 8.78046 14.4334 8.78046 13.4635C8.78046 12.4935 9.5666 11.7074 10.5365 11.7074C10.6928 11.7074 10.8419 11.7339 10.9859 11.7725L13.7206 9.03778C13.8921 8.86627 14.1168 8.78054 14.3414 8.78054Z" fill="white"/>
</svg>
