<svg xmlns="http://www.w3.org/2000/svg" viewBox="0 0 39.35 30.6"><defs><style>.cls-1{fill:#ff9292;}.cls-2{fill:#ffdc96;opacity:0.8;}.cls-3{fill:#97d3d3;opacity:0.9;}</style></defs><g id="Layer_2" data-name="Layer 2"><g id="Layer_1-2" data-name="Layer 1"><path class="cls-1" d="M17.07,3.37A36.28,36.28,0,0,0,10.66,3,12.34,12.34,0,0,0,4.55,4.73C.81,7.15-.71,12.19.31,16.53s4.18,7.94,7.94,10.32A17.23,17.23,0,0,0,15,29.5a11.22,11.22,0,0,0,7.09-1.17,13,13,0,0,0,5.34-6.44A16.44,16.44,0,0,0,28.7,13,12.09,12.09,0,0,0,24.34,5.3a9.58,9.58,0,0,0-8.56-1.71"/><path class="cls-2" d="M8.19,6.19a13.17,13.17,0,0,0-3.52,8.52,12.49,12.49,0,0,0,3.18,8A20,20,0,0,0,15,27.8a13.47,13.47,0,0,0,6.86,1.37c4.23-.48,7.62-4.09,8.94-8.14s.92-8.45.12-12.64c-.6-3.13-2-8.27-6-8.38a25.83,25.83,0,0,0-11,2A17.07,17.07,0,0,0,8.19,6.19Z"/><path class="cls-3" d="M39.27,15.47c-1.53-5.2-5.42-8.11-9.87-11.19A11,11,0,0,0,23,2a11.88,11.88,0,0,0-5.07,1.61c-4.42,2.33-8.55,5.87-10,10.66A12.71,12.71,0,0,0,19.77,30.59a16.83,16.83,0,0,0,9.59-3.1,44.28,44.28,0,0,0,7.56-6.86c1.35-1.44,2.78-3.24,2.35-5.16"/></g></g></svg>